<?xml version="1.0" encoding="UTF-8"?>
<!DOCTYPE svg PUBLIC "-//W3C//DTD SVG 1.1//EN" "http://www.w3.org/Graphics/SVG/1.1/DTD/svg11.dtd">
<!-- Creator: CorelDRAW 2018 (64-Bit) -->
<svg xmlns="http://www.w3.org/2000/svg" xml:space="preserve" width="49px" height="49px" version="1.1" shape-rendering="geometricPrecision" text-rendering="geometricPrecision" image-rendering="optimizeQuality" fill-rule="evenodd" clip-rule="evenodd"
viewBox="0 0 49 49"
 xmlns:xlink="http://www.w3.org/1999/xlink">
 <g id="Layer_x0020_1">
  <metadata id="CorelCorpID_0Corel-Layer"/>
  <g id="_1774604759504">
   <path fill="#FFE07D" d="M36.21 21.92l12.07 0 0 4.2c0,1.04 -0.84,1.88 -1.88,1.88l-4.34 0 -2.59 1.31 -3.26 -1.31 0 -6.08z"/>
   <path fill="#6F6571" d="M36.21 28l5.85 0 0 2.69c0,0.65 -0.53,1.18 -1.18,1.18l-19.04 0c0,-1.7 0,-2.56 1.29,-2.56l2.58 0c1.62,0 2.69,-0.42 3.28,-1.31l7.22 0z"/>
   <path fill="#FFE07D" d="M24.14 31.87l16.74 0c0.99,1.71 1.78,3.76 1.1,7.69 -1.14,-3.87 -12.72,-2.33 -13.91,2.15l-12.77 0c-0.48,-1.1 -0.93,-2.18 -1.33,-3.27l3.6 0c7.28,-2.75 4.94,-1.52 6.57,-6.57z"/>
   <path fill="#FFE07D" d="M23.1 21.36c0.25,1.31 0.59,2.6 0.97,3.71l3.68 1.44 4.11 -1.44c-0.14,-7.77 -3.05,-11.5 -5.52,-12.7 -0.89,-0.68 -1.8,-0.93 -1.8,-0.93 0,0 -1.2,1.91 -1.26,1.91 -0.46,1.1 -0.63,2.53 -0.6,4.08l0.42 3.93z"/>
   <path fill="#878889" d="M31.86 25.07l-7.79 0c-1.79,0.19 -4,1.56 -4,5.79l0 4.43 4.07 0 0 -3.42c0,-1.7 0,-2.56 1.29,-2.56l2.58 0c1.62,0 2.68,-0.42 3.28,-1.31 0.46,-0.68 0.63,-1.65 0.57,-2.93z"/>
   <path fill="#FFC269" d="M31.86 25.07c-0.14,-7.77 -3.05,-11.5 -5.52,-12.7 -0.36,0.26 -0.77,0.47 -1.22,0.63 2.19,1.65 4.38,5.35 4.51,12.07l2.23 0z"/>
   <path fill="#616262" d="M31.86 25.07l-2.23 0c0.06,1.28 -0.11,2.25 -0.57,2.93 -0.38,0.56 -0.94,1.04 -1.72,1.31l0.67 0c1.62,0 2.68,-0.42 3.28,-1.31 0.46,-0.68 0.63,-1.65 0.57,-2.93z"/>
   <path fill="#FFE07D" d="M38.09 15.84l8.31 0c1.04,0 1.88,0.84 1.88,1.88l0 3.12 -12.07 0 0 -3.12c0,-1.04 0.84,-1.88 1.88,-1.88z"/>
   <polygon fill="#FFE07D" points="36.21,19.9 48.28,19.9 48.28,22.86 36.21,22.86 "/>
   <path fill="#FFC269" d="M45.76 19.9l1.55 0 0.97 0 0 -2.18c0,-0.71 -0.39,-1.33 -0.97,-1.65 -0.27,-0.15 -0.58,-0.23 -0.91,-0.23l-2.52 0c1.04,0 1.88,0.84 1.88,1.88l0 2.18z"/>
   <polygon fill="#FFC269" points="45.76,22.86 47.31,22.86 48.28,22.86 48.28,21.92 48.28,20.84 48.28,19.9 47.31,19.9 45.76,19.9 45.76,20.84 45.76,21.92 "/>
   <path fill="#FFC269" d="M45.76 22.86l0 3.26c0,1.04 -0.84,1.88 -1.88,1.88l2.52 0c0.33,0 0.64,-0.08 0.91,-0.23 0.58,-0.32 0.97,-0.94 0.97,-1.65l0 -3.26 -0.97 0 -1.55 0z"/>
   <path fill="#FF8086" d="M28.07 41.71c0,-4.02 3.19,-7.22 7.11,-7.22 3.2,0 5.9,2.12 6.8,5.07 0.18,0.61 0.29,1.25 0.31,1.92 0.01,0.26 -0.17,0.23 -0.42,0.23 -4.6,0 -9.2,0 -13.8,0z"/>
   <path fill="#6F6571" d="M29.86 41.71l10.82 0c-0.15,2.91 -2.52,5.23 -5.41,5.23 -2.89,0 -5.25,-2.32 -5.41,-5.23z"/>
   <path fill="#6F6571" d="M2.39 40.55l9.31 2.15c-0.6,2.57 -3.16,4.18 -5.73,3.58 -2.57,-0.59 -4.17,-3.15 -3.58,-5.73z"/>
   <path fill="#ECEAEC" d="M1.69 37.94c1.32,-1.91 3.6,-3.02 5.99,-2.78 4.21,0.89 5.58,3.41 5.85,6.55 0,0.42 -0.05,0.85 -0.14,1.28 -0.03,0.12 -0.11,0.07 -0.24,0.04l-1.45 -0.33 -9.31 -2.15 -0.7 -0.16 -0.97 -0.22c0.18,-0.82 0.52,-1.57 0.97,-2.23z"/>
   <path fill="#FF8086" d="M7.67 35.15l3.76 -13.01 1.69 -0.76 1.9 0.76c-2.49,6.89 -1.8,11.71 -0.12,16.3 0.4,1.09 0.86,2.17 1.34,3.27l-2.7 0 -5.87 -6.56z"/>
   <path fill="#FFECE4" d="M19.31 7.55l4.42 -0.94c0.44,0.04 1.72,1.12 1.72,1.79l-0.93 4.77c-0.4,0.12 -0.81,0.18 -1.24,0.18 -2.35,0 -4.25,-1.9 -4.25,-4.26 0,-0.54 0.1,-1.06 0.28,-1.54z"/>
   <path fill="#FFE07D" d="M17.89 7.55c0,-3.04 2.4,-5.49 5.37,-5.49 2.97,0 5.37,2.45 5.37,5.49 0,2 -0.81,3.79 -2.29,4.82 -0.52,0.37 -1.14,0.65 -1.82,0.8l0 -4.77c0,-0.67 -0.35,-0.81 -0.79,-0.85l-4.42 0 -1.42 0 0 0z"/>
   <path fill="#FFC269" d="M20.45 2.87c0.82,-0.52 1.78,-0.81 2.81,-0.81 2.97,0 5.37,2.45 5.37,5.49 0,2 -0.81,3.79 -2.29,4.82 -0.37,0.26 -0.79,0.48 -1.24,0.63 1.09,-1.1 1.68,-2.69 1.68,-4.43 0,-3.18 -2.51,-5.75 -5.62,-5.75 -0.24,0 -0.48,0.02 -0.71,0.05z"/>
   <path fill="#D5E2F3" d="M20.07 35.29l4.07 0 0 2.56c0,0.55 -0.3,0.59 -0.74,0.59l-5.83 0c-0.12,-2.57 1.44,-3.15 2.5,-3.15z"/>
   <path fill="#F76672" d="M14.9 38.44c-1.68,-4.59 -2.37,-9.41 0.12,-16.3l-1.4 0 -0.01 0 -0.51 0c-2.48,6.89 -1.79,11.71 -0.11,16.3 0.4,1.09 0.86,2.17 1.34,3.27l0.97 0 0.94 0c-0.48,-1.1 -0.94,-2.18 -1.34,-3.27z"/>
   <path fill="#DAD8DB" d="M13.53 41.71l-5.85 -6.55c-0.61,-0.06 -1.21,-0.04 -1.78,0.07l5.62 6.29c0,0.37 -0.04,0.74 -0.11,1.11l0.29 0.07 1.45 0.33c0.13,0.03 0.21,0.08 0.24,-0.04 0.09,-0.43 0.14,-0.86 0.14,-1.28z"/>
   <path fill="#FFC269" d="M40.88 31.87l-16.74 0 0 1.47 13.76 0c1.12,0 1.65,0.48 2.09,1.46 0.37,0.85 0.38,1.13 0.55,2.16 0.65,0.74 1.14,1.63 1.44,2.6 0.68,-3.93 -0.11,-5.98 -1.1,-7.69z"/>
   <path fill="#F76672" d="M40.54 36.96c-1.3,-1.52 -3.22,-2.47 -5.36,-2.47 -0.54,0 -1.06,0.06 -1.56,0.18 3.21,0.72 5.45,3.55 5.54,6.81 0.01,0.18 -0.07,0.22 -0.2,0.23l1.72 0 1.19 0c0.25,0 0.43,0.03 0.42,-0.23 -0.02,-0.67 -0.13,-1.31 -0.31,-1.92 -0.01,-0.02 -0.02,-0.03 -0.02,-0.05l0 0c-0.3,-0.95 -0.78,-1.82 -1.42,-2.55z"/>
   <path fill="#5D5360" d="M11.41 42.63l-9.02 -2.08c-0.1,0.43 -0.14,0.86 -0.12,1.28l7.16 1.65 0.28 0.06c-0.26,1.17 -0.94,2.14 -1.84,2.79 1.84,-0.32 3.38,-1.71 3.83,-3.63l-0.29 -0.07z"/>
   <path fill="#5D5360" d="M38.96 41.71l-9.1 0c0.03,0.57 0.15,1.12 0.34,1.63l6.33 0 1.73 0c-0.07,1.28 -0.56,2.44 -1.33,3.34 2.09,-0.69 3.63,-2.64 3.75,-4.97l-1.72 0z"/>
   <path fill="#5D5360" d="M42.06 30.69l0 -2.69 -3.68 0 0 2.69c0,0.65 -0.53,1.18 -1.17,1.18l3.67 0c0.65,0 1.18,-0.53 1.18,-1.18z"/>
   <path fill="#FFDDCE" d="M19.05 8.64l3.62 0c0.45,0.04 0.79,0.18 0.79,0.85l0 3.86c0.37,-0.02 0.72,-0.08 1.06,-0.18l0 -4.77c0,-0.67 -0.35,-0.81 -0.79,-0.85l-4.42 0c-0.13,0.34 -0.22,0.71 -0.26,1.09z"/>
   <path fill="#FF8086" d="M10.65 18.04l5.07 1.68c0.25,0.22 -0.03,2.49 -0.2,2.42l-4.09 0 -1.81 0 0 -3.74c0,-0.73 0.38,-0.57 1.03,-0.36z"/>
   <path fill="#FFECE4" d="M18.09 22.14l-0.43 0 -2.14 0c-1.38,0 -1.42,-2.29 0.2,-2.42l2.37 -0.19 0.63 1.34 -0.63 1.27z"/>
   <path fill="#FFE07D" d="M22.68 17.43l0.84 -0.73c2.13,-1.84 4.82,1.26 1.98,3.1l-2.4 1.56 -1.2 0.78 -3.81 0 0 -2.61 2.37 -0.19 2.22 -1.91z"/>
   <path fill="#FFDDCE" d="M18.09 22.14l0 -1.27 -0.51 0 -0.27 0 -0.43 0 -2.14 0c-0.08,0 -0.16,0 -0.23,-0.02 -0.08,0.63 0.27,1.29 1.01,1.29l2.14 0 0.43 0z"/>
   <path fill="#FFC269" d="M25.5 19.8c1.72,-1.12 1.41,-2.69 0.43,-3.35 0.08,0.68 -0.24,1.46 -1.22,2.09l-1.86 1.21 -0.53 0.34 -1.2 0.78 -3.03 0 0 1.27 3.81 0 1.2 -0.78 2.4 -1.56z"/>
   <path fill="#F76672" d="M15.72 19.72l-2.04 -0.67c-0.68,0.73 -1.01,2.16 -0.58,3.09l1.92 0 0.5 0c-0.74,0 -1.09,-0.66 -1.01,-1.29 0.07,-0.54 0.46,-1.07 1.21,-1.13z"/>
   <path fill="black" fill-rule="nonzero" d="M47.56 19.18l-10.63 0 0 -1.46c0,-0.64 0.52,-1.17 1.16,-1.17l8.31 0c0.64,0 1.16,0.53 1.16,1.17l0 1.46zm0 2.96l-10.63 0 0 -1.52 10.63 0 0 1.52zm0 3.98c0,0.64 -0.52,1.17 -1.16,1.17l-9.47 0 0 -3.71 10.63 0 0 2.54zm-6.88 14.87l-10.82 0 -1.03 0c0.35,-3.24 3.07,-5.78 6.35,-5.78 2.89,0 5.31,1.9 6.11,4.57 0,0 0.01,0.01 0.01,0.02 0.11,0.38 0.19,0.78 0.24,1.19l-0.86 0zm-5.41 5.24c-2.24,0 -4.13,-1.62 -4.59,-3.8l9.19 0c-0.46,2.18 -2.35,3.8 -4.6,3.8zm-18.56 -5.24c-0.27,-0.61 -0.52,-1.22 -0.76,-1.83l7.45 0c0.97,0 1.46,-0.44 1.46,-1.31l0 -2.56 0 -2.71 5.66 0c0.4,0 0.72,-0.32 0.72,-0.71 0,-0.4 -0.32,-0.72 -0.72,-0.72l-5.66 0c0.01,-0.41 0.04,-0.74 0.11,-0.94 0.04,-0.1 0.07,-0.18 0.46,-0.18l2.58 0c1.61,0 2.77,-0.39 3.53,-1.2 0.03,-0.03 0.07,-0.07 0.1,-0.11l4.57 0 5.13 0 0 1.97c0,0.25 -0.21,0.46 -0.46,0.46l-7.14 0c-0.4,0 -0.72,0.32 -0.72,0.72 0,0.39 0.32,0.71 0.72,0.71l6.72 0c0.57,1.06 1.08,2.37 1.05,4.44 -1.42,-1.97 -3.72,-3.24 -6.33,-3.24 -2.09,0 -4.06,0.82 -5.53,2.31 -1.31,1.33 -2.1,3.04 -2.26,4.9l-10.68 0zm-1.18 -18.13l6.37 0c0.14,0 0.27,-0.04 0.39,-0.12l0.33 -0.21c0.15,0.69 0.33,1.36 0.52,2 -1.46,0.43 -3.78,1.83 -3.78,6.33l0 3.79c-0.51,0.1 -1.1,0.33 -1.6,0.85 -0.53,0.55 -0.83,1.3 -0.9,2.22l-1.45 0c-1.46,-4.2 -2.01,-8.68 0.12,-14.86zm-1.45 -2.92c-0.21,0.35 -0.32,0.77 -0.3,1.17 0.01,0.11 0.02,0.21 0.04,0.3 0,0.01 0,0.01 0,0.01l-3.48 0 0 -2.73 3.74 1.24c0,0 0,0.01 0,0.01zm1.7 0.49l1.6 -0.13 0 1.12 -1.86 0c-0.24,0 -0.3,-0.2 -0.3,-0.37 -0.01,-0.09 0,-0.57 0.56,-0.62zm3.03 -0.24l1.7 -0.14c0.16,-0.01 0.3,-0.07 0.41,-0.17l3.07 -2.64 0 0c0.3,-0.26 0.62,-0.39 0.93,-0.39 0.13,0 0.27,0.03 0.4,0.08 0.38,0.15 0.65,0.5 0.69,0.89 0.04,0.48 -0.28,0.97 -0.9,1.38l-3.42 2.22 -2.88 0 0 -1.23 0 0zm0.93 -11.1c0,-0.28 0.04,-0.56 0.1,-0.82l3.85 0c0.04,0 0.08,0.01 0.1,0.01 0,0.03 0.01,0.07 0.01,0.12l0 4.2c-0.17,0.02 -0.35,0.04 -0.52,0.04l0 0c-1.95,-0.01 -3.54,-1.59 -3.54,-3.55zm-1.08 -2.26c0.34,-2.29 2.27,-4.05 4.6,-4.05 2.57,0 4.66,2.14 4.66,4.77 0,2.14 -1.03,3.87 -2.69,4.63l0 -3.78c0,-0.65 -0.25,-1.46 -1.44,-1.56 -0.02,-0.01 -0.04,-0.01 -0.06,-0.01l-5.07 0zm12.46 17.52l-6.53 0c-0.26,-0.83 -0.49,-1.73 -0.69,-2.66l1.99 -1.28c1.08,-0.71 1.65,-1.7 1.54,-2.73 -0.08,-0.92 -0.71,-1.73 -1.58,-2.08 -0.79,-0.32 -1.65,-0.22 -2.41,0.27 0.07,-0.69 0.18,-1.3 0.35,-1.82 0.31,-0.04 0.61,-0.1 0.91,-0.18 0.61,-0.14 1.17,-0.37 1.67,-0.67 1.39,0.83 4.43,3.51 4.75,11.15zm-7.7 11.66l0 1.71 -0.02 0 -5.1 0c0.06,-0.53 0.22,-0.94 0.5,-1.22 0.4,-0.43 0.97,-0.49 1.27,-0.49l3.35 0zm0.21 -6.31c-0.21,0.55 -0.21,1.23 -0.21,2.17l0 2.7 -2.63 0 0 -3.71c0,-4.2 2.3,-4.95 3.32,-5.07l7.04 0c-0.03,0.95 -0.24,1.63 -0.65,2.06 -0.48,0.5 -1.29,0.74 -2.49,0.74l-2.58 0.01c-0.92,0 -1.52,0.37 -1.8,1.1zm-10.84 12.51l-11.17 -2.57c0.86,-2.36 3.18,-3.92 5.72,-3.79l5.47 6.12c-0.01,0.08 -0.01,0.16 -0.02,0.24zm-3.59 2.86c-0.92,0.57 -2.01,0.76 -3.07,0.51l0 0c-1.94,-0.44 -3.24,-2.22 -3.14,-4.15l7.79 1.79c-0.33,0.76 -0.87,1.4 -1.58,1.85zm37.2 -29.95l-8.31 0c-1.43,0 -2.6,1.17 -2.6,2.6l0 9.57 -3.11 0c0.17,-0.63 0.24,-1.37 0.2,-2.24l0 0c-0.07,-3.64 -0.73,-6.71 -1.97,-9.12 -0.96,-1.87 -2.08,-3 -3.04,-3.67 1.13,-1.16 1.78,-2.81 1.78,-4.71 0,-3.42 -2.73,-6.21 -6.09,-6.21 -3.36,0 -6.09,2.79 -6.09,6.21 0,0.4 0.32,0.72 0.72,0.72l0.49 0c-0.05,0.27 -0.07,0.54 -0.07,0.82 0,2.42 1.72,4.44 4,4.89 -0.24,0.88 -0.35,1.93 -0.35,3.12l-1.79 1.54 -4.36 0.35 -5.03 -1.66c-0.46,-0.15 -0.98,-0.33 -1.43,0 -0.45,0.32 -0.45,0.89 -0.45,1.07l0 3.74c0,0.39 0.32,0.72 0.72,0.72l0.86 0 -1.31 4.52c-0.12,0.39 0.1,0.78 0.48,0.89 0.39,0.11 0.78,-0.1 0.89,-0.49l1.43 -4.92 2.04 0c-2.54,7.74 -1.09,12.9 1.14,18.13l-1.29 0 -5.38 -6.01 1.14 -3.92c0.11,-0.39 -0.11,-0.78 -0.49,-0.89 -0.38,-0.11 -0.78,0.11 -0.89,0.49l-1.09 3.75c-3.36,-0.05 -6.37,2.26 -7.13,5.6 -0.01,0.05 -0.02,0.11 -0.02,0.16 0,0.33 0.22,0.62 0.56,0.7l1.02 0.23c-0.26,2.71 1.52,5.26 4.23,5.88 0.41,0.1 0.83,0.14 1.24,0.14 1.02,0 2.02,-0.28 2.91,-0.84 1.04,-0.65 1.81,-1.6 2.23,-2.73l0.8 0.18c0.24,0.06 0.47,0.08 0.7,-0.04 0.21,-0.11 0.35,-0.32 0.4,-0.55 0.05,-0.23 0.09,-0.47 0.12,-0.71l15.01 0c0.48,2.98 3.02,5.23 6.05,5.23 3.03,0 5.57,-2.25 6.05,-5.23l0.55 0 0.07 0c0.02,0 0.04,0 0.07,0 0.2,0 0.5,-0.03 0.74,-0.27 0.12,-0.13 0.27,-0.35 0.25,-0.7 -0.02,-0.68 -0.12,-1.33 -0.29,-1.95 0.57,-3.47 0.02,-5.58 -0.79,-7.23 0.51,-0.34 0.85,-0.93 0.85,-1.59l0 -1.97 3.63 0c1.43,0 2.6,-1.17 2.6,-2.6l0 -8.4c0,-1.43 -1.17,-2.6 -2.6,-2.6z"/>
   <rect fill="black" x="29.79" y="31.15" width="4.93" height="1.44"/>
   <path fill="black" d="M10.13 26.63c0.08,-0.09 0.67,0.29 0.67,0.29l-1.45 5.05 -1.28 -0.73 1.27 -4.44 0.79 -0.17z"/>
  </g>
 </g>
</svg>
