<svg width="18" height="27" viewBox="0 0 18 27" fill="none" xmlns="http://www.w3.org/2000/svg">
<path d="M3.71663 0.8771L1.48133 2.28217C1.10668 2.51766 0.838597 2.91828 0.74301 3.38549L0.391842 5.10195C0.378588 5.16674 0.368837 5.23184 0.362504 5.29695L0.0468784 6.41382L0 6.48455C0.929704 14.0706 4.35431 21.0417 9.56805 26.0047L9.5598 26.0095L9.57865 26.0148L9.58542 26.0212L9.59676 26.0199L12.5014 26.8353L12.7093 26.9126C12.8265 26.9561 12.947 26.9833 13.068 26.9943L13.0796 26.9976L13.0784 26.9952C13.3765 27.0201 13.6777 26.9471 13.9429 26.7804L17.2234 24.7184C18.1442 24.1396 18.271 22.7188 17.4705 21.9494L13.8534 18.4728C13.3658 18.0042 12.6665 17.9267 12.1056 18.2793L10.3759 19.3666C8.17221 16.4337 6.46618 13.0692 5.34881 9.4529L7.04731 8.38526C7.60735 8.03323 7.90936 7.32804 7.8026 6.62165L7.01645 1.41986C6.84075 0.257229 5.68223 -0.358434 4.76047 0.220967L3.85849 0.787934C3.85684 0.748704 3.85527 0.709462 3.85376 0.670209L3.71663 0.8771Z" fill="#FDD96E"/>
</svg>
