<?xml version="1.0" encoding="UTF-8"?>
<!DOCTYPE svg PUBLIC "-//W3C//DTD SVG 1.1//EN" "http://www.w3.org/Graphics/SVG/1.1/DTD/svg11.dtd">
<!-- Creator: CorelDRAW 2018 (64-Bit) -->
<svg xmlns="http://www.w3.org/2000/svg" xml:space="preserve" width="49px" height="49px" version="1.1" shape-rendering="geometricPrecision" text-rendering="geometricPrecision" image-rendering="optimizeQuality" fill-rule="evenodd" clip-rule="evenodd"
viewBox="0 0 49 49"
 xmlns:xlink="http://www.w3.org/1999/xlink">
 <defs>
    <clipPath id="id0">
     <path d="M24.5 1.55c12.68,0 22.95,10.27 22.95,22.95 0,6.84 -2.99,12.98 -7.74,17.19 -4.06,3.58 -9.38,5.76 -15.21,5.76 -5.84,0 -11.16,-2.18 -15.21,-5.77 -4.75,-4.2 -7.74,-10.34 -7.74,-17.18 0,-12.68 10.27,-22.95 22.95,-22.95z"/>
    </clipPath>
 </defs>
 <g id="Layer_x0020_1">
  <metadata id="CorelCorpID_0Corel-Layer"/>
  <g id="_1811774005344">
   <path fill="black" d="M24.5 0c13.53,0 24.5,10.97 24.5,24.5 0,7.04 -2.99,13.69 -8.27,18.36 -4.49,3.97 -10.23,6.14 -16.23,6.14 -6,0 -11.74,-2.18 -16.23,-6.15 -5.27,-4.67 -8.27,-11.31 -8.27,-18.35 0,-13.53 10.97,-24.5 24.5,-24.5z"/>
   <path fill="#89D6F7" d="M24.5 1.55c12.68,0 22.95,10.27 22.95,22.95 0,6.84 -2.99,12.98 -7.74,17.19 -4.06,3.58 -9.38,5.76 -15.21,5.76 -5.84,0 -11.16,-2.18 -15.21,-5.77 -4.75,-4.2 -7.74,-10.34 -7.74,-17.18 0,-12.68 10.27,-22.95 22.95,-22.95z"/>
   <g clip-path="url(#id0)">
    <g>
     <path id="1" fill="black" d="M18.54 31.06c-2.05,-1.55 -4.32,-4 -4.65,-6.62 -2.67,-1.03 -2.95,-4.91 -0.64,-6.38 -0.27,-1.09 -0.47,-2.21 -0.57,-3.32 -0.29,-3.38 0.67,-6.85 4.36,-6.87 0.78,-0.97 1.85,-1.87 2.82,-2.46 3.16,-1.91 6.71,-1.86 10.1,-0.59 3.38,1.28 6.05,3.61 6.85,7.23 0.32,1.41 0.34,3.28 -0.07,4.69 -0.01,0.03 -0.01,0.05 -0.02,0.08l-0.55 1.59c1.83,1.66 1.4,5.06 -1.06,6.04 -0.32,2.61 -2.59,5.07 -4.65,6.62 -0.03,1.66 0.94,3.24 2.47,3.95 2.07,0.95 4.06,2.21 5.9,3.56 0.85,0.63 1.6,1.39 2.18,2.27 0.43,0.65 0.31,1.51 -0.27,2.02 -4.51,3.95 -10.24,6.13 -16.24,6.13 -6,0 -11.74,-2.17 -16.23,-6.15 -0.58,-0.52 -0.7,-1.36 -0.28,-2.01 0.58,-0.89 1.33,-1.64 2.18,-2.26 1.82,-1.36 3.84,-2.62 5.9,-3.57 1.54,-0.71 2.51,-2.28 2.47,-3.95z"/>
    </g>
   </g>
   <path fill="none" d="M24.5 1.55c12.68,0 22.95,10.27 22.95,22.95 0,6.84 -2.99,12.98 -7.74,17.19 -4.06,3.58 -9.38,5.76 -15.21,5.76 -5.84,0 -11.16,-2.18 -15.21,-5.77 -4.75,-4.2 -7.74,-10.34 -7.74,-17.18 0,-12.68 10.27,-22.95 22.95,-22.95z"/>
   <path fill="#41596B" d="M11.09 39.82c1.18,-0.87 3.31,-2.33 5.63,-3.4 2.32,-1.07 3.69,-3.57 3.32,-6.09 0,-0.04 -0.01,-0.08 -0.02,-0.12 0,0 -5.29,-3.58 -4.55,-7.07 0,0 -0.17,0.01 -0.41,0 -2.33,-0.22 -2.48,-3.69 -0.17,-4.06 0.01,0 0.04,-0.01 0.06,-0.01l0.07 -0.38c-0.7,-2.47 -2.42,-9.94 2.78,-9.22 0,0 3.73,-6.17 11.62,-3.19 7.89,2.96 5.83,10.03 5.83,10.03l-0.97 2.82c2.12,0.53 1.92,3.81 -0.34,4.01 -0.24,0.02 -0.41,0.01 -0.41,0.01 0.74,3.49 -4.55,7.07 -4.55,7.07 -0.01,0.04 -0.01,0.08 -0.02,0.12 -0.36,2.52 1.01,5.02 3.32,6.09 2.33,1.07 4.45,2.54 5.63,3.4 0.7,0.52 1.33,1.14 1.81,1.87 -4.07,3.57 -9.39,5.75 -15.22,5.75 -5.84,0 -11.16,-2.18 -15.21,-5.77 0.47,-0.72 1.1,-1.34 1.8,-1.86z"/>
  </g>
 </g>
</svg>
