<?xml version="1.0" encoding="UTF-8"?>
<!DOCTYPE svg PUBLIC "-//W3C//DTD SVG 1.1//EN" "http://www.w3.org/Graphics/SVG/1.1/DTD/svg11.dtd">
<!-- Creator: CorelDRAW 2018 (64-Bit) -->
<svg xmlns="http://www.w3.org/2000/svg" xml:space="preserve" width="49px" height="49px" version="1.1" shape-rendering="geometricPrecision" text-rendering="geometricPrecision" image-rendering="optimizeQuality" fill-rule="evenodd" clip-rule="evenodd"
viewBox="0 0 49 49"
 xmlns:xlink="http://www.w3.org/1999/xlink">
 <defs>
    <clipPath id="id0">
     <path d="M32.94 35.32c-1.09,2.51 -3.26,4.35 -5.97,5 -0.11,0.03 -0.23,0.05 -0.35,0.06 -1.2,0.14 -2.51,0.15 -3.69,-0.06 -0.01,0 -0.01,0 -0.02,0 -0.07,-0.01 -0.14,-0.03 -0.21,-0.04 -2.57,-0.69 -4.7,-2.55 -5.75,-4.96l-14.19 0c-1.55,0 -2.79,-1.28 -2.76,-2.82 0.28,-13.34 11.19,-23.98 24.5,-23.98 13.33,0 24.22,10.65 24.5,23.98 0.03,1.54 -1.21,2.82 -2.76,2.82l-13.3 0z"/>
    </clipPath>
     <clipPath id="id1">
      <path d="M40.95 32.61c-0.12,-4.33 -1.92,-8.28 -4.8,-11.16 -3.07,-3.06 -7.22,-4.81 -11.62,-4.81 -4.26,0 -8.46,1.66 -11.62,4.81 -3.07,3.08 -4.69,7.1 -4.8,11.16 -0.01,0.22 -0.19,0.39 -0.41,0.39l33.65 0c-0.21,0 -0.39,-0.17 -0.4,-0.39l0 0zm0 0z"/>
     </clipPath>
     <clipPath id="id2">
      <path d="M15.94 21.64c2.79,-2.9 6.39,-4.57 10.12,-4.93 -0.51,-0.04 -1.02,-0.07 -1.53,-0.07 -4.26,0 -8.46,1.66 -11.62,4.81 -3.07,3.08 -4.69,7.1 -4.8,11.16 -0.01,0.22 -0.19,0.39 -0.41,0.39l3.45 0c0.16,-4.14 1.77,-8.22 4.79,-11.36zm0 0z"/>
     </clipPath>
     <clipPath id="id3">
      <path d="M40.19 17.41c-4.16,-4.17 -9.77,-6.49 -15.66,-6.49l0 6.02c4.32,0 8.39,1.71 11.4,4.73l4.26 -4.26zm0 0z"/>
     </clipPath>
     <clipPath id="id4">
      <path d="M8.87 17.41l4.26 4.26c3.03,-3.03 7.11,-4.73 11.4,-4.73l0 -6.02c-5.58,0 -11,2 -15.66,6.49zm0 0z"/>
     </clipPath>
     <clipPath id="id5">
      <path d="M8.87 17.41l4.26 4.26c3.03,-3.03 7.11,-4.73 11.4,-4.73l0 -6.02c-5.58,0 -11,2 -15.66,6.49zm0 0z"/>
     </clipPath>
     <clipPath id="id6">
      <path d="M2.39 32.59c-0.01,0.23 0.17,0.41 0.4,0.41l5.22 0c0.22,0 0.39,-0.17 0.4,-0.38 0.11,-3.99 1.7,-7.93 4.72,-10.95l-4.26 -4.26c-4.01,4 -6.36,9.4 -6.48,15.18zm0 0z"/>
     </clipPath>
     <clipPath id="id7">
      <path d="M11.61 17.24c3.78,-3.64 8.05,-5.66 12.5,-6.32 -5.43,0.1 -10.7,2.11 -15.24,6.49l1.35 1.35c0.44,-0.53 0.9,-1.03 1.39,-1.52l0 0zm0 0z"/>
     </clipPath>
     <clipPath id="id8">
      <path d="M5.46 33c-0.22,0 -0.4,-0.18 -0.4,-0.41 0.11,-5.14 1.96,-9.98 5.16,-13.83l-1.35 -1.35c-4,4 -6.36,9.4 -6.48,15.18 -0.01,0.23 0.17,0.41 0.4,0.41l5.22 0 -2.55 0zm0 0z"/>
     </clipPath>
     <clipPath id="id9">
      <path d="M40.19 17.41l-4.26 4.26 0 0c2.83,2.82 4.6,6.69 4.72,10.95 0,0.21 0.18,0.38 0.4,0.38l5.22 0c0.23,0 0.41,-0.18 0.4,-0.41 -0.12,-5.64 -2.38,-11.09 -6.48,-15.18l0 0zm0 0z"/>
     </clipPath>
     <clipPath id="id10">
      <path d="M31.04 33.78l3.23 -10.47c0.14,-0.43 -0.27,-0.84 -0.7,-0.71l-10.47 3.24c-4.56,1.41 -5.99,7.17 -2.61,10.55 3.38,3.38 9.14,1.95 10.55,-2.61zm0 0z"/>
     </clipPath>
     <clipPath id="id11">
      <path d="M23.16 36.39c-3.38,-3.38 -1.95,-9.14 2.62,-10.55l8.52 -2.63c0.04,-0.4 -0.33,-0.73 -0.73,-0.61l-10.47 3.24c-4.56,1.41 -5.99,7.17 -2.61,10.55 1.63,1.63 3.82,2.14 5.81,1.72 -1.14,-0.24 -2.22,-0.81 -3.14,-1.72zm0 0z"/>
     </clipPath>
     <clipPath id="id12">
      <path d="M26.82 30.06c-1.06,-1.07 -2.79,-1.07 -3.85,0 -1.06,1.06 -1.06,2.78 0,3.85 1.06,1.06 2.79,1.06 3.85,0 1.06,-1.07 1.06,-2.79 0,-3.85zm0 0z"/>
     </clipPath>
     <clipPath id="id13">
      <path d="M26.26 29.62c-1.05,-0.6 -2.4,-0.45 -3.29,0.44 -1.06,1.06 -1.06,2.78 0,3.85 0.89,0.89 2.24,1.03 3.29,0.43 -1.82,-1.05 -1.81,-3.67 0,-4.72zm0 0z"/>
     </clipPath>
     <clipPath id="id14">
      <path d="M2.76 33.63l15.39 0c0.64,2.48 2.61,4.39 4.98,5.02 0.02,0 0.04,0 0.05,0.01l0 0 0 0c0.01,0 0.02,0 0.03,0 1.26,0.21 2.59,0.12 3.25,0.04l0 0c0.04,0 0.08,-0.01 0.12,-0.02 2.43,-0.58 4.33,-2.36 5.07,-4.75l0.09 -0.3 14.5 0c0.6,0 1.08,-0.49 1.07,-1.09 -0.26,-12.39 -10.37,-22.33 -22.81,-22.33 -12.18,0 -22.54,9.7 -22.81,22.33 -0.01,0.6 0.47,1.09 1.07,1.09zm20.78 3.75c-0.02,-0.01 -0.04,-0.02 -0.06,-0.03 -0.97,-0.25 -1.82,-0.75 -2.55,-1.47 -2.96,-2.97 -1.79,-7.98 2.11,-9.37 0.18,-0.06 -0.52,0.16 10.51,-3.25 -0.21,0.66 -3.06,9.9 -3.18,10.28 -0.6,1.93 -2.13,3.37 -4.1,3.84 -0.01,0 -0.02,0.01 -0.03,0.01 -0.97,0.24 -2.06,0.16 -2.7,-0.01l0 0zm22.43 -5.09l-4.69 0c-0.18,-4.06 -1.8,-7.8 -4.44,-10.66 2.31,-2.31 1.96,-1.96 3.31,-3.31 3.59,3.8 5.64,8.73 5.82,13.97zm-20.8 -20.73c5.26,0.16 10.2,2.2 14.04,5.81l-3.32 3.32c-2.94,-2.72 -6.72,-4.29 -10.72,-4.44l0 -4.69zm-0.67 6.01l0 0c8.33,0 15.06,6.54 15.44,14.72l-7.79 0 2.73 -8.82c0.14,-0.44 0.02,-0.92 -0.3,-1.24 -0.33,-0.32 -0.8,-0.44 -1.24,-0.31 -11.4,3.53 -10.9,3.33 -11.67,3.74 -2.53,1.32 -3.89,3.97 -3.73,6.63l-8.88 0c0.39,-8.26 7.2,-14.72 15.44,-14.72l0 0zm-0.67 -6.01l0 4.69c-4.1,0.15 -7.84,1.77 -10.72,4.44 -2.31,-2.31 -2.33,-2.33 -3.31,-3.31 4.05,-3.71 8.77,-5.67 14.03,-5.82zm-14.98 6.76l3.31 3.31c-2.65,2.87 -4.26,6.61 -4.44,10.66l-4.69 0c0.18,-5.24 2.23,-10.16 5.82,-13.97z"/>
     </clipPath>
     <clipPath id="id15">
      <path d="M27.64 33.88c0.01,-0.01 0.02,-0.02 0.03,-0.03 0.78,-1.15 0.78,-2.67 0,-3.82 -0.01,-0.01 -0.02,-0.02 -0.03,-0.03 -0.38,-0.56 -0.9,-0.95 -1.47,-1.19l-0.01 0c-0.02,-0.01 -0.04,-0.02 -0.07,-0.03l-0.02 -0.01c-0.02,-0.01 -0.04,-0.01 -0.06,-0.02 -0.01,-0.01 -0.03,-0.01 -0.04,-0.02 -0.01,0 -0.02,0 -0.04,-0.01 -0.02,0 -0.03,-0.01 -0.05,-0.02l-0.03 0c-0.02,-0.01 -0.04,-0.02 -0.06,-0.02l-0.02 -0.01c-0.03,-0.01 -0.05,-0.01 -0.08,-0.02l0 0c-0.03,-0.01 -0.06,-0.01 -0.09,-0.02l0 0c-0.03,-0.01 -0.06,-0.01 -0.09,-0.02l0 0c-0.03,0 -0.06,-0.01 -0.08,-0.01l-0.01 -0.01c-0.03,0 -0.05,0 -0.08,-0.01l-0.01 0c-0.02,0 -0.05,-0.01 -0.08,-0.01l-0.01 0c-0.03,0 -0.05,-0.01 -0.08,-0.01l-0.01 0c-0.03,0 -0.05,0 -0.07,0l-0.03 -0.01c-0.02,0 -0.04,0 -0.06,0l-0.03 0c-0.02,0 -0.04,0 -0.05,0 -0.02,0 -0.03,0 -0.05,0 -0.01,0 -0.02,0 -0.04,0 -0.02,0 -0.03,0 -0.05,0l-0.03 0c-0.02,0 -0.05,0 -0.07,0l-0.02 0.01c-0.02,0 -0.05,0 -0.07,0l-0.02 0c-0.02,0 -0.05,0.01 -0.07,0.01l-0.01 0c-0.03,0 -0.06,0.01 -0.08,0.01l-0.01 0c-0.03,0.01 -0.06,0.01 -0.08,0.01l-0.01 0.01c-0.03,0 -0.05,0.01 -0.08,0.01l-0.01 0c-0.03,0.01 -0.05,0.01 -0.08,0.02l-0.01 0c-0.02,0.01 -0.05,0.01 -0.08,0.02l0 0c-0.03,0.01 -0.05,0.01 -0.08,0.02l-0.02 0.01c-0.02,0 -0.04,0.01 -0.06,0.02l-0.03 0c-0.02,0.01 -0.04,0.02 -0.06,0.02 -0.01,0.01 -0.02,0.01 -0.03,0.01 -0.02,0.01 -0.03,0.01 -0.05,0.02 -0.01,0.01 -0.03,0.01 -0.05,0.02l-0.02 0.01c-0.03,0.01 -0.05,0.02 -0.07,0.03l-0.01 0c-0.57,0.24 -1.09,0.63 -1.48,1.19 0,0.01 -0.01,0.02 -0.02,0.03 -0.78,1.15 -0.78,2.67 0,3.82 0.01,0.01 0.02,0.02 0.02,0.03l0 0c0.35,0.5 0.81,0.88 1.31,1.12l0.01 0c0.02,0.01 0.04,0.02 0.07,0.03l0.02 0.02c0.02,0 0.04,0.01 0.05,0.02 0.02,0 0.03,0.01 0.05,0.02l0.03 0.01c0.02,0.01 0.04,0.01 0.06,0.02l0.02 0.01c0.28,0.1 0.57,0.16 0.87,0.19l0 0c0.03,0 0.06,0 0.08,0.01l0.02 0c0.02,0 0.04,0 0.07,0l0.02 0c0.02,0 0.04,0 0.06,0 0.02,0 0.03,0 0.04,0 0.02,0 0.03,0 0.05,0 0.02,0 0.03,0 0.05,0l0.03 0c0.02,0 0.05,0 0.07,0l0.01 0c0.03,-0.01 0.06,-0.01 0.09,-0.01l0 0c0.29,-0.03 0.59,-0.09 0.87,-0.19l0.01 -0.01c0.03,-0.01 0.05,-0.01 0.07,-0.02l0.03 -0.01c0.01,-0.01 0.03,-0.02 0.05,-0.02 0.01,-0.01 0.03,-0.02 0.05,-0.02l0.02 -0.02c0.02,-0.01 0.05,-0.02 0.07,-0.03l0.01 0c0.5,-0.24 0.95,-0.62 1.3,-1.12l0 0zm-2.35 0.07l-0.01 0c-0.01,0.01 -0.03,0.01 -0.04,0.01l-0.01 0c-0.02,0.01 -0.03,0.01 -0.05,0.01l-0.01 0c-0.01,0 -0.03,0.01 -0.04,0.01l-0.02 0c-0.01,0 -0.02,0 -0.03,0l-0.02 0.01c-0.01,0 -0.02,0 -0.03,0l-0.03 0c-0.01,0 -0.02,0 -0.03,0l-0.02 0c-0.01,0.01 -0.02,0.01 -0.03,0.01l-0.03 0 -0.03 0 -0.02 0 -0.03 0c-0.01,0 -0.02,0 -0.03,-0.01l-0.02 0c-0.01,0 -0.02,0 -0.03,0l-0.03 0c-0.01,0 -0.02,0 -0.03,0l-0.02 -0.01c-0.01,0 -0.02,0 -0.04,0l-0.01 0c-0.02,0 -0.03,-0.01 -0.04,-0.01l-0.02 0c-0.01,0 -0.02,0 -0.04,-0.01l-0.01 0c-0.01,0 -0.03,0 -0.05,-0.01l0 0c-0.37,-0.08 -0.73,-0.26 -1.03,-0.56 -0.8,-0.8 -0.8,-2.1 0,-2.9 0.23,-0.23 0.49,-0.39 0.76,-0.48l0.01 -0.01c0.02,0 0.03,-0.01 0.04,-0.01l0.02 -0.01c0.01,0 0.02,0 0.03,-0.01l0.03 0 0.02 -0.01c0.01,0 0.02,-0.01 0.03,-0.01l0.02 -0.01c0.02,0 0.03,0 0.04,0l0.02 -0.01c0.01,0 0.02,0 0.03,-0.01l0.02 0c0.01,0 0.02,0 0.04,0l0.01 -0.01c0.01,0 0.03,0 0.04,0l0.02 -0.01c0.01,0 0.02,0 0.03,0l0.02 0c0.01,0 0.03,0 0.04,-0.01l0.02 0c0.01,0 0.02,0 0.03,0l0.02 0c0.01,0 0.02,0 0.03,0l0.03 0 0.03 0 0.02 0 0.03 0 0.03 0 0.02 0c0.01,0 0.03,0 0.04,0l0.02 0c0.01,0 0.02,0 0.03,0l0.02 0c0.01,0.01 0.02,0.01 0.04,0.01l0.01 0c0.02,0 0.03,0 0.04,0l0.02 0.01c0.01,0 0.02,0 0.04,0l0.01 0.01c0.01,0 0.03,0 0.04,0l0.01 0c0.02,0.01 0.03,0.01 0.04,0.01l0.02 0.01c0.01,0 0.02,0 0.03,0l0.03 0.01c0.01,0 0.02,0.01 0.02,0.01 0.01,0 0.02,0 0.03,0.01l0.02 0c0.02,0.01 0.03,0.01 0.04,0.01l0.01 0.01c0.02,0 0.03,0.01 0.05,0.01l0 0.01c0.28,0.09 0.54,0.25 0.77,0.48 0.8,0.8 0.8,2.1 0,2.9 -0.3,0.3 -0.66,0.48 -1.03,0.56z"/>
     </clipPath>
 </defs>
 <g id="Layer_x0020_1">
  <metadata id="CorelCorpID_0Corel-Layer"/>
  <g id="_1811804865856">
   <path fill="white" d="M32.94 35.32c-1.09,2.51 -3.26,4.35 -5.97,5 -0.11,0.03 -0.23,0.05 -0.35,0.06 -1.2,0.14 -2.51,0.15 -3.69,-0.06 -0.01,0 -0.01,0 -0.02,0 -0.07,-0.01 -0.14,-0.03 -0.21,-0.04 -2.57,-0.69 -4.7,-2.55 -5.75,-4.96l-14.19 0c-1.55,0 -2.79,-1.28 -2.76,-2.82 0.28,-13.34 11.19,-23.98 24.5,-23.98 13.33,0 24.22,10.65 24.5,23.98 0.03,1.54 -1.21,2.82 -2.76,2.82l-13.3 0z"/>
   <g clip-path="url(#id0)">
    <g>
     <polygon id="1" fill="white" fill-opacity="0.600000" points="-0.39,4.21 49.39,4.21 49.39,44.79 -0.39,44.79 "/>
    </g>
   </g>
   <path fill="none" d="M32.94 35.32c-1.09,2.51 -3.26,4.35 -5.97,5 -0.11,0.03 -0.23,0.05 -0.35,0.06 -1.2,0.14 -2.51,0.15 -3.69,-0.06 -0.01,0 -0.01,0 -0.02,0 -0.07,-0.01 -0.14,-0.03 -0.21,-0.04 -2.57,-0.69 -4.7,-2.55 -5.75,-4.96l-14.19 0c-1.55,0 -2.79,-1.28 -2.76,-2.82 0.28,-13.34 11.19,-23.98 24.5,-23.98 13.33,0 24.22,10.65 24.5,23.98 0.03,1.54 -1.21,2.82 -2.76,2.82l-13.3 0z"/>
   <g>
    <path fill="#E4EAF8" d="M40.95 32.61c-0.12,-4.33 -1.92,-8.28 -4.8,-11.16 -3.07,-3.06 -7.22,-4.81 -11.62,-4.81 -4.26,0 -8.46,1.66 -11.62,4.81 -3.07,3.08 -4.69,7.1 -4.8,11.16 -0.01,0.22 -0.19,0.39 -0.41,0.39l33.65 0c-0.21,0 -0.39,-0.17 -0.4,-0.39l0 0zm0 0z"/>
    <g clip-path="url(#id1)">
     <g>
      <polygon id="1" fill="white" fill-opacity="0.600000" points="-0.39,4.21 49.39,4.21 49.39,44.79 -0.39,44.79 "/>
     </g>
    </g>
    <path fill="none" d="M40.95 32.61c-0.12,-4.33 -1.92,-8.28 -4.8,-11.16 -3.07,-3.06 -7.22,-4.81 -11.62,-4.81 -4.26,0 -8.46,1.66 -11.62,4.81 -3.07,3.08 -4.69,7.1 -4.8,11.16 -0.01,0.22 -0.19,0.39 -0.41,0.39l33.65 0c-0.21,0 -0.39,-0.17 -0.4,-0.39l0 0zm0 0z"/>
    <path fill="#D8DCE5" d="M15.94 21.64c2.79,-2.9 6.39,-4.57 10.12,-4.93 -0.51,-0.04 -1.02,-0.07 -1.53,-0.07 -4.26,0 -8.46,1.66 -11.62,4.81 -3.07,3.08 -4.69,7.1 -4.8,11.16 -0.01,0.22 -0.19,0.39 -0.41,0.39l3.45 0c0.16,-4.14 1.77,-8.22 4.79,-11.36zm0 0z"/>
    <g clip-path="url(#id2)">
     <g>
      <polygon id="1" fill="white" fill-opacity="0.600000" points="-0.39,4.21 49.39,4.21 49.39,44.79 -0.39,44.79 "/>
     </g>
    </g>
    <path fill="none" d="M15.94 21.64c2.79,-2.9 6.39,-4.57 10.12,-4.93 -0.51,-0.04 -1.02,-0.07 -1.53,-0.07 -4.26,0 -8.46,1.66 -11.62,4.81 -3.07,3.08 -4.69,7.1 -4.8,11.16 -0.01,0.22 -0.19,0.39 -0.41,0.39l3.45 0c0.16,-4.14 1.77,-8.22 4.79,-11.36zm0 0z"/>
    <path fill="#FECA57" d="M40.19 17.41c-4.16,-4.17 -9.77,-6.49 -15.66,-6.49l0 6.02c4.32,0 8.39,1.71 11.4,4.73l4.26 -4.26zm0 0z"/>
    <g clip-path="url(#id3)">
     <g>
      <polygon id="1" fill="white" fill-opacity="0.600000" points="-0.39,4.21 49.39,4.21 49.39,44.79 -0.39,44.79 "/>
     </g>
    </g>
    <path fill="none" d="M40.19 17.41c-4.16,-4.17 -9.77,-6.49 -15.66,-6.49l0 6.02c4.32,0 8.39,1.71 11.4,4.73l4.26 -4.26zm0 0z"/>
    <path fill="#15BA8B" d="M8.87 17.41l4.26 4.26c3.03,-3.03 7.11,-4.73 11.4,-4.73l0 -6.02c-5.58,0 -11,2 -15.66,6.49zm0 0z"/>
    <g clip-path="url(#id4)">
     <g>
      <polygon id="1" fill="white" fill-opacity="0.600000" points="-0.39,4.21 49.39,4.21 49.39,44.79 -0.39,44.79 "/>
     </g>
    </g>
    <path fill="none" d="M8.87 17.41l4.26 4.26c3.03,-3.03 7.11,-4.73 11.4,-4.73l0 -6.02c-5.58,0 -11,2 -15.66,6.49zm0 0z"/>
    <path fill="#15BA8B" d="M8.87 17.41l4.26 4.26c3.03,-3.03 7.11,-4.73 11.4,-4.73l0 -6.02c-5.58,0 -11,2 -15.66,6.49zm0 0z"/>
    <g clip-path="url(#id5)">
     <g>
      <polygon id="1" fill="white" fill-opacity="0.600000" points="-0.39,4.21 49.39,4.21 49.39,44.79 -0.39,44.79 "/>
     </g>
    </g>
    <path fill="none" d="M8.87 17.41l4.26 4.26c3.03,-3.03 7.11,-4.73 11.4,-4.73l0 -6.02c-5.58,0 -11,2 -15.66,6.49zm0 0z"/>
    <path fill="#54A0FF" d="M2.39 32.59c-0.01,0.23 0.17,0.41 0.4,0.41l5.22 0c0.22,0 0.39,-0.17 0.4,-0.38 0.11,-3.99 1.7,-7.93 4.72,-10.95l-4.26 -4.26c-4.01,4 -6.36,9.4 -6.48,15.18zm0 0z"/>
    <g clip-path="url(#id6)">
     <g>
      <polygon id="1" fill="white" fill-opacity="0.600000" points="-0.39,4.21 49.39,4.21 49.39,44.79 -0.39,44.79 "/>
     </g>
    </g>
    <path fill="none" d="M2.39 32.59c-0.01,0.23 0.17,0.41 0.4,0.41l5.22 0c0.22,0 0.39,-0.17 0.4,-0.38 0.11,-3.99 1.7,-7.93 4.72,-10.95l-4.26 -4.26c-4.01,4 -6.36,9.4 -6.48,15.18zm0 0z"/>
    <path fill="#11AA7B" d="M11.61 17.24c3.78,-3.64 8.05,-5.66 12.5,-6.32 -5.43,0.1 -10.7,2.11 -15.24,6.49l1.35 1.35c0.44,-0.53 0.9,-1.03 1.39,-1.52l0 0zm0 0z"/>
    <g clip-path="url(#id7)">
     <g>
      <polygon id="1" fill="white" fill-opacity="0.600000" points="-0.39,4.21 49.39,4.21 49.39,44.79 -0.39,44.79 "/>
     </g>
    </g>
    <path fill="none" d="M11.61 17.24c3.78,-3.64 8.05,-5.66 12.5,-6.32 -5.43,0.1 -10.7,2.11 -15.24,6.49l1.35 1.35c0.44,-0.53 0.9,-1.03 1.39,-1.52l0 0zm0 0z"/>
    <path fill="#338DEF" d="M5.46 33c-0.22,0 -0.4,-0.18 -0.4,-0.41 0.11,-5.14 1.96,-9.98 5.16,-13.83l-1.35 -1.35c-4,4 -6.36,9.4 -6.48,15.18 -0.01,0.23 0.17,0.41 0.4,0.41l5.22 0 -2.55 0zm0 0z"/>
    <g clip-path="url(#id8)">
     <g>
      <polygon id="1" fill="white" fill-opacity="0.600000" points="-0.39,4.21 49.39,4.21 49.39,44.79 -0.39,44.79 "/>
     </g>
    </g>
    <path fill="none" d="M5.46 33c-0.22,0 -0.4,-0.18 -0.4,-0.41 0.11,-5.14 1.96,-9.98 5.16,-13.83l-1.35 -1.35c-4,4 -6.36,9.4 -6.48,15.18 -0.01,0.23 0.17,0.41 0.4,0.41l5.22 0 -2.55 0zm0 0z"/>
    <path fill="#FF6B6B" d="M40.19 17.41l-4.26 4.26 0 0c2.83,2.82 4.6,6.69 4.72,10.95 0,0.21 0.18,0.38 0.4,0.38l5.22 0c0.23,0 0.41,-0.18 0.4,-0.41 -0.12,-5.64 -2.38,-11.09 -6.48,-15.18l0 0zm0 0z"/>
    <g clip-path="url(#id9)">
     <g>
      <polygon id="1" fill="white" fill-opacity="0.600000" points="-0.39,4.21 49.39,4.21 49.39,44.79 -0.39,44.79 "/>
     </g>
    </g>
    <path fill="none" d="M40.19 17.41l-4.26 4.26 0 0c2.83,2.82 4.6,6.69 4.72,10.95 0,0.21 0.18,0.38 0.4,0.38l5.22 0c0.23,0 0.41,-0.18 0.4,-0.41 -0.12,-5.64 -2.38,-11.09 -6.48,-15.18l0 0zm0 0z"/>
    <path fill="#FF6B6B" d="M31.04 33.78l3.23 -10.47c0.14,-0.43 -0.27,-0.84 -0.7,-0.71l-10.47 3.24c-4.56,1.41 -5.99,7.17 -2.61,10.55 3.38,3.38 9.14,1.95 10.55,-2.61zm0 0z"/>
    <g clip-path="url(#id10)">
     <g>
      <polygon id="1" fill="white" fill-opacity="0.600000" points="-0.39,4.21 49.39,4.21 49.39,44.79 -0.39,44.79 "/>
     </g>
    </g>
    <path fill="none" d="M31.04 33.78l3.23 -10.47c0.14,-0.43 -0.27,-0.84 -0.7,-0.71l-10.47 3.24c-4.56,1.41 -5.99,7.17 -2.61,10.55 3.38,3.38 9.14,1.95 10.55,-2.61zm0 0z"/>
    <path fill="#EE5253" d="M23.16 36.39c-3.38,-3.38 -1.95,-9.14 2.62,-10.55l8.52 -2.63c0.04,-0.4 -0.33,-0.73 -0.73,-0.61l-10.47 3.24c-4.56,1.41 -5.99,7.17 -2.61,10.55 1.63,1.63 3.82,2.14 5.81,1.72 -1.14,-0.24 -2.22,-0.81 -3.14,-1.72zm0 0z"/>
    <g clip-path="url(#id11)">
     <g>
      <polygon id="1" fill="white" fill-opacity="0.600000" points="-0.39,4.21 49.39,4.21 49.39,44.79 -0.39,44.79 "/>
     </g>
    </g>
    <path fill="none" d="M23.16 36.39c-3.38,-3.38 -1.95,-9.14 2.62,-10.55l8.52 -2.63c0.04,-0.4 -0.33,-0.73 -0.73,-0.61l-10.47 3.24c-4.56,1.41 -5.99,7.17 -2.61,10.55 1.63,1.63 3.82,2.14 5.81,1.72 -1.14,-0.24 -2.22,-0.81 -3.14,-1.72zm0 0z"/>
    <path fill="#EE5253" d="M26.82 30.06c-1.06,-1.07 -2.79,-1.07 -3.85,0 -1.06,1.06 -1.06,2.78 0,3.85 1.06,1.06 2.79,1.06 3.85,0 1.06,-1.07 1.06,-2.79 0,-3.85zm0 0z"/>
    <g clip-path="url(#id12)">
     <g>
      <polygon id="1" fill="white" fill-opacity="0.600000" points="-0.39,4.21 49.39,4.21 49.39,44.79 -0.39,44.79 "/>
     </g>
    </g>
    <path fill="none" d="M26.82 30.06c-1.06,-1.07 -2.79,-1.07 -3.85,0 -1.06,1.06 -1.06,2.78 0,3.85 1.06,1.06 2.79,1.06 3.85,0 1.06,-1.07 1.06,-2.79 0,-3.85zm0 0z"/>
    <path fill="#D83941" d="M26.26 29.62c-1.05,-0.6 -2.4,-0.45 -3.29,0.44 -1.06,1.06 -1.06,2.78 0,3.85 0.89,0.89 2.24,1.03 3.29,0.43 -1.82,-1.05 -1.81,-3.67 0,-4.72zm0 0z"/>
    <g clip-path="url(#id13)">
     <g>
      <polygon id="1" fill="white" fill-opacity="0.600000" points="-0.39,4.21 49.39,4.21 49.39,44.79 -0.39,44.79 "/>
     </g>
    </g>
    <path fill="none" d="M26.26 29.62c-1.05,-0.6 -2.4,-0.45 -3.29,0.44 -1.06,1.06 -1.06,2.78 0,3.85 0.89,0.89 2.24,1.03 3.29,0.43 -1.82,-1.05 -1.81,-3.67 0,-4.72zm0 0z"/>
    <path fill="black" d="M2.76 33.63l15.39 0c0.64,2.48 2.61,4.39 4.98,5.02 0.02,0 0.04,0 0.05,0.01l0 0 0 0c0.01,0 0.02,0 0.03,0 1.26,0.21 2.59,0.12 3.25,0.04l0 0c0.04,0 0.08,-0.01 0.12,-0.02 2.43,-0.58 4.33,-2.36 5.07,-4.75l0.09 -0.3 14.5 0c0.6,0 1.08,-0.49 1.07,-1.09 -0.26,-12.39 -10.37,-22.33 -22.81,-22.33 -12.18,0 -22.54,9.7 -22.81,22.33 -0.01,0.6 0.47,1.09 1.07,1.09zm20.78 3.75c-0.02,-0.01 -0.04,-0.02 -0.06,-0.03 -0.97,-0.25 -1.82,-0.75 -2.55,-1.47 -2.96,-2.97 -1.79,-7.98 2.11,-9.37 0.18,-0.06 -0.52,0.16 10.51,-3.25 -0.21,0.66 -3.06,9.9 -3.18,10.28 -0.6,1.93 -2.13,3.37 -4.1,3.84 -0.01,0 -0.02,0.01 -0.03,0.01 -0.97,0.24 -2.06,0.16 -2.7,-0.01l0 0zm22.43 -5.09l-4.69 0c-0.18,-4.06 -1.8,-7.8 -4.44,-10.66 2.31,-2.31 1.96,-1.96 3.31,-3.31 3.59,3.8 5.64,8.73 5.82,13.97zm-20.8 -20.73c5.26,0.16 10.2,2.2 14.04,5.81l-3.32 3.32c-2.94,-2.72 -6.72,-4.29 -10.72,-4.44l0 -4.69zm-0.67 6.01l0 0c8.33,0 15.06,6.54 15.44,14.72l-7.79 0 2.73 -8.82c0.14,-0.44 0.02,-0.92 -0.3,-1.24 -0.33,-0.32 -0.8,-0.44 -1.24,-0.31 -11.4,3.53 -10.9,3.33 -11.67,3.74 -2.53,1.32 -3.89,3.97 -3.73,6.63l-8.88 0c0.39,-8.26 7.2,-14.72 15.44,-14.72l0 0zm-0.67 -6.01l0 4.69c-4.1,0.15 -7.84,1.77 -10.72,4.44 -2.31,-2.31 -2.33,-2.33 -3.31,-3.31 4.05,-3.71 8.77,-5.67 14.03,-5.82zm-14.98 6.76l3.31 3.31c-2.65,2.87 -4.26,6.61 -4.44,10.66l-4.69 0c0.18,-5.24 2.23,-10.16 5.82,-13.97z"/>
    <g clip-path="url(#id14)">
     <g>
      <polygon id="1" fill="white" fill-opacity="0.600000" points="-0.39,4.21 49.39,4.21 49.39,44.79 -0.39,44.79 "/>
     </g>
    </g>
    <path fill="none" d="M2.76 33.63l15.39 0c0.64,2.48 2.61,4.39 4.98,5.02 0.02,0 0.04,0 0.05,0.01l0 0 0 0c0.01,0 0.02,0 0.03,0 1.26,0.21 2.59,0.12 3.25,0.04l0 0c0.04,0 0.08,-0.01 0.12,-0.02 2.43,-0.58 4.33,-2.36 5.07,-4.75l0.09 -0.3 14.5 0c0.6,0 1.08,-0.49 1.07,-1.09 -0.26,-12.39 -10.37,-22.33 -22.81,-22.33 -12.18,0 -22.54,9.7 -22.81,22.33 -0.01,0.6 0.47,1.09 1.07,1.09zm20.78 3.75c-0.02,-0.01 -0.04,-0.02 -0.06,-0.03 -0.97,-0.25 -1.82,-0.75 -2.55,-1.47 -2.96,-2.97 -1.79,-7.98 2.11,-9.37 0.18,-0.06 -0.52,0.16 10.51,-3.25 -0.21,0.66 -3.06,9.9 -3.18,10.28 -0.6,1.93 -2.13,3.37 -4.1,3.84 -0.01,0 -0.02,0.01 -0.03,0.01 -0.97,0.24 -2.06,0.16 -2.7,-0.01l0 0zm22.43 -5.09l-4.69 0c-0.18,-4.06 -1.8,-7.8 -4.44,-10.66 2.31,-2.31 1.96,-1.96 3.31,-3.31 3.59,3.8 5.64,8.73 5.82,13.97zm-20.8 -20.73c5.26,0.16 10.2,2.2 14.04,5.81l-3.32 3.32c-2.94,-2.72 -6.72,-4.29 -10.72,-4.44l0 -4.69zm-0.67 6.01l0 0c8.33,0 15.06,6.54 15.44,14.72l-7.79 0 2.73 -8.82c0.14,-0.44 0.02,-0.92 -0.3,-1.24 -0.33,-0.32 -0.8,-0.44 -1.24,-0.31 -11.4,3.53 -10.9,3.33 -11.67,3.74 -2.53,1.32 -3.89,3.97 -3.73,6.63l-8.88 0c0.39,-8.26 7.2,-14.72 15.44,-14.72l0 0zm-0.67 -6.01l0 4.69c-4.1,0.15 -7.84,1.77 -10.72,4.44 -2.31,-2.31 -2.33,-2.33 -3.31,-3.31 4.05,-3.71 8.77,-5.67 14.03,-5.82zm-14.98 6.76l3.31 3.31c-2.65,2.87 -4.26,6.61 -4.44,10.66l-4.69 0c0.18,-5.24 2.23,-10.16 5.82,-13.97z"/>
    <path fill="black" d="M27.64 33.88c0.01,-0.01 0.02,-0.02 0.03,-0.03 0.78,-1.15 0.78,-2.67 0,-3.82 -0.01,-0.01 -0.02,-0.02 -0.03,-0.03 -0.38,-0.56 -0.9,-0.95 -1.47,-1.19l-0.01 0c-0.02,-0.01 -0.04,-0.02 -0.07,-0.03l-0.02 -0.01c-0.02,-0.01 -0.04,-0.01 -0.06,-0.02 -0.01,-0.01 -0.03,-0.01 -0.04,-0.02 -0.01,0 -0.02,0 -0.04,-0.01 -0.02,0 -0.03,-0.01 -0.05,-0.02l-0.03 0c-0.02,-0.01 -0.04,-0.02 -0.06,-0.02l-0.02 -0.01c-0.03,-0.01 -0.05,-0.01 -0.08,-0.02l0 0c-0.03,-0.01 -0.06,-0.01 -0.09,-0.02l0 0c-0.03,-0.01 -0.06,-0.01 -0.09,-0.02l0 0c-0.03,0 -0.06,-0.01 -0.08,-0.01l-0.01 -0.01c-0.03,0 -0.05,0 -0.08,-0.01l-0.01 0c-0.02,0 -0.05,-0.01 -0.08,-0.01l-0.01 0c-0.03,0 -0.05,-0.01 -0.08,-0.01l-0.01 0c-0.03,0 -0.05,0 -0.07,0l-0.03 -0.01c-0.02,0 -0.04,0 -0.06,0l-0.03 0c-0.02,0 -0.04,0 -0.05,0 -0.02,0 -0.03,0 -0.05,0 -0.01,0 -0.02,0 -0.04,0 -0.02,0 -0.03,0 -0.05,0l-0.03 0c-0.02,0 -0.05,0 -0.07,0l-0.02 0.01c-0.02,0 -0.05,0 -0.07,0l-0.02 0c-0.02,0 -0.05,0.01 -0.07,0.01l-0.01 0c-0.03,0 -0.06,0.01 -0.08,0.01l-0.01 0c-0.03,0.01 -0.06,0.01 -0.08,0.01l-0.01 0.01c-0.03,0 -0.05,0.01 -0.08,0.01l-0.01 0c-0.03,0.01 -0.05,0.01 -0.08,0.02l-0.01 0c-0.02,0.01 -0.05,0.01 -0.08,0.02l0 0c-0.03,0.01 -0.05,0.01 -0.08,0.02l-0.02 0.01c-0.02,0 -0.04,0.01 -0.06,0.02l-0.03 0c-0.02,0.01 -0.04,0.02 -0.06,0.02 -0.01,0.01 -0.02,0.01 -0.03,0.01 -0.02,0.01 -0.03,0.01 -0.05,0.02 -0.01,0.01 -0.03,0.01 -0.05,0.02l-0.02 0.01c-0.03,0.01 -0.05,0.02 -0.07,0.03l-0.01 0c-0.57,0.24 -1.09,0.63 -1.48,1.19 0,0.01 -0.01,0.02 -0.02,0.03 -0.78,1.15 -0.78,2.67 0,3.82 0.01,0.01 0.02,0.02 0.02,0.03l0 0c0.35,0.5 0.81,0.88 1.31,1.12l0.01 0c0.02,0.01 0.04,0.02 0.07,0.03l0.02 0.02c0.02,0 0.04,0.01 0.05,0.02 0.02,0 0.03,0.01 0.05,0.02l0.03 0.01c0.02,0.01 0.04,0.01 0.06,0.02l0.02 0.01c0.28,0.1 0.57,0.16 0.87,0.19l0 0c0.03,0 0.06,0 0.08,0.01l0.02 0c0.02,0 0.04,0 0.07,0l0.02 0c0.02,0 0.04,0 0.06,0 0.02,0 0.03,0 0.04,0 0.02,0 0.03,0 0.05,0 0.02,0 0.03,0 0.05,0l0.03 0c0.02,0 0.05,0 0.07,0l0.01 0c0.03,-0.01 0.06,-0.01 0.09,-0.01l0 0c0.29,-0.03 0.59,-0.09 0.87,-0.19l0.01 -0.01c0.03,-0.01 0.05,-0.01 0.07,-0.02l0.03 -0.01c0.01,-0.01 0.03,-0.02 0.05,-0.02 0.01,-0.01 0.03,-0.02 0.05,-0.02l0.02 -0.02c0.02,-0.01 0.05,-0.02 0.07,-0.03l0.01 0c0.5,-0.24 0.95,-0.62 1.3,-1.12l0 0zm-2.35 0.07l-0.01 0c-0.01,0.01 -0.03,0.01 -0.04,0.01l-0.01 0c-0.02,0.01 -0.03,0.01 -0.05,0.01l-0.01 0c-0.01,0 -0.03,0.01 -0.04,0.01l-0.02 0c-0.01,0 -0.02,0 -0.03,0l-0.02 0.01c-0.01,0 -0.02,0 -0.03,0l-0.03 0c-0.01,0 -0.02,0 -0.03,0l-0.02 0c-0.01,0.01 -0.02,0.01 -0.03,0.01l-0.03 0 -0.03 0 -0.02 0 -0.03 0c-0.01,0 -0.02,0 -0.03,-0.01l-0.02 0c-0.01,0 -0.02,0 -0.03,0l-0.03 0c-0.01,0 -0.02,0 -0.03,0l-0.02 -0.01c-0.01,0 -0.02,0 -0.04,0l-0.01 0c-0.02,0 -0.03,-0.01 -0.04,-0.01l-0.02 0c-0.01,0 -0.02,0 -0.04,-0.01l-0.01 0c-0.01,0 -0.03,0 -0.05,-0.01l0 0c-0.37,-0.08 -0.73,-0.26 -1.03,-0.56 -0.8,-0.8 -0.8,-2.1 0,-2.9 0.23,-0.23 0.49,-0.39 0.76,-0.48l0.01 -0.01c0.02,0 0.03,-0.01 0.04,-0.01l0.02 -0.01c0.01,0 0.02,0 0.03,-0.01l0.03 0 0.02 -0.01c0.01,0 0.02,-0.01 0.03,-0.01l0.02 -0.01c0.02,0 0.03,0 0.04,0l0.02 -0.01c0.01,0 0.02,0 0.03,-0.01l0.02 0c0.01,0 0.02,0 0.04,0l0.01 -0.01c0.01,0 0.03,0 0.04,0l0.02 -0.01c0.01,0 0.02,0 0.03,0l0.02 0c0.01,0 0.03,0 0.04,-0.01l0.02 0c0.01,0 0.02,0 0.03,0l0.02 0c0.01,0 0.02,0 0.03,0l0.03 0 0.03 0 0.02 0 0.03 0 0.03 0 0.02 0c0.01,0 0.03,0 0.04,0l0.02 0c0.01,0 0.02,0 0.03,0l0.02 0c0.01,0.01 0.02,0.01 0.04,0.01l0.01 0c0.02,0 0.03,0 0.04,0l0.02 0.01c0.01,0 0.02,0 0.04,0l0.01 0.01c0.01,0 0.03,0 0.04,0l0.01 0c0.02,0.01 0.03,0.01 0.04,0.01l0.02 0.01c0.01,0 0.02,0 0.03,0l0.03 0.01c0.01,0 0.02,0.01 0.02,0.01 0.01,0 0.02,0 0.03,0.01l0.02 0c0.02,0.01 0.03,0.01 0.04,0.01l0.01 0.01c0.02,0 0.03,0.01 0.05,0.01l0 0.01c0.28,0.09 0.54,0.25 0.77,0.48 0.8,0.8 0.8,2.1 0,2.9 -0.3,0.3 -0.66,0.48 -1.03,0.56z"/>
    <g clip-path="url(#id15)">
     <g>
      <polygon id="1" fill="white" fill-opacity="0.600000" points="-0.39,4.21 49.39,4.21 49.39,44.79 -0.39,44.79 "/>
     </g>
    </g>
    <path fill="none" d="M27.64 33.88c0.01,-0.01 0.02,-0.02 0.03,-0.03 0.78,-1.15 0.78,-2.67 0,-3.82 -0.01,-0.01 -0.02,-0.02 -0.03,-0.03 -0.38,-0.56 -0.9,-0.95 -1.47,-1.19l-0.01 0c-0.02,-0.01 -0.04,-0.02 -0.07,-0.03l-0.02 -0.01c-0.02,-0.01 -0.04,-0.01 -0.06,-0.02 -0.01,-0.01 -0.03,-0.01 -0.04,-0.02 -0.01,0 -0.02,0 -0.04,-0.01 -0.02,0 -0.03,-0.01 -0.05,-0.02l-0.03 0c-0.02,-0.01 -0.04,-0.02 -0.06,-0.02l-0.02 -0.01c-0.03,-0.01 -0.05,-0.01 -0.08,-0.02l0 0c-0.03,-0.01 -0.06,-0.01 -0.09,-0.02l0 0c-0.03,-0.01 -0.06,-0.01 -0.09,-0.02l0 0c-0.03,0 -0.06,-0.01 -0.08,-0.01l-0.01 -0.01c-0.03,0 -0.05,0 -0.08,-0.01l-0.01 0c-0.02,0 -0.05,-0.01 -0.08,-0.01l-0.01 0c-0.03,0 -0.05,-0.01 -0.08,-0.01l-0.01 0c-0.03,0 -0.05,0 -0.07,0l-0.03 -0.01c-0.02,0 -0.04,0 -0.06,0l-0.03 0c-0.02,0 -0.04,0 -0.05,0 -0.02,0 -0.03,0 -0.05,0 -0.01,0 -0.02,0 -0.04,0 -0.02,0 -0.03,0 -0.05,0l-0.03 0c-0.02,0 -0.05,0 -0.07,0l-0.02 0.01c-0.02,0 -0.05,0 -0.07,0l-0.02 0c-0.02,0 -0.05,0.01 -0.07,0.01l-0.01 0c-0.03,0 -0.06,0.01 -0.08,0.01l-0.01 0c-0.03,0.01 -0.06,0.01 -0.08,0.01l-0.01 0.01c-0.03,0 -0.05,0.01 -0.08,0.01l-0.01 0c-0.03,0.01 -0.05,0.01 -0.08,0.02l-0.01 0c-0.02,0.01 -0.05,0.01 -0.08,0.02l0 0c-0.03,0.01 -0.05,0.01 -0.08,0.02l-0.02 0.01c-0.02,0 -0.04,0.01 -0.06,0.02l-0.03 0c-0.02,0.01 -0.04,0.02 -0.06,0.02 -0.01,0.01 -0.02,0.01 -0.03,0.01 -0.02,0.01 -0.03,0.01 -0.05,0.02 -0.01,0.01 -0.03,0.01 -0.05,0.02l-0.02 0.01c-0.03,0.01 -0.05,0.02 -0.07,0.03l-0.01 0c-0.57,0.24 -1.09,0.63 -1.48,1.19 0,0.01 -0.01,0.02 -0.02,0.03 -0.78,1.15 -0.78,2.67 0,3.82 0.01,0.01 0.02,0.02 0.02,0.03l0 0c0.35,0.5 0.81,0.88 1.31,1.12l0.01 0c0.02,0.01 0.04,0.02 0.07,0.03l0.02 0.02c0.02,0 0.04,0.01 0.05,0.02 0.02,0 0.03,0.01 0.05,0.02l0.03 0.01c0.02,0.01 0.04,0.01 0.06,0.02l0.02 0.01c0.28,0.1 0.57,0.16 0.87,0.19l0 0c0.03,0 0.06,0 0.08,0.01l0.02 0c0.02,0 0.04,0 0.07,0l0.02 0c0.02,0 0.04,0 0.06,0 0.02,0 0.03,0 0.04,0 0.02,0 0.03,0 0.05,0 0.02,0 0.03,0 0.05,0l0.03 0c0.02,0 0.05,0 0.07,0l0.01 0c0.03,-0.01 0.06,-0.01 0.09,-0.01l0 0c0.29,-0.03 0.59,-0.09 0.87,-0.19l0.01 -0.01c0.03,-0.01 0.05,-0.01 0.07,-0.02l0.03 -0.01c0.01,-0.01 0.03,-0.02 0.05,-0.02 0.01,-0.01 0.03,-0.02 0.05,-0.02l0.02 -0.02c0.02,-0.01 0.05,-0.02 0.07,-0.03l0.01 0c0.5,-0.24 0.95,-0.62 1.3,-1.12l0 0zm-2.35 0.07l-0.01 0c-0.01,0.01 -0.03,0.01 -0.04,0.01l-0.01 0c-0.02,0.01 -0.03,0.01 -0.05,0.01l-0.01 0c-0.01,0 -0.03,0.01 -0.04,0.01l-0.02 0c-0.01,0 -0.02,0 -0.03,0l-0.02 0.01c-0.01,0 -0.02,0 -0.03,0l-0.03 0c-0.01,0 -0.02,0 -0.03,0l-0.02 0c-0.01,0.01 -0.02,0.01 -0.03,0.01l-0.03 0 -0.03 0 -0.02 0 -0.03 0c-0.01,0 -0.02,0 -0.03,-0.01l-0.02 0c-0.01,0 -0.02,0 -0.03,0l-0.03 0c-0.01,0 -0.02,0 -0.03,0l-0.02 -0.01c-0.01,0 -0.02,0 -0.04,0l-0.01 0c-0.02,0 -0.03,-0.01 -0.04,-0.01l-0.02 0c-0.01,0 -0.02,0 -0.04,-0.01l-0.01 0c-0.01,0 -0.03,0 -0.05,-0.01l0 0c-0.37,-0.08 -0.73,-0.26 -1.03,-0.56 -0.8,-0.8 -0.8,-2.1 0,-2.9 0.23,-0.23 0.49,-0.39 0.76,-0.48l0.01 -0.01c0.02,0 0.03,-0.01 0.04,-0.01l0.02 -0.01c0.01,0 0.02,0 0.03,-0.01l0.03 0 0.02 -0.01c0.01,0 0.02,-0.01 0.03,-0.01l0.02 -0.01c0.02,0 0.03,0 0.04,0l0.02 -0.01c0.01,0 0.02,0 0.03,-0.01l0.02 0c0.01,0 0.02,0 0.04,0l0.01 -0.01c0.01,0 0.03,0 0.04,0l0.02 -0.01c0.01,0 0.02,0 0.03,0l0.02 0c0.01,0 0.03,0 0.04,-0.01l0.02 0c0.01,0 0.02,0 0.03,0l0.02 0c0.01,0 0.02,0 0.03,0l0.03 0 0.03 0 0.02 0 0.03 0 0.03 0 0.02 0c0.01,0 0.03,0 0.04,0l0.02 0c0.01,0 0.02,0 0.03,0l0.02 0c0.01,0.01 0.02,0.01 0.04,0.01l0.01 0c0.02,0 0.03,0 0.04,0l0.02 0.01c0.01,0 0.02,0 0.04,0l0.01 0.01c0.01,0 0.03,0 0.04,0l0.01 0c0.02,0.01 0.03,0.01 0.04,0.01l0.02 0.01c0.01,0 0.02,0 0.03,0l0.03 0.01c0.01,0 0.02,0.01 0.02,0.01 0.01,0 0.02,0 0.03,0.01l0.02 0c0.02,0.01 0.03,0.01 0.04,0.01l0.01 0.01c0.02,0 0.03,0.01 0.05,0.01l0 0.01c0.28,0.09 0.54,0.25 0.77,0.48 0.8,0.8 0.8,2.1 0,2.9 -0.3,0.3 -0.66,0.48 -1.03,0.56z"/>
   </g>
  </g>
 </g>
</svg>
