<?xml version="1.0" encoding="UTF-8"?>
<!DOCTYPE svg PUBLIC "-//W3C//DTD SVG 1.1//EN" "http://www.w3.org/Graphics/SVG/1.1/DTD/svg11.dtd">
<!-- Creator: CorelDRAW 2018 (64-Bit) -->
<svg xmlns="http://www.w3.org/2000/svg" xml:space="preserve" width="49px" height="49px" version="1.1" shape-rendering="geometricPrecision" text-rendering="geometricPrecision" image-rendering="optimizeQuality" fill-rule="evenodd" clip-rule="evenodd"
viewBox="0 0 49 49"
 xmlns:xlink="http://www.w3.org/1999/xlink">
 <defs>
    <clipPath id="id0">
     <path d="M43.32 38.06c0.13,0.59 0.21,1.2 0.22,1.81 0.03,0.83 -0.27,1.65 -0.86,2.24 -0.34,0.35 -0.73,0.59 -1.16,0.73 -1.16,2.91 -3.97,4.94 -7.22,4.94 -3.18,0 -5.95,-1.95 -7.15,-4.76l-10.44 0c-0.26,0.36 -0.6,0.67 -1,0.88 -0.4,0.22 -0.8,0.32 -1.21,0.34 -0.55,0.78 -1.25,1.44 -2.06,1.95 -1.15,0.72 -2.46,1.1 -3.82,1.1 -0.54,0 -1.09,-0.06 -1.62,-0.18 -2.88,-0.67 -5.01,-3.02 -5.49,-5.83 -0.91,-0.49 -1.51,-1.45 -1.51,-2.52 0,-0.22 0.02,-0.43 0.07,-0.64 0.79,-3.45 3.57,-6.03 6.95,-6.66l0.41 -1.43 0.97 -3.43c0.01,-0.03 0.02,-0.06 0.03,-0.09l0.59 -2.06c-0.56,-0.52 -0.92,-1.27 -0.92,-2.1l0 -3.4c0,-1.09 0.41,-2.1 1.32,-2.76 1.05,-0.76 2.14,-0.69 3.29,-0.31l4.15 1.37 2.8 -0.22 0.35 -0.3c0.01,-0.14 0.02,-0.27 0.03,-0.41 -1.81,-1.04 -3.06,-2.88 -3.33,-5 -0.66,-0.53 -1.08,-1.34 -1.08,-2.24 0,-4.29 3.43,-7.86 7.74,-7.86 4.32,0 7.75,3.57 7.75,7.86 0,1.38 -0.3,2.74 -0.91,3.95 0.72,0.8 1.32,1.7 1.81,2.66 0.2,0.38 0.37,0.75 0.53,1.14 0.62,-1.79 2.32,-3.07 4.32,-3.07l7.56 0c2.52,0 4.57,2.05 4.57,4.57l0 7.64c0,2.53 -2.05,4.58 -4.57,4.58l-1.12 0c-0.05,0.49 -0.2,0.97 -0.42,1.4 0.67,1.98 0.73,3.99 0.43,6.11zm-25.36 -12.85c-0.7,2.49 -0.88,4.79 -0.51,7.19 0.05,-0.04 0.11,-0.07 0.16,-0.11l0 -2c0,-1.85 0.4,-3.64 1.3,-5.08l-0.95 0z"/>
    </clipPath>
     <clipPath id="id1">
      <path d="M35.15 22.16l10.99 0 0 3.81c0,0.95 -0.77,1.72 -1.71,1.72l-3.95 0 -2.36 1.19 -2.97 -1.19 0 -5.53z"/>
     </clipPath>
     <clipPath id="id2">
      <path d="M35.15 27.69l5.33 0 0 2.45c0,0.58 -0.48,1.06 -1.07,1.06l-17.33 0c0,-1.54 0,-2.32 1.18,-2.32l2.34 0c1.48,0 2.45,-0.38 2.99,-1.19l6.56 0z"/>
     </clipPath>
     <clipPath id="id3">
      <path d="M24.17 31.2l15.24 0c0.89,1.56 1.61,3.43 0.99,7.01 -1.03,-3.53 -11.57,-2.12 -12.65,1.95l-11.62 0c-0.44,-1 -0.85,-1.98 -1.21,-2.97l3.27 0c6.63,-2.5 4.5,-1.39 5.98,-5.99z"/>
     </clipPath>
     <clipPath id="id4">
      <path d="M23.23 21.64c0.23,1.19 0.54,2.37 0.88,3.38l3.35 1.31 3.74 -1.31c-0.13,-7.07 -2.78,-10.46 -5.02,-11.56 -0.81,-0.62 -1.64,-0.85 -1.64,-0.85 0,0 -1.09,1.75 -1.15,1.75 -0.42,1 -0.58,2.3 -0.55,3.7l0.39 3.58z"/>
     </clipPath>
     <clipPath id="id5">
      <path d="M31.2 25.02l-7.09 0c-1.63,0.17 -3.64,1.42 -3.64,5.27l0 4.03 3.7 0 0 -3.12c0,-1.54 0,-2.32 1.18,-2.32l2.34 0c1.48,0 2.45,-0.38 2.99,-1.19 0.42,-0.63 0.58,-1.51 0.52,-2.67z"/>
     </clipPath>
     <clipPath id="id6">
      <path d="M31.2 25.02c-0.13,-7.07 -2.78,-10.46 -5.02,-11.56 -0.34,0.24 -0.71,0.43 -1.11,0.57 1.99,1.51 3.98,4.87 4.09,10.99l2.04 0z"/>
     </clipPath>
     <clipPath id="id7">
      <path d="M31.2 25.02l-2.04 0c0.06,1.16 -0.1,2.04 -0.51,2.67 -0.34,0.51 -0.86,0.94 -1.56,1.19l0.6 0c1.48,0 2.45,-0.38 2.99,-1.19 0.42,-0.63 0.58,-1.51 0.52,-2.67z"/>
     </clipPath>
     <clipPath id="id8">
      <path d="M36.87 16.62l7.56 0c0.94,0 1.71,0.77 1.71,1.71l0 2.84 -10.99 0 0 -2.84c0,-0.94 0.77,-1.71 1.72,-1.71z"/>
     </clipPath>
     <clipPath id="id9">
      <path d="M35.15 20.31l10.99 0 0 2.7 -10.99 0 0 -2.7z"/>
     </clipPath>
     <clipPath id="id10">
      <path d="M43.85 20.31l1.41 0 0.88 0 0 -1.98c0,-0.64 -0.36,-1.21 -0.88,-1.5 -0.25,-0.13 -0.53,-0.21 -0.83,-0.21l-2.29 0c0.94,0 1.71,0.77 1.71,1.71l0 1.98z"/>
     </clipPath>
     <clipPath id="id11">
      <path d="M43.85 23.01l1.41 0 0.88 0 0 -0.85 0 -0.99 0 -0.86 -0.88 0 -1.41 0 0 0.86 0 0.99 0 0.85z"/>
     </clipPath>
     <clipPath id="id12">
      <path d="M43.85 23.01l0 2.96c0,0.95 -0.77,1.72 -1.71,1.72l2.29 0c0.3,0 0.58,-0.08 0.83,-0.21 0.52,-0.3 0.88,-0.86 0.88,-1.51l0 -2.96 -0.88 0 -1.41 0z"/>
     </clipPath>
     <clipPath id="id13">
      <path d="M27.75 40.16c0,-3.66 2.9,-6.57 6.47,-6.57 2.91,0 5.37,1.93 6.18,4.62 0.17,0.55 0.27,1.13 0.29,1.74 0,0.24 -0.16,0.21 -0.38,0.21 -4.19,0 -8.37,0 -12.56,0z"/>
     </clipPath>
     <clipPath id="id14">
      <path d="M29.38 40.16l9.85 0c-0.15,2.65 -2.3,4.76 -4.93,4.76 -2.63,0 -4.78,-2.11 -4.92,-4.76z"/>
     </clipPath>
     <clipPath id="id15">
      <path d="M4.38 39.11l8.47 1.95c-0.54,2.34 -2.87,3.8 -5.21,3.26 -2.34,-0.54 -3.8,-2.87 -3.26,-5.21z"/>
     </clipPath>
     <clipPath id="id16">
      <path d="M3.75 36.74c1.19,-1.75 3.27,-2.76 5.44,-2.54 3.83,0.81 5.08,3.1 5.33,5.96 0,0.38 -0.05,0.78 -0.13,1.17 -0.03,0.1 -0.1,0.06 -0.22,0.03l-1.32 -0.3 -8.47 -1.95 -0.63 -0.15 -0.89 -0.2c0.17,-0.75 0.48,-1.43 0.89,-2.02z"/>
     </clipPath>
     <clipPath id="id17">
      <path d="M9.19 34.19l3.42 -11.84 1.54 -0.69 1.72 0.69c-2.26,6.28 -1.63,10.66 -0.1,14.84 0.36,0.99 0.78,1.97 1.21,2.97l-2.46 0 -5.33 -5.97z"/>
     </clipPath>
     <clipPath id="id18">
      <path d="M19.78 9.08l4.01 -0.86c0.41,0.04 1.58,1.02 1.58,1.63l-0.86 4.34c-0.35,0.11 -0.73,0.17 -1.12,0.17 -2.14,0 -3.87,-1.74 -3.87,-3.88 0,-0.49 0.09,-0.97 0.26,-1.4z"/>
     </clipPath>
     <clipPath id="id19">
      <path d="M18.49 9.08c0,-2.77 2.18,-5 4.88,-5 2.7,0 4.89,2.23 4.89,5 0,1.82 -0.74,3.44 -2.08,4.38 -0.48,0.34 -1.04,0.59 -1.67,0.73l0 -4.34c0,-0.61 -0.31,-0.74 -0.71,-0.77l-4.02 0 -1.29 0 0 0z"/>
     </clipPath>
     <clipPath id="id20">
      <path d="M20.82 4.82c0.74,-0.47 1.62,-0.74 2.55,-0.74 2.7,0 4.89,2.23 4.89,5 0,1.82 -0.74,3.44 -2.08,4.38 -0.34,0.24 -0.72,0.44 -1.14,0.58 1,-1.01 1.54,-2.45 1.54,-4.04 0,-2.89 -2.29,-5.23 -5.12,-5.23 -0.22,0 -0.43,0.02 -0.64,0.05z"/>
     </clipPath>
     <clipPath id="id21">
      <path d="M20.47 34.32l3.7 0 0 2.33c0,0.5 -0.27,0.54 -0.67,0.54l-5.31 0c-0.1,-2.34 1.31,-2.87 2.28,-2.87z"/>
     </clipPath>
     <clipPath id="id22">
      <path d="M15.77 37.19c-1.53,-4.18 -2.16,-8.56 0.1,-14.84l-1.27 0 -0.01 0 -0.46 0c-2.26,6.28 -1.63,10.66 -0.1,14.84 0.36,0.99 0.77,1.97 1.21,2.97l0.89 0 0.85 0c-0.43,-1 -0.85,-1.98 -1.21,-2.97z"/>
     </clipPath>
     <clipPath id="id23">
      <path d="M14.52 40.16l-5.33 -5.96c-0.55,-0.05 -1.09,-0.03 -1.62,0.06l5.12 5.73c0,0.33 -0.04,0.67 -0.1,1.01l0.26 0.06 1.32 0.3c0.12,0.03 0.19,0.07 0.22,-0.03 0.08,-0.39 0.13,-0.79 0.13,-1.17z"/>
     </clipPath>
     <clipPath id="id24">
      <path d="M39.41 31.2l-15.24 0 0 1.34 12.52 0c1.02,0 1.51,0.44 1.9,1.34 0.35,0.77 0.35,1.02 0.51,1.96 0.58,0.67 1.03,1.48 1.3,2.37 0.62,-3.58 -0.1,-5.45 -0.99,-7.01z"/>
     </clipPath>
     <clipPath id="id25">
      <path d="M39.1 35.84c-1.19,-1.38 -2.93,-2.25 -4.88,-2.25 -0.49,0 -0.96,0.06 -1.42,0.16 2.92,0.66 4.96,3.23 5.04,6.2 0.01,0.16 -0.06,0.2 -0.18,0.21l1.57 0 1.08 0c0.22,0 0.38,0.03 0.38,-0.21 -0.02,-0.61 -0.12,-1.19 -0.29,-1.74 0,-0.02 -0.01,-0.03 -0.01,-0.05l0 0c-0.27,-0.87 -0.72,-1.66 -1.29,-2.32z"/>
     </clipPath>
     <clipPath id="id26">
      <path d="M12.59 41l-8.21 -1.89c-0.09,0.39 -0.12,0.78 -0.11,1.16l6.52 1.5 0.25 0.06c-0.24,1.06 -0.85,1.94 -1.67,2.54 1.67,-0.3 3.08,-1.56 3.48,-3.31l-0.26 -0.06z"/>
     </clipPath>
     <clipPath id="id27">
      <path d="M37.66 40.16l-8.28 0c0.03,0.52 0.13,1.02 0.3,1.48l5.77 0 1.57 0c-0.06,1.17 -0.51,2.22 -1.21,3.04 1.9,-0.62 3.3,-2.4 3.42,-4.52l-1.57 0z"/>
     </clipPath>
     <clipPath id="id28">
      <path d="M40.48 30.14l0 -2.45 -3.35 0 0 2.45c0,0.58 -0.48,1.06 -1.07,1.06l3.35 0c0.59,0 1.07,-0.48 1.07,-1.06z"/>
     </clipPath>
     <clipPath id="id29">
      <path d="M19.54 10.07l3.3 0c0.4,0.03 0.72,0.16 0.72,0.77l0 3.51c0.33,-0.01 0.65,-0.07 0.95,-0.16l0 -4.34c0,-0.61 -0.31,-0.74 -0.72,-0.77l-4.01 0c-0.12,0.31 -0.2,0.64 -0.24,0.99z"/>
     </clipPath>
     <clipPath id="id30">
      <path d="M11.89 18.62l4.62 1.53c0.23,0.2 -0.03,2.27 -0.18,2.2l-3.72 0 -1.65 0 0 -3.4c0,-0.67 0.35,-0.52 0.93,-0.33z"/>
     </clipPath>
     <clipPath id="id31">
      <path d="M18.67 22.35l-0.39 0 -1.95 0c-1.25,0 -1.29,-2.08 0.18,-2.2l2.16 -0.17 0.57 1.22 -0.57 1.15z"/>
     </clipPath>
     <clipPath id="id32">
      <path d="M22.84 18.06l0.77 -0.66c1.94,-1.67 4.38,1.15 1.8,2.83l-2.18 1.41 -1.1 0.71 -3.46 0 0 -2.37 2.15 -0.18 2.02 -1.74z"/>
     </clipPath>
     <clipPath id="id33">
      <path d="M18.67 22.35l0 -1.15 -0.47 0 -0.25 0 -0.39 0 -1.94 0c-0.08,0 -0.15,-0.01 -0.21,-0.02 -0.07,0.57 0.25,1.17 0.92,1.17l1.95 0 0.39 0z"/>
     </clipPath>
     <clipPath id="id34">
      <path d="M25.41 20.23c1.56,-1.02 1.29,-2.45 0.4,-3.06 0.07,0.62 -0.23,1.33 -1.12,1.91l-1.69 1.1 -0.48 0.31 -1.1 0.71 -2.75 0 0 1.15 3.46 0 1.1 -0.71 2.18 -1.41z"/>
     </clipPath>
     <clipPath id="id35">
      <path d="M16.51 20.15l-1.86 -0.61c-0.62,0.66 -0.92,1.96 -0.52,2.81l1.74 0 0.46 0c-0.67,0 -0.99,-0.6 -0.92,-1.17 0.06,-0.5 0.42,-0.97 1.1,-1.03z"/>
     </clipPath>
     <clipPath id="id36" clip-rule="nonzero">
      <path d="M45.49 19.66l-9.68 0 0 -1.33c0,-0.58 0.47,-1.06 1.06,-1.06l7.56 0c0.58,0 1.06,0.48 1.06,1.06l0 1.33zm0 2.7l-9.68 0 0 -1.39 9.68 0 0 1.39zm0 3.61c0,0.59 -0.48,1.06 -1.06,1.06l-8.62 0 0 -3.37 9.68 0 0 2.31zm-6.26 13.54l-9.85 0 -0.94 0c0.32,-2.96 2.79,-5.26 5.78,-5.26 2.63,0 4.83,1.73 5.56,4.15 0,0.01 0,0.02 0.01,0.02 0.1,0.35 0.17,0.71 0.21,1.09l-0.77 0zm-4.93 4.76c-2.04,0 -3.76,-1.47 -4.18,-3.46l8.36 0c-0.41,1.99 -2.14,3.46 -4.18,3.46zm-16.89 -4.77c-0.24,-0.55 -0.47,-1.11 -0.69,-1.66l6.78 0c0.88,0 1.32,-0.4 1.32,-1.19l0 -2.33 0 -2.46 5.16 0c0.36,0 0.65,-0.3 0.65,-0.66 0,-0.36 -0.29,-0.65 -0.65,-0.65l-5.15 0c0.01,-0.37 0.03,-0.67 0.1,-0.85 0.03,-0.09 0.06,-0.17 0.42,-0.17l2.34 0c1.47,0 2.52,-0.36 3.22,-1.09 0.03,-0.03 0.06,-0.06 0.09,-0.1l4.15 0 4.67 0 0 1.8c0,0.22 -0.19,0.41 -0.41,0.41l-6.5 0c-0.36,0 -0.66,0.29 -0.66,0.65 0,0.36 0.3,0.66 0.66,0.66l6.12 0c0.51,0.95 0.98,2.15 0.95,4.03 -1.29,-1.79 -3.39,-2.95 -5.76,-2.95 -1.91,0 -3.7,0.75 -5.04,2.11 -1.19,1.2 -1.9,2.77 -2.05,4.46l-9.72 -0.01zm-1.08 -16.5l5.8 0c0.13,0 0.25,-0.03 0.36,-0.1l0.3 -0.19c0.14,0.63 0.3,1.24 0.48,1.81 -1.34,0.4 -3.45,1.67 -3.45,5.77l0 3.44c-0.46,0.1 -1,0.31 -1.45,0.78 -0.48,0.5 -0.76,1.18 -0.82,2.02l-1.32 0c-1.33,-3.82 -1.83,-7.89 0.1,-13.53zm-1.31 -2.65c-0.2,0.32 -0.29,0.7 -0.27,1.07 0,0.09 0.01,0.18 0.03,0.27 0,0 0,0.01 0,0.01l-3.17 0 0 -2.48 3.41 1.12c0,0.01 0,0.01 0,0.01zm1.55 0.45l1.45 -0.12 0 1.02 -1.69 0c-0.22,0 -0.27,-0.18 -0.28,-0.34 0,-0.08 0.01,-0.52 0.52,-0.56zm2.76 -0.22l1.54 -0.13c0.14,-0.01 0.27,-0.06 0.38,-0.15l2.79 -2.4 0 -0.01c0.27,-0.23 0.56,-0.35 0.84,-0.35 0.12,0 0.25,0.03 0.37,0.07 0.34,0.14 0.59,0.46 0.62,0.81 0.04,0.44 -0.25,0.89 -0.82,1.26l-3.11 2.02 -2.61 0 0 -1.12 0 0zm0.84 -10.1c0,-0.26 0.03,-0.51 0.09,-0.75l3.5 0c0.04,0 0.07,0.01 0.09,0.01 0.01,0.03 0.01,0.06 0.01,0.11l0 3.82c-0.15,0.02 -0.31,0.03 -0.47,0.03l0 0c-1.78,0 -3.22,-1.44 -3.22,-3.22zm-0.98 -2.06c0.3,-2.08 2.06,-3.69 4.18,-3.69 2.34,0 4.24,1.95 4.24,4.35 0,1.94 -0.94,3.51 -2.44,4.21l0 -3.44c0,-0.6 -0.23,-1.33 -1.31,-1.43 -0.02,0 -0.05,0 -0.07,0l-4.6 0zm11.33 15.94l-5.94 0c-0.23,-0.75 -0.45,-1.57 -0.62,-2.41l1.8 -1.18c0.99,-0.64 1.5,-1.54 1.41,-2.48 -0.08,-0.83 -0.65,-1.57 -1.44,-1.89 -0.72,-0.29 -1.5,-0.2 -2.19,0.24 0.06,-0.62 0.16,-1.18 0.32,-1.65 0.27,-0.03 0.55,-0.09 0.82,-0.17 0.55,-0.12 1.06,-0.33 1.53,-0.6 1.25,0.75 4.02,3.19 4.31,10.14zm-7 10.61l0 1.56 -0.02 0 -4.64 0c0.05,-0.48 0.2,-0.85 0.45,-1.11 0.37,-0.39 0.89,-0.45 1.16,-0.45l3.05 0zm0.19 -5.74c-0.19,0.5 -0.19,1.12 -0.19,1.97l0 2.47 -2.39 0 0 -3.38c0,-3.83 2.08,-4.51 3.02,-4.62l6.4 0c-0.02,0.87 -0.22,1.48 -0.59,1.87 -0.43,0.46 -1.17,0.68 -2.27,0.69l-2.34 0c-0.84,0 -1.39,0.34 -1.64,1zm-9.87 11.39l-10.16 -2.34c0.78,-2.15 2.9,-3.57 5.2,-3.45l4.98 5.57c-0.01,0.07 -0.01,0.14 -0.02,0.22zm-3.27 2.6c-0.83,0.52 -1.82,0.69 -2.78,0.47l0 0c-1.77,-0.41 -2.95,-2.03 -2.86,-3.78l7.08 1.63c-0.29,0.69 -0.79,1.27 -1.44,1.68zm33.86 -27.26l-7.56 0c-1.31,0 -2.37,1.06 -2.37,2.37l0 8.7 -2.83 0c0.16,-0.57 0.22,-1.24 0.18,-2.03l0 0c-0.06,-3.31 -0.66,-6.1 -1.79,-8.3 -0.87,-1.7 -1.89,-2.72 -2.77,-3.34 1.03,-1.05 1.62,-2.55 1.62,-4.28 0,-3.12 -2.48,-5.66 -5.54,-5.66 -3.05,0 -5.54,2.54 -5.54,5.66 0,0.36 0.29,0.65 0.66,0.65l0.44 0c-0.04,0.25 -0.06,0.5 -0.06,0.75 0,2.2 1.57,4.03 3.64,4.44 -0.22,0.81 -0.32,1.76 -0.32,2.85l-1.63 1.4 -3.97 0.32 -4.57 -1.51c-0.42,-0.14 -0.89,-0.3 -1.31,0 -0.4,0.29 -0.4,0.8 -0.4,0.97l0 3.4c0,0.36 0.29,0.65 0.65,0.65l0.78 0 -1.19 4.12c-0.1,0.35 0.1,0.71 0.44,0.81 0.35,0.11 0.71,-0.1 0.81,-0.44l1.3 -4.49 1.86 0c-2.31,7.05 -1,11.75 1.03,16.51l-1.18 0 -4.89 -5.47 1.04 -3.57c0.1,-0.35 -0.1,-0.71 -0.45,-0.81 -0.34,-0.1 -0.71,0.1 -0.81,0.44l-0.99 3.42c-3.05,-0.05 -5.79,2.06 -6.49,5.09 -0.01,0.05 -0.01,0.1 -0.01,0.15 0,0.3 0.2,0.57 0.5,0.64l0.93 0.21c-0.24,2.46 1.38,4.78 3.85,5.35 0.38,0.09 0.76,0.13 1.13,0.13 0.93,0 1.84,-0.26 2.65,-0.77 0.94,-0.59 1.65,-1.46 2.03,-2.49l0.73 0.17c0.22,0.05 0.42,0.08 0.63,-0.04 0.19,-0.1 0.32,-0.29 0.37,-0.5 0.04,-0.21 0.08,-0.43 0.1,-0.65l13.66 0c0.44,2.72 2.75,4.77 5.51,4.77 2.76,0 5.07,-2.05 5.51,-4.77l0.5 0 0.06 0c0.02,0 0.04,0 0.06,0 0.19,0 0.46,-0.02 0.68,-0.24 0.11,-0.12 0.24,-0.32 0.23,-0.64 -0.02,-0.61 -0.11,-1.2 -0.27,-1.77 0.52,-3.16 0.02,-5.08 -0.72,-6.59 0.47,-0.3 0.78,-0.83 0.78,-1.43l0 -1.8 3.3 0c1.3,0 2.36,-1.06 2.36,-2.37l0 -7.64c0,-1.31 -1.06,-2.37 -2.36,-2.37z"/>
     </clipPath>
     <clipPath id="id37">
      <path d="M29.31 30.55l4.49 0 0 1.31 -4.49 0 0 -1.31z"/>
     </clipPath>
     <clipPath id="id38">
      <path d="M11.43 26.44c0.07,-0.08 0.6,0.26 0.6,0.26l-1.31 4.6 -1.17 -0.66 1.15 -4.05 0.73 -0.15z"/>
     </clipPath>
 </defs>
 <g id="Layer_x0020_1">
  <metadata id="CorelCorpID_0Corel-Layer"/>
  <g id="_1774836818832">
   <path fill="white" d="M43.32 38.06c0.13,0.59 0.21,1.2 0.22,1.81 0.03,0.83 -0.27,1.65 -0.86,2.24 -0.34,0.35 -0.73,0.59 -1.16,0.73 -1.16,2.91 -3.97,4.94 -7.22,4.94 -3.18,0 -5.95,-1.95 -7.15,-4.76l-10.44 0c-0.26,0.36 -0.6,0.67 -1,0.88 -0.4,0.22 -0.8,0.32 -1.21,0.34 -0.55,0.78 -1.25,1.44 -2.06,1.95 -1.15,0.72 -2.46,1.1 -3.82,1.1 -0.54,0 -1.09,-0.06 -1.62,-0.18 -2.88,-0.67 -5.01,-3.02 -5.49,-5.83 -0.91,-0.49 -1.51,-1.45 -1.51,-2.52 0,-0.22 0.02,-0.43 0.07,-0.64 0.79,-3.45 3.57,-6.03 6.95,-6.66l0.41 -1.43 0.97 -3.43c0.01,-0.03 0.02,-0.06 0.03,-0.09l0.59 -2.06c-0.56,-0.52 -0.92,-1.27 -0.92,-2.1l0 -3.4c0,-1.09 0.41,-2.1 1.32,-2.76 1.05,-0.76 2.14,-0.69 3.29,-0.31l4.15 1.37 2.8 -0.22 0.35 -0.3c0.01,-0.14 0.02,-0.27 0.03,-0.41 -1.81,-1.04 -3.06,-2.88 -3.33,-5 -0.66,-0.53 -1.08,-1.34 -1.08,-2.24 0,-4.29 3.43,-7.86 7.74,-7.86 4.32,0 7.75,3.57 7.75,7.86 0,1.38 -0.3,2.74 -0.91,3.95 0.72,0.8 1.32,1.7 1.81,2.66 0.2,0.38 0.37,0.75 0.53,1.14 0.62,-1.79 2.32,-3.07 4.32,-3.07l7.56 0c2.52,0 4.57,2.05 4.57,4.57l0 7.64c0,2.53 -2.05,4.58 -4.57,4.58l-1.12 0c-0.05,0.49 -0.2,0.97 -0.42,1.4 0.67,1.98 0.73,3.99 0.43,6.11zm-25.36 -12.85c-0.7,2.49 -0.88,4.79 -0.51,7.19 0.05,-0.04 0.11,-0.07 0.16,-0.11l0 -2c0,-1.85 0.4,-3.64 1.3,-5.08l-0.95 0z"/>
   <g clip-path="url(#id0)">
    <g>
     <polygon id="1" fill="white" fill-opacity="0.600000" points="-8.01,-1.99 57.01,-1.99 57.01,51 -8.01,51 "/>
    </g>
   </g>
   <path fill="none" d="M43.32 38.06c0.13,0.59 0.21,1.2 0.22,1.81 0.03,0.83 -0.27,1.65 -0.86,2.24 -0.34,0.35 -0.73,0.59 -1.16,0.73 -1.16,2.91 -3.97,4.94 -7.22,4.94 -3.18,0 -5.95,-1.95 -7.15,-4.76l-10.44 0c-0.26,0.36 -0.6,0.67 -1,0.88 -0.4,0.22 -0.8,0.32 -1.21,0.34 -0.55,0.78 -1.25,1.44 -2.06,1.95 -1.15,0.72 -2.46,1.1 -3.82,1.1 -0.54,0 -1.09,-0.06 -1.62,-0.18 -2.88,-0.67 -5.01,-3.02 -5.49,-5.83 -0.91,-0.49 -1.51,-1.45 -1.51,-2.52 0,-0.22 0.02,-0.43 0.07,-0.64 0.79,-3.45 3.57,-6.03 6.95,-6.66l0.41 -1.43 0.97 -3.43c0.01,-0.03 0.02,-0.06 0.03,-0.09l0.59 -2.06c-0.56,-0.52 -0.92,-1.27 -0.92,-2.1l0 -3.4c0,-1.09 0.41,-2.1 1.32,-2.76 1.05,-0.76 2.14,-0.69 3.29,-0.31l4.15 1.37 2.8 -0.22 0.35 -0.3c0.01,-0.14 0.02,-0.27 0.03,-0.41 -1.81,-1.04 -3.06,-2.88 -3.33,-5 -0.66,-0.53 -1.08,-1.34 -1.08,-2.24 0,-4.29 3.43,-7.86 7.74,-7.86 4.32,0 7.75,3.57 7.75,7.86 0,1.38 -0.3,2.74 -0.91,3.95 0.72,0.8 1.32,1.7 1.81,2.66 0.2,0.38 0.37,0.75 0.53,1.14 0.62,-1.79 2.32,-3.07 4.32,-3.07l7.56 0c2.52,0 4.57,2.05 4.57,4.57l0 7.64c0,2.53 -2.05,4.58 -4.57,4.58l-1.12 0c-0.05,0.49 -0.2,0.97 -0.42,1.4 0.67,1.98 0.73,3.99 0.43,6.11zm-25.36 -12.85c-0.7,2.49 -0.88,4.79 -0.51,7.19 0.05,-0.04 0.11,-0.07 0.16,-0.11l0 -2c0,-1.85 0.4,-3.64 1.3,-5.08l-0.95 0z"/>
   <g>
    <path fill="#FFE07D" d="M35.15 22.16l10.99 0 0 3.81c0,0.95 -0.77,1.72 -1.71,1.72l-3.95 0 -2.36 1.19 -2.97 -1.19 0 -5.53z"/>
    <g clip-path="url(#id1)">
     <g>
      <polygon id="1" fill="white" fill-opacity="0.600000" points="-8.01,-1.99 57.01,-1.99 57.01,51 -8.01,51 "/>
     </g>
    </g>
    <path fill="none" d="M35.15 22.16l10.99 0 0 3.81c0,0.95 -0.77,1.72 -1.71,1.72l-3.95 0 -2.36 1.19 -2.97 -1.19 0 -5.53z"/>
    <path fill="#6F6571" d="M35.15 27.69l5.33 0 0 2.45c0,0.58 -0.48,1.06 -1.07,1.06l-17.33 0c0,-1.54 0,-2.32 1.18,-2.32l2.34 0c1.48,0 2.45,-0.38 2.99,-1.19l6.56 0z"/>
    <g clip-path="url(#id2)">
     <g>
      <polygon id="1" fill="white" fill-opacity="0.600000" points="-8.01,-1.99 57.01,-1.99 57.01,51 -8.01,51 "/>
     </g>
    </g>
    <path fill="none" d="M35.15 27.69l5.33 0 0 2.45c0,0.58 -0.48,1.06 -1.07,1.06l-17.33 0c0,-1.54 0,-2.32 1.18,-2.32l2.34 0c1.48,0 2.45,-0.38 2.99,-1.19l6.56 0z"/>
    <path fill="#FFE07D" d="M24.17 31.2l15.24 0c0.89,1.56 1.61,3.43 0.99,7.01 -1.03,-3.53 -11.57,-2.12 -12.65,1.95l-11.62 0c-0.44,-1 -0.85,-1.98 -1.21,-2.97l3.27 0c6.63,-2.5 4.5,-1.39 5.98,-5.99z"/>
    <g clip-path="url(#id3)">
     <g>
      <polygon id="1" fill="white" fill-opacity="0.600000" points="-8.01,-1.99 57.01,-1.99 57.01,51 -8.01,51 "/>
     </g>
    </g>
    <path fill="none" d="M24.17 31.2l15.24 0c0.89,1.56 1.61,3.43 0.99,7.01 -1.03,-3.53 -11.57,-2.12 -12.65,1.95l-11.62 0c-0.44,-1 -0.85,-1.98 -1.21,-2.97l3.27 0c6.63,-2.5 4.5,-1.39 5.98,-5.99z"/>
    <path fill="#ECEAEC" d="M23.23 21.64c0.23,1.19 0.54,2.37 0.88,3.38l3.35 1.31 3.74 -1.31c-0.13,-7.07 -2.78,-10.46 -5.02,-11.56 -0.81,-0.62 -1.64,-0.85 -1.64,-0.85 0,0 -1.09,1.75 -1.15,1.75 -0.42,1 -0.58,2.3 -0.55,3.7l0.39 3.58z"/>
    <g clip-path="url(#id4)">
     <g>
      <polygon id="1" fill="white" fill-opacity="0.600000" points="-8.01,-1.99 57.01,-1.99 57.01,51 -8.01,51 "/>
     </g>
    </g>
    <path fill="none" d="M23.23 21.64c0.23,1.19 0.54,2.37 0.88,3.38l3.35 1.31 3.74 -1.31c-0.13,-7.07 -2.78,-10.46 -5.02,-11.56 -0.81,-0.62 -1.64,-0.85 -1.64,-0.85 0,0 -1.09,1.75 -1.15,1.75 -0.42,1 -0.58,2.3 -0.55,3.7l0.39 3.58z"/>
    <path fill="#FFE07D" d="M31.2 25.02l-7.09 0c-1.63,0.17 -3.64,1.42 -3.64,5.27l0 4.03 3.7 0 0 -3.12c0,-1.54 0,-2.32 1.18,-2.32l2.34 0c1.48,0 2.45,-0.38 2.99,-1.19 0.42,-0.63 0.58,-1.51 0.52,-2.67z"/>
    <g clip-path="url(#id5)">
     <g>
      <polygon id="1" fill="white" fill-opacity="0.600000" points="-8.01,-1.99 57.01,-1.99 57.01,51 -8.01,51 "/>
     </g>
    </g>
    <path fill="none" d="M31.2 25.02l-7.09 0c-1.63,0.17 -3.64,1.42 -3.64,5.27l0 4.03 3.7 0 0 -3.12c0,-1.54 0,-2.32 1.18,-2.32l2.34 0c1.48,0 2.45,-0.38 2.99,-1.19 0.42,-0.63 0.58,-1.51 0.52,-2.67z"/>
    <path fill="#DAD8DB" d="M31.2 25.02c-0.13,-7.07 -2.78,-10.46 -5.02,-11.56 -0.34,0.24 -0.71,0.43 -1.11,0.57 1.99,1.51 3.98,4.87 4.09,10.99l2.04 0z"/>
    <g clip-path="url(#id6)">
     <g>
      <polygon id="1" fill="white" fill-opacity="0.600000" points="-8.01,-1.99 57.01,-1.99 57.01,51 -8.01,51 "/>
     </g>
    </g>
    <path fill="none" d="M31.2 25.02c-0.13,-7.07 -2.78,-10.46 -5.02,-11.56 -0.34,0.24 -0.71,0.43 -1.11,0.57 1.99,1.51 3.98,4.87 4.09,10.99l2.04 0z"/>
    <path fill="#FFC269" d="M31.2 25.02l-2.04 0c0.06,1.16 -0.1,2.04 -0.51,2.67 -0.34,0.51 -0.86,0.94 -1.56,1.19l0.6 0c1.48,0 2.45,-0.38 2.99,-1.19 0.42,-0.63 0.58,-1.51 0.52,-2.67z"/>
    <g clip-path="url(#id7)">
     <g>
      <polygon id="1" fill="white" fill-opacity="0.600000" points="-8.01,-1.99 57.01,-1.99 57.01,51 -8.01,51 "/>
     </g>
    </g>
    <path fill="none" d="M31.2 25.02l-2.04 0c0.06,1.16 -0.1,2.04 -0.51,2.67 -0.34,0.51 -0.86,0.94 -1.56,1.19l0.6 0c1.48,0 2.45,-0.38 2.99,-1.19 0.42,-0.63 0.58,-1.51 0.52,-2.67z"/>
    <path fill="#FFE07D" d="M36.87 16.62l7.56 0c0.94,0 1.71,0.77 1.71,1.71l0 2.84 -10.99 0 0 -2.84c0,-0.94 0.77,-1.71 1.72,-1.71z"/>
    <g clip-path="url(#id8)">
     <g>
      <polygon id="1" fill="white" fill-opacity="0.600000" points="-8.01,-1.99 57.01,-1.99 57.01,51 -8.01,51 "/>
     </g>
    </g>
    <path fill="none" d="M36.87 16.62l7.56 0c0.94,0 1.71,0.77 1.71,1.71l0 2.84 -10.99 0 0 -2.84c0,-0.94 0.77,-1.71 1.72,-1.71z"/>
    <polygon fill="#FFE07D" points="35.15,20.31 46.14,20.31 46.14,23.01 35.15,23.01 "/>
    <g clip-path="url(#id9)">
     <g>
      <polygon id="1" fill="white" fill-opacity="0.600000" points="-8.01,-1.99 57.01,-1.99 57.01,51 -8.01,51 "/>
     </g>
    </g>
    <polygon fill="none" points="35.15,20.31 46.14,20.31 46.14,23.01 35.15,23.01 "/>
    <path fill="#FFC269" d="M43.85 20.31l1.41 0 0.88 0 0 -1.98c0,-0.64 -0.36,-1.21 -0.88,-1.5 -0.25,-0.13 -0.53,-0.21 -0.83,-0.21l-2.29 0c0.94,0 1.71,0.77 1.71,1.71l0 1.98z"/>
    <g clip-path="url(#id10)">
     <g>
      <polygon id="1" fill="white" fill-opacity="0.600000" points="-8.01,-1.99 57.01,-1.99 57.01,51 -8.01,51 "/>
     </g>
    </g>
    <path fill="none" d="M43.85 20.31l1.41 0 0.88 0 0 -1.98c0,-0.64 -0.36,-1.21 -0.88,-1.5 -0.25,-0.13 -0.53,-0.21 -0.83,-0.21l-2.29 0c0.94,0 1.71,0.77 1.71,1.71l0 1.98z"/>
    <polygon fill="#FFC269" points="43.85,23.01 45.26,23.01 46.14,23.01 46.14,22.16 46.14,21.17 46.14,20.31 45.26,20.31 43.85,20.31 43.85,21.17 43.85,22.16 "/>
    <g clip-path="url(#id11)">
     <g>
      <polygon id="1" fill="white" fill-opacity="0.600000" points="-8.01,-1.99 57.01,-1.99 57.01,51 -8.01,51 "/>
     </g>
    </g>
    <polygon fill="none" points="43.85,23.01 45.26,23.01 46.14,23.01 46.14,22.16 46.14,21.17 46.14,20.31 45.26,20.31 43.85,20.31 43.85,21.17 43.85,22.16 "/>
    <path fill="#FFC269" d="M43.85 23.01l0 2.96c0,0.95 -0.77,1.72 -1.71,1.72l2.29 0c0.3,0 0.58,-0.08 0.83,-0.21 0.52,-0.3 0.88,-0.86 0.88,-1.51l0 -2.96 -0.88 0 -1.41 0z"/>
    <g clip-path="url(#id12)">
     <g>
      <polygon id="1" fill="white" fill-opacity="0.600000" points="-8.01,-1.99 57.01,-1.99 57.01,51 -8.01,51 "/>
     </g>
    </g>
    <path fill="none" d="M43.85 23.01l0 2.96c0,0.95 -0.77,1.72 -1.71,1.72l2.29 0c0.3,0 0.58,-0.08 0.83,-0.21 0.52,-0.3 0.88,-0.86 0.88,-1.51l0 -2.96 -0.88 0 -1.41 0z"/>
    <path fill="#FF8086" d="M27.75 40.16c0,-3.66 2.9,-6.57 6.47,-6.57 2.91,0 5.37,1.93 6.18,4.62 0.17,0.55 0.27,1.13 0.29,1.74 0,0.24 -0.16,0.21 -0.38,0.21 -4.19,0 -8.37,0 -12.56,0z"/>
    <g clip-path="url(#id13)">
     <g>
      <polygon id="1" fill="white" fill-opacity="0.600000" points="-8.01,-1.99 57.01,-1.99 57.01,51 -8.01,51 "/>
     </g>
    </g>
    <path fill="none" d="M27.75 40.16c0,-3.66 2.9,-6.57 6.47,-6.57 2.91,0 5.37,1.93 6.18,4.62 0.17,0.55 0.27,1.13 0.29,1.74 0,0.24 -0.16,0.21 -0.38,0.21 -4.19,0 -8.37,0 -12.56,0z"/>
    <path fill="#6F6571" d="M29.38 40.16l9.85 0c-0.15,2.65 -2.3,4.76 -4.93,4.76 -2.63,0 -4.78,-2.11 -4.92,-4.76z"/>
    <g clip-path="url(#id14)">
     <g>
      <polygon id="1" fill="white" fill-opacity="0.600000" points="-8.01,-1.99 57.01,-1.99 57.01,51 -8.01,51 "/>
     </g>
    </g>
    <path fill="none" d="M29.38 40.16l9.85 0c-0.15,2.65 -2.3,4.76 -4.93,4.76 -2.63,0 -4.78,-2.11 -4.92,-4.76z"/>
    <path fill="#6F6571" d="M4.38 39.11l8.47 1.95c-0.54,2.34 -2.87,3.8 -5.21,3.26 -2.34,-0.54 -3.8,-2.87 -3.26,-5.21z"/>
    <g clip-path="url(#id15)">
     <g>
      <polygon id="1" fill="white" fill-opacity="0.600000" points="-8.01,-1.99 57.01,-1.99 57.01,51 -8.01,51 "/>
     </g>
    </g>
    <path fill="none" d="M4.38 39.11l8.47 1.95c-0.54,2.34 -2.87,3.8 -5.21,3.26 -2.34,-0.54 -3.8,-2.87 -3.26,-5.21z"/>
    <path fill="#ECEAEC" d="M3.75 36.74c1.19,-1.75 3.27,-2.76 5.44,-2.54 3.83,0.81 5.08,3.1 5.33,5.96 0,0.38 -0.05,0.78 -0.13,1.17 -0.03,0.1 -0.1,0.06 -0.22,0.03l-1.32 -0.3 -8.47 -1.95 -0.63 -0.15 -0.89 -0.2c0.17,-0.75 0.48,-1.43 0.89,-2.02z"/>
    <g clip-path="url(#id16)">
     <g>
      <polygon id="1" fill="white" fill-opacity="0.600000" points="-8.01,-1.99 57.01,-1.99 57.01,51 -8.01,51 "/>
     </g>
    </g>
    <path fill="none" d="M3.75 36.74c1.19,-1.75 3.27,-2.76 5.44,-2.54 3.83,0.81 5.08,3.1 5.33,5.96 0,0.38 -0.05,0.78 -0.13,1.17 -0.03,0.1 -0.1,0.06 -0.22,0.03l-1.32 -0.3 -8.47 -1.95 -0.63 -0.15 -0.89 -0.2c0.17,-0.75 0.48,-1.43 0.89,-2.02z"/>
    <path fill="#FF8086" d="M9.19 34.19l3.42 -11.84 1.54 -0.69 1.72 0.69c-2.26,6.28 -1.63,10.66 -0.1,14.84 0.36,0.99 0.78,1.97 1.21,2.97l-2.46 0 -5.33 -5.97z"/>
    <g clip-path="url(#id17)">
     <g>
      <polygon id="1" fill="white" fill-opacity="0.600000" points="-8.01,-1.99 57.01,-1.99 57.01,51 -8.01,51 "/>
     </g>
    </g>
    <path fill="none" d="M9.19 34.19l3.42 -11.84 1.54 -0.69 1.72 0.69c-2.26,6.28 -1.63,10.66 -0.1,14.84 0.36,0.99 0.78,1.97 1.21,2.97l-2.46 0 -5.33 -5.97z"/>
    <path fill="#FFECE4" d="M19.78 9.08l4.01 -0.86c0.41,0.04 1.58,1.02 1.58,1.63l-0.86 4.34c-0.35,0.11 -0.73,0.17 -1.12,0.17 -2.14,0 -3.87,-1.74 -3.87,-3.88 0,-0.49 0.09,-0.97 0.26,-1.4z"/>
    <g clip-path="url(#id18)">
     <g>
      <polygon id="1" fill="white" fill-opacity="0.600000" points="-8.01,-1.99 57.01,-1.99 57.01,51 -8.01,51 "/>
     </g>
    </g>
    <path fill="none" d="M19.78 9.08l4.01 -0.86c0.41,0.04 1.58,1.02 1.58,1.63l-0.86 4.34c-0.35,0.11 -0.73,0.17 -1.12,0.17 -2.14,0 -3.87,-1.74 -3.87,-3.88 0,-0.49 0.09,-0.97 0.26,-1.4z"/>
    <path fill="#FFE07D" d="M18.49 9.08c0,-2.77 2.18,-5 4.88,-5 2.7,0 4.89,2.23 4.89,5 0,1.82 -0.74,3.44 -2.08,4.38 -0.48,0.34 -1.04,0.59 -1.67,0.73l0 -4.34c0,-0.61 -0.31,-0.74 -0.71,-0.77l-4.02 0 -1.29 0 0 0z"/>
    <g clip-path="url(#id19)">
     <g>
      <polygon id="1" fill="white" fill-opacity="0.600000" points="-8.01,-1.99 57.01,-1.99 57.01,51 -8.01,51 "/>
     </g>
    </g>
    <path fill="none" d="M18.49 9.08c0,-2.77 2.18,-5 4.88,-5 2.7,0 4.89,2.23 4.89,5 0,1.82 -0.74,3.44 -2.08,4.38 -0.48,0.34 -1.04,0.59 -1.67,0.73l0 -4.34c0,-0.61 -0.31,-0.74 -0.71,-0.77l-4.02 0 -1.29 0 0 0z"/>
    <path fill="#FFC269" d="M20.82 4.82c0.74,-0.47 1.62,-0.74 2.55,-0.74 2.7,0 4.89,2.23 4.89,5 0,1.82 -0.74,3.44 -2.08,4.38 -0.34,0.24 -0.72,0.44 -1.14,0.58 1,-1.01 1.54,-2.45 1.54,-4.04 0,-2.89 -2.29,-5.23 -5.12,-5.23 -0.22,0 -0.43,0.02 -0.64,0.05z"/>
    <g clip-path="url(#id20)">
     <g>
      <polygon id="1" fill="white" fill-opacity="0.600000" points="-8.01,-1.99 57.01,-1.99 57.01,51 -8.01,51 "/>
     </g>
    </g>
    <path fill="none" d="M20.82 4.82c0.74,-0.47 1.62,-0.74 2.55,-0.74 2.7,0 4.89,2.23 4.89,5 0,1.82 -0.74,3.44 -2.08,4.38 -0.34,0.24 -0.72,0.44 -1.14,0.58 1,-1.01 1.54,-2.45 1.54,-4.04 0,-2.89 -2.29,-5.23 -5.12,-5.23 -0.22,0 -0.43,0.02 -0.64,0.05z"/>
    <path fill="#6F6571" d="M20.47 34.32l3.7 0 0 2.33c0,0.5 -0.27,0.54 -0.67,0.54l-5.31 0c-0.1,-2.34 1.31,-2.87 2.28,-2.87z"/>
    <g clip-path="url(#id21)">
     <g>
      <polygon id="1" fill="white" fill-opacity="0.600000" points="-8.01,-1.99 57.01,-1.99 57.01,51 -8.01,51 "/>
     </g>
    </g>
    <path fill="none" d="M20.47 34.32l3.7 0 0 2.33c0,0.5 -0.27,0.54 -0.67,0.54l-5.31 0c-0.1,-2.34 1.31,-2.87 2.28,-2.87z"/>
    <path fill="#F76672" d="M15.77 37.19c-1.53,-4.18 -2.16,-8.56 0.1,-14.84l-1.27 0 -0.01 0 -0.46 0c-2.26,6.28 -1.63,10.66 -0.1,14.84 0.36,0.99 0.77,1.97 1.21,2.97l0.89 0 0.85 0c-0.43,-1 -0.85,-1.98 -1.21,-2.97z"/>
    <g clip-path="url(#id22)">
     <g>
      <polygon id="1" fill="white" fill-opacity="0.600000" points="-8.01,-1.99 57.01,-1.99 57.01,51 -8.01,51 "/>
     </g>
    </g>
    <path fill="none" d="M15.77 37.19c-1.53,-4.18 -2.16,-8.56 0.1,-14.84l-1.27 0 -0.01 0 -0.46 0c-2.26,6.28 -1.63,10.66 -0.1,14.84 0.36,0.99 0.77,1.97 1.21,2.97l0.89 0 0.85 0c-0.43,-1 -0.85,-1.98 -1.21,-2.97z"/>
    <path fill="#DAD8DB" d="M14.52 40.16l-5.33 -5.96c-0.55,-0.05 -1.09,-0.03 -1.62,0.06l5.12 5.73c0,0.33 -0.04,0.67 -0.1,1.01l0.26 0.06 1.32 0.3c0.12,0.03 0.19,0.07 0.22,-0.03 0.08,-0.39 0.13,-0.79 0.13,-1.17z"/>
    <g clip-path="url(#id23)">
     <g>
      <polygon id="1" fill="white" fill-opacity="0.600000" points="-8.01,-1.99 57.01,-1.99 57.01,51 -8.01,51 "/>
     </g>
    </g>
    <path fill="none" d="M14.52 40.16l-5.33 -5.96c-0.55,-0.05 -1.09,-0.03 -1.62,0.06l5.12 5.73c0,0.33 -0.04,0.67 -0.1,1.01l0.26 0.06 1.32 0.3c0.12,0.03 0.19,0.07 0.22,-0.03 0.08,-0.39 0.13,-0.79 0.13,-1.17z"/>
    <path fill="#FFC269" d="M39.41 31.2l-15.24 0 0 1.34 12.52 0c1.02,0 1.51,0.44 1.9,1.34 0.35,0.77 0.35,1.02 0.51,1.96 0.58,0.67 1.03,1.48 1.3,2.37 0.62,-3.58 -0.1,-5.45 -0.99,-7.01z"/>
    <g clip-path="url(#id24)">
     <g>
      <polygon id="1" fill="white" fill-opacity="0.600000" points="-8.01,-1.99 57.01,-1.99 57.01,51 -8.01,51 "/>
     </g>
    </g>
    <path fill="none" d="M39.41 31.2l-15.24 0 0 1.34 12.52 0c1.02,0 1.51,0.44 1.9,1.34 0.35,0.77 0.35,1.02 0.51,1.96 0.58,0.67 1.03,1.48 1.3,2.37 0.62,-3.58 -0.1,-5.45 -0.99,-7.01z"/>
    <path fill="#F76672" d="M39.1 35.84c-1.19,-1.38 -2.93,-2.25 -4.88,-2.25 -0.49,0 -0.96,0.06 -1.42,0.16 2.92,0.66 4.96,3.23 5.04,6.2 0.01,0.16 -0.06,0.2 -0.18,0.21l1.57 0 1.08 0c0.22,0 0.38,0.03 0.38,-0.21 -0.02,-0.61 -0.12,-1.19 -0.29,-1.74 0,-0.02 -0.01,-0.03 -0.01,-0.05l0 0c-0.27,-0.87 -0.72,-1.66 -1.29,-2.32z"/>
    <g clip-path="url(#id25)">
     <g>
      <polygon id="1" fill="white" fill-opacity="0.600000" points="-8.01,-1.99 57.01,-1.99 57.01,51 -8.01,51 "/>
     </g>
    </g>
    <path fill="none" d="M39.1 35.84c-1.19,-1.38 -2.93,-2.25 -4.88,-2.25 -0.49,0 -0.96,0.06 -1.42,0.16 2.92,0.66 4.96,3.23 5.04,6.2 0.01,0.16 -0.06,0.2 -0.18,0.21l1.57 0 1.08 0c0.22,0 0.38,0.03 0.38,-0.21 -0.02,-0.61 -0.12,-1.19 -0.29,-1.74 0,-0.02 -0.01,-0.03 -0.01,-0.05l0 0c-0.27,-0.87 -0.72,-1.66 -1.29,-2.32z"/>
    <path fill="#5D5360" d="M12.59 41l-8.21 -1.89c-0.09,0.39 -0.12,0.78 -0.11,1.16l6.52 1.5 0.25 0.06c-0.24,1.06 -0.85,1.94 -1.67,2.54 1.67,-0.3 3.08,-1.56 3.48,-3.31l-0.26 -0.06z"/>
    <g clip-path="url(#id26)">
     <g>
      <polygon id="1" fill="white" fill-opacity="0.600000" points="-8.01,-1.99 57.01,-1.99 57.01,51 -8.01,51 "/>
     </g>
    </g>
    <path fill="none" d="M12.59 41l-8.21 -1.89c-0.09,0.39 -0.12,0.78 -0.11,1.16l6.52 1.5 0.25 0.06c-0.24,1.06 -0.85,1.94 -1.67,2.54 1.67,-0.3 3.08,-1.56 3.48,-3.31l-0.26 -0.06z"/>
    <path fill="#5D5360" d="M37.66 40.16l-8.28 0c0.03,0.52 0.13,1.02 0.3,1.48l5.77 0 1.57 0c-0.06,1.17 -0.51,2.22 -1.21,3.04 1.9,-0.62 3.3,-2.4 3.42,-4.52l-1.57 0z"/>
    <g clip-path="url(#id27)">
     <g>
      <polygon id="1" fill="white" fill-opacity="0.600000" points="-8.01,-1.99 57.01,-1.99 57.01,51 -8.01,51 "/>
     </g>
    </g>
    <path fill="none" d="M37.66 40.16l-8.28 0c0.03,0.52 0.13,1.02 0.3,1.48l5.77 0 1.57 0c-0.06,1.17 -0.51,2.22 -1.21,3.04 1.9,-0.62 3.3,-2.4 3.42,-4.52l-1.57 0z"/>
    <path fill="#5D5360" d="M40.48 30.14l0 -2.45 -3.35 0 0 2.45c0,0.58 -0.48,1.06 -1.07,1.06l3.35 0c0.59,0 1.07,-0.48 1.07,-1.06z"/>
    <g clip-path="url(#id28)">
     <g>
      <polygon id="1" fill="white" fill-opacity="0.600000" points="-8.01,-1.99 57.01,-1.99 57.01,51 -8.01,51 "/>
     </g>
    </g>
    <path fill="none" d="M40.48 30.14l0 -2.45 -3.35 0 0 2.45c0,0.58 -0.48,1.06 -1.07,1.06l3.35 0c0.59,0 1.07,-0.48 1.07,-1.06z"/>
    <path fill="#FFDDCE" d="M19.54 10.07l3.3 0c0.4,0.03 0.72,0.16 0.72,0.77l0 3.51c0.33,-0.01 0.65,-0.07 0.95,-0.16l0 -4.34c0,-0.61 -0.31,-0.74 -0.72,-0.77l-4.01 0c-0.12,0.31 -0.2,0.64 -0.24,0.99z"/>
    <g clip-path="url(#id29)">
     <g>
      <polygon id="1" fill="white" fill-opacity="0.600000" points="-8.01,-1.99 57.01,-1.99 57.01,51 -8.01,51 "/>
     </g>
    </g>
    <path fill="none" d="M19.54 10.07l3.3 0c0.4,0.03 0.72,0.16 0.72,0.77l0 3.51c0.33,-0.01 0.65,-0.07 0.95,-0.16l0 -4.34c0,-0.61 -0.31,-0.74 -0.72,-0.77l-4.01 0c-0.12,0.31 -0.2,0.64 -0.24,0.99z"/>
    <path fill="#FF8086" d="M11.89 18.62l4.62 1.53c0.23,0.2 -0.03,2.27 -0.18,2.2l-3.72 0 -1.65 0 0 -3.4c0,-0.67 0.35,-0.52 0.93,-0.33z"/>
    <g clip-path="url(#id30)">
     <g>
      <polygon id="1" fill="white" fill-opacity="0.600000" points="-8.01,-1.99 57.01,-1.99 57.01,51 -8.01,51 "/>
     </g>
    </g>
    <path fill="none" d="M11.89 18.62l4.62 1.53c0.23,0.2 -0.03,2.27 -0.18,2.2l-3.72 0 -1.65 0 0 -3.4c0,-0.67 0.35,-0.52 0.93,-0.33z"/>
    <path fill="#FFECE4" d="M18.67 22.35l-0.39 0 -1.95 0c-1.25,0 -1.29,-2.08 0.18,-2.2l2.16 -0.17 0.57 1.22 -0.57 1.15z"/>
    <g clip-path="url(#id31)">
     <g>
      <polygon id="1" fill="white" fill-opacity="0.600000" points="-8.01,-1.99 57.01,-1.99 57.01,51 -8.01,51 "/>
     </g>
    </g>
    <path fill="none" d="M18.67 22.35l-0.39 0 -1.95 0c-1.25,0 -1.29,-2.08 0.18,-2.2l2.16 -0.17 0.57 1.22 -0.57 1.15z"/>
    <path fill="#FFE07D" d="M22.84 18.06l0.77 -0.66c1.94,-1.67 4.38,1.15 1.8,2.83l-2.18 1.41 -1.1 0.71 -3.46 0 0 -2.37 2.15 -0.18 2.02 -1.74z"/>
    <g clip-path="url(#id32)">
     <g>
      <polygon id="1" fill="white" fill-opacity="0.600000" points="-8.01,-1.99 57.01,-1.99 57.01,51 -8.01,51 "/>
     </g>
    </g>
    <path fill="none" d="M22.84 18.06l0.77 -0.66c1.94,-1.67 4.38,1.15 1.8,2.83l-2.18 1.41 -1.1 0.71 -3.46 0 0 -2.37 2.15 -0.18 2.02 -1.74z"/>
    <path fill="#FFDDCE" d="M18.67 22.35l0 -1.15 -0.47 0 -0.25 0 -0.39 0 -1.94 0c-0.08,0 -0.15,-0.01 -0.21,-0.02 -0.07,0.57 0.25,1.17 0.92,1.17l1.95 0 0.39 0z"/>
    <g clip-path="url(#id33)">
     <g>
      <polygon id="1" fill="white" fill-opacity="0.600000" points="-8.01,-1.99 57.01,-1.99 57.01,51 -8.01,51 "/>
     </g>
    </g>
    <path fill="none" d="M18.67 22.35l0 -1.15 -0.47 0 -0.25 0 -0.39 0 -1.94 0c-0.08,0 -0.15,-0.01 -0.21,-0.02 -0.07,0.57 0.25,1.17 0.92,1.17l1.95 0 0.39 0z"/>
    <path fill="#FFC269" d="M25.41 20.23c1.56,-1.02 1.29,-2.45 0.4,-3.06 0.07,0.62 -0.23,1.33 -1.12,1.91l-1.69 1.1 -0.48 0.31 -1.1 0.71 -2.75 0 0 1.15 3.46 0 1.1 -0.71 2.18 -1.41z"/>
    <g clip-path="url(#id34)">
     <g>
      <polygon id="1" fill="white" fill-opacity="0.600000" points="-8.01,-1.99 57.01,-1.99 57.01,51 -8.01,51 "/>
     </g>
    </g>
    <path fill="none" d="M25.41 20.23c1.56,-1.02 1.29,-2.45 0.4,-3.06 0.07,0.62 -0.23,1.33 -1.12,1.91l-1.69 1.1 -0.48 0.31 -1.1 0.71 -2.75 0 0 1.15 3.46 0 1.1 -0.71 2.18 -1.41z"/>
    <path fill="#F76672" d="M16.51 20.15l-1.86 -0.61c-0.62,0.66 -0.92,1.96 -0.52,2.81l1.74 0 0.46 0c-0.67,0 -0.99,-0.6 -0.92,-1.17 0.06,-0.5 0.42,-0.97 1.1,-1.03z"/>
    <g clip-path="url(#id35)">
     <g>
      <polygon id="1" fill="white" fill-opacity="0.600000" points="-8.01,-1.99 57.01,-1.99 57.01,51 -8.01,51 "/>
     </g>
    </g>
    <path fill="none" d="M16.51 20.15l-1.86 -0.61c-0.62,0.66 -0.92,1.96 -0.52,2.81l1.74 0 0.46 0c-0.67,0 -0.99,-0.6 -0.92,-1.17 0.06,-0.5 0.42,-0.97 1.1,-1.03z"/>
    <path fill="black" fill-rule="nonzero" d="M45.49 19.66l-9.68 0 0 -1.33c0,-0.58 0.47,-1.06 1.06,-1.06l7.56 0c0.58,0 1.06,0.48 1.06,1.06l0 1.33zm0 2.7l-9.68 0 0 -1.39 9.68 0 0 1.39zm0 3.61c0,0.59 -0.48,1.06 -1.06,1.06l-8.62 0 0 -3.37 9.68 0 0 2.31zm-6.26 13.54l-9.85 0 -0.94 0c0.32,-2.96 2.79,-5.26 5.78,-5.26 2.63,0 4.83,1.73 5.56,4.15 0,0.01 0,0.02 0.01,0.02 0.1,0.35 0.17,0.71 0.21,1.09l-0.77 0zm-4.93 4.76c-2.04,0 -3.76,-1.47 -4.18,-3.46l8.36 0c-0.41,1.99 -2.14,3.46 -4.18,3.46zm-16.89 -4.77c-0.24,-0.55 -0.47,-1.11 -0.69,-1.66l6.78 0c0.88,0 1.32,-0.4 1.32,-1.19l0 -2.33 0 -2.46 5.16 0c0.36,0 0.65,-0.3 0.65,-0.66 0,-0.36 -0.29,-0.65 -0.65,-0.65l-5.15 0c0.01,-0.37 0.03,-0.67 0.1,-0.85 0.03,-0.09 0.06,-0.17 0.42,-0.17l2.34 0c1.47,0 2.52,-0.36 3.22,-1.09 0.03,-0.03 0.06,-0.06 0.09,-0.1l4.15 0 4.67 0 0 1.8c0,0.22 -0.19,0.41 -0.41,0.41l-6.5 0c-0.36,0 -0.66,0.29 -0.66,0.65 0,0.36 0.3,0.66 0.66,0.66l6.12 0c0.51,0.95 0.98,2.15 0.95,4.03 -1.29,-1.79 -3.39,-2.95 -5.76,-2.95 -1.91,0 -3.7,0.75 -5.04,2.11 -1.19,1.2 -1.9,2.77 -2.05,4.46l-9.72 -0.01zm-1.08 -16.5l5.8 0c0.13,0 0.25,-0.03 0.36,-0.1l0.3 -0.19c0.14,0.63 0.3,1.24 0.48,1.81 -1.34,0.4 -3.45,1.67 -3.45,5.77l0 3.44c-0.46,0.1 -1,0.31 -1.45,0.78 -0.48,0.5 -0.76,1.18 -0.82,2.02l-1.32 0c-1.33,-3.82 -1.83,-7.89 0.1,-13.53zm-1.31 -2.65c-0.2,0.32 -0.29,0.7 -0.27,1.07 0,0.09 0.01,0.18 0.03,0.27 0,0 0,0.01 0,0.01l-3.17 0 0 -2.48 3.41 1.12c0,0.01 0,0.01 0,0.01zm1.55 0.45l1.45 -0.12 0 1.02 -1.69 0c-0.22,0 -0.27,-0.18 -0.28,-0.34 0,-0.08 0.01,-0.52 0.52,-0.56zm2.76 -0.22l1.54 -0.13c0.14,-0.01 0.27,-0.06 0.38,-0.15l2.79 -2.4 0 -0.01c0.27,-0.23 0.56,-0.35 0.84,-0.35 0.12,0 0.25,0.03 0.37,0.07 0.34,0.14 0.59,0.46 0.62,0.81 0.04,0.44 -0.25,0.89 -0.82,1.26l-3.11 2.02 -2.61 0 0 -1.12 0 0zm0.84 -10.1c0,-0.26 0.03,-0.51 0.09,-0.75l3.5 0c0.04,0 0.07,0.01 0.09,0.01 0.01,0.03 0.01,0.06 0.01,0.11l0 3.82c-0.15,0.02 -0.31,0.03 -0.47,0.03l0 0c-1.78,0 -3.22,-1.44 -3.22,-3.22zm-0.98 -2.06c0.3,-2.08 2.06,-3.69 4.18,-3.69 2.34,0 4.24,1.95 4.24,4.35 0,1.94 -0.94,3.51 -2.44,4.21l0 -3.44c0,-0.6 -0.23,-1.33 -1.31,-1.43 -0.02,0 -0.05,0 -0.07,0l-4.6 0zm11.33 15.94l-5.94 0c-0.23,-0.75 -0.45,-1.57 -0.62,-2.41l1.8 -1.18c0.99,-0.64 1.5,-1.54 1.41,-2.48 -0.08,-0.83 -0.65,-1.57 -1.44,-1.89 -0.72,-0.29 -1.5,-0.2 -2.19,0.24 0.06,-0.62 0.16,-1.18 0.32,-1.65 0.27,-0.03 0.55,-0.09 0.82,-0.17 0.55,-0.12 1.06,-0.33 1.53,-0.6 1.25,0.75 4.02,3.19 4.31,10.14zm-7 10.61l0 1.56 -0.02 0 -4.64 0c0.05,-0.48 0.2,-0.85 0.45,-1.11 0.37,-0.39 0.89,-0.45 1.16,-0.45l3.05 0zm0.19 -5.74c-0.19,0.5 -0.19,1.12 -0.19,1.97l0 2.47 -2.39 0 0 -3.38c0,-3.83 2.08,-4.51 3.02,-4.62l6.4 0c-0.02,0.87 -0.22,1.48 -0.59,1.87 -0.43,0.46 -1.17,0.68 -2.27,0.69l-2.34 0c-0.84,0 -1.39,0.34 -1.64,1zm-9.87 11.39l-10.16 -2.34c0.78,-2.15 2.9,-3.57 5.2,-3.45l4.98 5.57c-0.01,0.07 -0.01,0.14 -0.02,0.22zm-3.27 2.6c-0.83,0.52 -1.82,0.69 -2.78,0.47l0 0c-1.77,-0.41 -2.95,-2.03 -2.86,-3.78l7.08 1.63c-0.29,0.69 -0.79,1.27 -1.44,1.68zm33.86 -27.26l-7.56 0c-1.31,0 -2.37,1.06 -2.37,2.37l0 8.7 -2.83 0c0.16,-0.57 0.22,-1.24 0.18,-2.03l0 0c-0.06,-3.31 -0.66,-6.1 -1.79,-8.3 -0.87,-1.7 -1.89,-2.72 -2.77,-3.34 1.03,-1.05 1.62,-2.55 1.62,-4.28 0,-3.12 -2.48,-5.66 -5.54,-5.66 -3.05,0 -5.54,2.54 -5.54,5.66 0,0.36 0.29,0.65 0.66,0.65l0.44 0c-0.04,0.25 -0.06,0.5 -0.06,0.75 0,2.2 1.57,4.03 3.64,4.44 -0.22,0.81 -0.32,1.76 -0.32,2.85l-1.63 1.4 -3.97 0.32 -4.57 -1.51c-0.42,-0.14 -0.89,-0.3 -1.31,0 -0.4,0.29 -0.4,0.8 -0.4,0.97l0 3.4c0,0.36 0.29,0.65 0.65,0.65l0.78 0 -1.19 4.12c-0.1,0.35 0.1,0.71 0.44,0.81 0.35,0.11 0.71,-0.1 0.81,-0.44l1.3 -4.49 1.86 0c-2.31,7.05 -1,11.75 1.03,16.51l-1.18 0 -4.89 -5.47 1.04 -3.57c0.1,-0.35 -0.1,-0.71 -0.45,-0.81 -0.34,-0.1 -0.71,0.1 -0.81,0.44l-0.99 3.42c-3.05,-0.05 -5.79,2.06 -6.49,5.09 -0.01,0.05 -0.01,0.1 -0.01,0.15 0,0.3 0.2,0.57 0.5,0.64l0.93 0.21c-0.24,2.46 1.38,4.78 3.85,5.35 0.38,0.09 0.76,0.13 1.13,0.13 0.93,0 1.84,-0.26 2.65,-0.77 0.94,-0.59 1.65,-1.46 2.03,-2.49l0.73 0.17c0.22,0.05 0.42,0.08 0.63,-0.04 0.19,-0.1 0.32,-0.29 0.37,-0.5 0.04,-0.21 0.08,-0.43 0.1,-0.65l13.66 0c0.44,2.72 2.75,4.77 5.51,4.77 2.76,0 5.07,-2.05 5.51,-4.77l0.5 0 0.06 0c0.02,0 0.04,0 0.06,0 0.19,0 0.46,-0.02 0.68,-0.24 0.11,-0.12 0.24,-0.32 0.23,-0.64 -0.02,-0.61 -0.11,-1.2 -0.27,-1.77 0.52,-3.16 0.02,-5.08 -0.72,-6.59 0.47,-0.3 0.78,-0.83 0.78,-1.43l0 -1.8 3.3 0c1.3,0 2.36,-1.06 2.36,-2.37l0 -7.64c0,-1.31 -1.06,-2.37 -2.36,-2.37z"/>
    <g clip-path="url(#id36)">
     <g>
      <polygon id="1" fill="white" fill-opacity="0.600000" points="-8.01,-1.99 57.01,-1.99 57.01,51 -8.01,51 "/>
     </g>
    </g>
    <path fill="none" fill-rule="nonzero" d="M45.49 19.66l-9.68 0 0 -1.33c0,-0.58 0.47,-1.06 1.06,-1.06l7.56 0c0.58,0 1.06,0.48 1.06,1.06l0 1.33zm0 2.7l-9.68 0 0 -1.39 9.68 0 0 1.39zm0 3.61c0,0.59 -0.48,1.06 -1.06,1.06l-8.62 0 0 -3.37 9.68 0 0 2.31zm-6.26 13.54l-9.85 0 -0.94 0c0.32,-2.96 2.79,-5.26 5.78,-5.26 2.63,0 4.83,1.73 5.56,4.15 0,0.01 0,0.02 0.01,0.02 0.1,0.35 0.17,0.71 0.21,1.09l-0.77 0zm-4.93 4.76c-2.04,0 -3.76,-1.47 -4.18,-3.46l8.36 0c-0.41,1.99 -2.14,3.46 -4.18,3.46zm-16.89 -4.77c-0.24,-0.55 -0.47,-1.11 -0.69,-1.66l6.78 0c0.88,0 1.32,-0.4 1.32,-1.19l0 -2.33 0 -2.46 5.16 0c0.36,0 0.65,-0.3 0.65,-0.66 0,-0.36 -0.29,-0.65 -0.65,-0.65l-5.15 0c0.01,-0.37 0.03,-0.67 0.1,-0.85 0.03,-0.09 0.06,-0.17 0.42,-0.17l2.34 0c1.47,0 2.52,-0.36 3.22,-1.09 0.03,-0.03 0.06,-0.06 0.09,-0.1l4.15 0 4.67 0 0 1.8c0,0.22 -0.19,0.41 -0.41,0.41l-6.5 0c-0.36,0 -0.66,0.29 -0.66,0.65 0,0.36 0.3,0.66 0.66,0.66l6.12 0c0.51,0.95 0.98,2.15 0.95,4.03 -1.29,-1.79 -3.39,-2.95 -5.76,-2.95 -1.91,0 -3.7,0.75 -5.04,2.11 -1.19,1.2 -1.9,2.77 -2.05,4.46l-9.72 -0.01zm-1.08 -16.5l5.8 0c0.13,0 0.25,-0.03 0.36,-0.1l0.3 -0.19c0.14,0.63 0.3,1.24 0.48,1.81 -1.34,0.4 -3.45,1.67 -3.45,5.77l0 3.44c-0.46,0.1 -1,0.31 -1.45,0.78 -0.48,0.5 -0.76,1.18 -0.82,2.02l-1.32 0c-1.33,-3.82 -1.83,-7.89 0.1,-13.53zm-1.31 -2.65c-0.2,0.32 -0.29,0.7 -0.27,1.07 0,0.09 0.01,0.18 0.03,0.27 0,0 0,0.01 0,0.01l-3.17 0 0 -2.48 3.41 1.12c0,0.01 0,0.01 0,0.01zm1.55 0.45l1.45 -0.12 0 1.02 -1.69 0c-0.22,0 -0.27,-0.18 -0.28,-0.34 0,-0.08 0.01,-0.52 0.52,-0.56zm2.76 -0.22l1.54 -0.13c0.14,-0.01 0.27,-0.06 0.38,-0.15l2.79 -2.4 0 -0.01c0.27,-0.23 0.56,-0.35 0.84,-0.35 0.12,0 0.25,0.03 0.37,0.07 0.34,0.14 0.59,0.46 0.62,0.81 0.04,0.44 -0.25,0.89 -0.82,1.26l-3.11 2.02 -2.61 0 0 -1.12 0 0zm0.84 -10.1c0,-0.26 0.03,-0.51 0.09,-0.75l3.5 0c0.04,0 0.07,0.01 0.09,0.01 0.01,0.03 0.01,0.06 0.01,0.11l0 3.82c-0.15,0.02 -0.31,0.03 -0.47,0.03l0 0c-1.78,0 -3.22,-1.44 -3.22,-3.22zm-0.98 -2.06c0.3,-2.08 2.06,-3.69 4.18,-3.69 2.34,0 4.24,1.95 4.24,4.35 0,1.94 -0.94,3.51 -2.44,4.21l0 -3.44c0,-0.6 -0.23,-1.33 -1.31,-1.43 -0.02,0 -0.05,0 -0.07,0l-4.6 0zm11.33 15.94l-5.94 0c-0.23,-0.75 -0.45,-1.57 -0.62,-2.41l1.8 -1.18c0.99,-0.64 1.5,-1.54 1.41,-2.48 -0.08,-0.83 -0.65,-1.57 -1.44,-1.89 -0.72,-0.29 -1.5,-0.2 -2.19,0.24 0.06,-0.62 0.16,-1.18 0.32,-1.65 0.27,-0.03 0.55,-0.09 0.82,-0.17 0.55,-0.12 1.06,-0.33 1.53,-0.6 1.25,0.75 4.02,3.19 4.31,10.14zm-7 10.61l0 1.56 -0.02 0 -4.64 0c0.05,-0.48 0.2,-0.85 0.45,-1.11 0.37,-0.39 0.89,-0.45 1.16,-0.45l3.05 0zm0.19 -5.74c-0.19,0.5 -0.19,1.12 -0.19,1.97l0 2.47 -2.39 0 0 -3.38c0,-3.83 2.08,-4.51 3.02,-4.62l6.4 0c-0.02,0.87 -0.22,1.48 -0.59,1.87 -0.43,0.46 -1.17,0.68 -2.27,0.69l-2.34 0c-0.84,0 -1.39,0.34 -1.64,1zm-9.87 11.39l-10.16 -2.34c0.78,-2.15 2.9,-3.57 5.2,-3.45l4.98 5.57c-0.01,0.07 -0.01,0.14 -0.02,0.22zm-3.27 2.6c-0.83,0.52 -1.82,0.69 -2.78,0.47l0 0c-1.77,-0.41 -2.95,-2.03 -2.86,-3.78l7.08 1.63c-0.29,0.69 -0.79,1.27 -1.44,1.68zm33.86 -27.26l-7.56 0c-1.31,0 -2.37,1.06 -2.37,2.37l0 8.7 -2.83 0c0.16,-0.57 0.22,-1.24 0.18,-2.03l0 0c-0.06,-3.31 -0.66,-6.1 -1.79,-8.3 -0.87,-1.7 -1.89,-2.72 -2.77,-3.34 1.03,-1.05 1.62,-2.55 1.62,-4.28 0,-3.12 -2.48,-5.66 -5.54,-5.66 -3.05,0 -5.54,2.54 -5.54,5.66 0,0.36 0.29,0.65 0.66,0.65l0.44 0c-0.04,0.25 -0.06,0.5 -0.06,0.75 0,2.2 1.57,4.03 3.64,4.44 -0.22,0.81 -0.32,1.76 -0.32,2.85l-1.63 1.4 -3.97 0.32 -4.57 -1.51c-0.42,-0.14 -0.89,-0.3 -1.31,0 -0.4,0.29 -0.4,0.8 -0.4,0.97l0 3.4c0,0.36 0.29,0.65 0.65,0.65l0.78 0 -1.19 4.12c-0.1,0.35 0.1,0.71 0.44,0.81 0.35,0.11 0.71,-0.1 0.81,-0.44l1.3 -4.49 1.86 0c-2.31,7.05 -1,11.75 1.03,16.51l-1.18 0 -4.89 -5.47 1.04 -3.57c0.1,-0.35 -0.1,-0.71 -0.45,-0.81 -0.34,-0.1 -0.71,0.1 -0.81,0.44l-0.99 3.42c-3.05,-0.05 -5.79,2.06 -6.49,5.09 -0.01,0.05 -0.01,0.1 -0.01,0.15 0,0.3 0.2,0.57 0.5,0.64l0.93 0.21c-0.24,2.46 1.38,4.78 3.85,5.35 0.38,0.09 0.76,0.13 1.13,0.13 0.93,0 1.84,-0.26 2.65,-0.77 0.94,-0.59 1.65,-1.46 2.03,-2.49l0.73 0.17c0.22,0.05 0.42,0.08 0.63,-0.04 0.19,-0.1 0.32,-0.29 0.37,-0.5 0.04,-0.21 0.08,-0.43 0.1,-0.65l13.66 0c0.44,2.72 2.75,4.77 5.51,4.77 2.76,0 5.07,-2.05 5.51,-4.77l0.5 0 0.06 0c0.02,0 0.04,0 0.06,0 0.19,0 0.46,-0.02 0.68,-0.24 0.11,-0.12 0.24,-0.32 0.23,-0.64 -0.02,-0.61 -0.11,-1.2 -0.27,-1.77 0.52,-3.16 0.02,-5.08 -0.72,-6.59 0.47,-0.3 0.78,-0.83 0.78,-1.43l0 -1.8 3.3 0c1.3,0 2.36,-1.06 2.36,-2.37l0 -7.64c0,-1.31 -1.06,-2.37 -2.36,-2.37z"/>
    <polygon fill="black" points="29.31,30.55 33.8,30.55 33.8,31.86 29.31,31.86 "/>
    <g clip-path="url(#id37)">
     <g>
      <polygon id="1" fill="white" fill-opacity="0.600000" points="-8.01,-1.99 57.01,-1.99 57.01,51 -8.01,51 "/>
     </g>
    </g>
    <polygon fill="none" points="29.31,30.55 33.8,30.55 33.8,31.86 29.31,31.86 "/>
    <path fill="black" d="M11.43 26.44c0.07,-0.08 0.6,0.26 0.6,0.26l-1.31 4.6 -1.17 -0.66 1.15 -4.05 0.73 -0.15z"/>
    <g clip-path="url(#id38)">
     <g>
      <polygon id="1" fill="white" fill-opacity="0.600000" points="-8.01,-1.99 57.01,-1.99 57.01,51 -8.01,51 "/>
     </g>
    </g>
    <path fill="none" d="M11.43 26.44c0.07,-0.08 0.6,0.26 0.6,0.26l-1.31 4.6 -1.17 -0.66 1.15 -4.05 0.73 -0.15z"/>
   </g>
  </g>
 </g>
</svg>
