<svg width="28" height="44" viewBox="0 0 28 44" fill="none" xmlns="http://www.w3.org/2000/svg">
<path fill-rule="evenodd" clip-rule="evenodd" d="M25.4957 41.6364L25.4957 41.6364C24.8125 40.2701 22.9916 39.9745 21.9113 41.0547L20.5967 42.3694C20.5037 42.4623 20.353 42.4623 20.26 42.3694L18.6062 40.7155C17.7322 39.8415 16.3151 39.8415 15.4411 40.7155L13.7872 42.3694C13.6943 42.4623 13.5435 42.4623 13.4506 42.3694L11.7967 40.7155C10.9227 39.8415 9.50563 39.8415 8.63163 40.7155L6.97778 42.3694C6.88483 42.4623 6.73407 42.4623 6.64112 42.3694L5.32645 41.0547C4.24623 39.9745 2.42527 40.2701 1.7421 41.6364L1.74208 41.6364L1.45105 42.2185L1.45103 42.2185C1.41087 42.2988 1.36942 42.3237 1.34186 42.3353C1.30449 42.3512 1.24821 42.359 1.18339 42.3437C1.11857 42.3284 1.07173 42.2963 1.0454 42.2654C1.02598 42.2426 1 42.2018 1 42.112V1H26.2378V42.112C26.2378 42.2018 26.2118 42.2426 26.1924 42.2654C26.1661 42.2963 26.1192 42.3284 26.0544 42.3437C25.9896 42.359 25.9333 42.3512 25.8959 42.3353C25.8684 42.3237 25.8269 42.2988 25.7868 42.2185L25.7867 42.2185L25.4957 41.6364ZM27.2378 0H26.2378H1H0V1V42.112C0 43.4185 1.76119 43.8342 2.34547 42.6657L2.63651 42.0836C3.01446 41.3277 4.0218 41.1642 4.61934 41.7618L5.93401 43.0765C6.41748 43.5599 7.20141 43.5599 7.68489 43.0765L9.33873 41.4226C9.82221 40.9391 10.6061 40.9391 11.0896 41.4226L12.7435 43.0765C13.2269 43.5599 14.0109 43.5599 14.4943 43.0765L16.1482 41.4226C16.6317 40.9391 17.4156 40.9391 17.8991 41.4226L19.5529 43.0765C20.0364 43.5599 20.8203 43.5599 21.3038 43.0765L22.6184 41.7618C23.216 41.1642 24.2233 41.3277 24.6013 42.0836L24.8923 42.6657C25.4766 43.8342 27.2378 43.4185 27.2378 42.112V1V0ZM14.4761 4.33344C14.4761 4.80682 14.0924 5.19056 13.619 5.19056C13.1456 5.19056 12.7619 4.80682 12.7619 4.33344C12.7619 3.86007 13.1456 3.47632 13.619 3.47632C14.0924 3.47632 14.4761 3.86007 14.4761 4.33344ZM15.4761 4.33344C15.4761 5.3591 14.6447 6.19056 13.619 6.19056C12.5933 6.19056 11.7619 5.3591 11.7619 4.33344C11.7619 3.30778 12.5933 2.47632 13.619 2.47632C14.6447 2.47632 15.4761 3.30778 15.4761 4.33344Z" fill="black"/>
</svg>
