<?xml version="1.0" encoding="UTF-8"?>
<!DOCTYPE svg PUBLIC "-//W3C//DTD SVG 1.1//EN" "http://www.w3.org/Graphics/SVG/1.1/DTD/svg11.dtd">
<!-- Creator: CorelDRAW 2018 (64-Bit) -->
<svg xmlns="http://www.w3.org/2000/svg" xml:space="preserve" width="49px" height="49px" version="1.1" shape-rendering="geometricPrecision" text-rendering="geometricPrecision" image-rendering="optimizeQuality" fill-rule="evenodd" clip-rule="evenodd"
viewBox="0 0 49 49"
 xmlns:xlink="http://www.w3.org/1999/xlink">
 <g id="Layer_x0020_1">
  <metadata id="CorelCorpID_0Corel-Layer"/>
  <g id="_1774660202048">
   <path fill="#DFEEF4" fill-rule="nonzero" d="M42.4 32.86l-12.43 0c-1.66,2.64 -3.49,5.17 -5.47,7.57 -1.98,-2.4 -3.81,-4.93 -5.47,-7.57l-12.43 0 -5.88 15.42 47.56 0 -5.88 -15.42z"/>
   <path fill="#F45858" fill-rule="nonzero" d="M24.5 18.75c-2.97,0 -5.37,-2.41 -5.37,-5.37 0,-2.97 2.4,-5.37 5.37,-5.37 2.97,0 5.37,2.4 5.37,5.37 0,2.96 -2.4,5.37 -5.37,5.37l0 0zm0 -18.03c-6.99,0 -12.66,5.67 -12.66,12.66 -0.07,12.08 12.66,27.05 12.66,27.05 0,0 12.73,-14.97 12.66,-27.05 0,-6.99 -5.67,-12.66 -12.66,-12.66z"/>
   <path fill="#F2DA30" fill-rule="nonzero" d="M43.77 36.44l-23.74 8.44 -9.25 -12.02 8.25 0c1.66,2.64 3.49,5.17 5.47,7.57 1.98,-2.4 3.8,-4.93 5.47,-7.57l12.43 0 1.37 3.58z"/>
   <polygon fill="#3EA2E5" fill-rule="nonzero" points="10.47,48.28 33.96,39.92 40.39,48.28 "/>
   <path fill="black" fill-rule="nonzero" d="M34.7 7.16c0.21,0.34 0.65,0.45 0.99,0.24 0.33,-0.21 0.44,-0.65 0.24,-0.99 -0.38,-0.62 -0.81,-1.2 -1.28,-1.75 -0.27,-0.3 -0.72,-0.33 -1.02,-0.06 -0.29,0.26 -0.32,0.7 -0.07,1 0.42,0.49 0.8,1.01 1.14,1.56z"/>
   <path fill="black" fill-rule="nonzero" d="M29.15 13.38c0,2.57 -2.08,4.65 -4.65,4.65 -2.57,0 -4.65,-2.09 -4.65,-4.65 0,-2.57 2.08,-4.65 4.65,-4.65 2.57,0 4.65,2.08 4.65,4.65zm-10.74 0c0,3.36 2.73,6.09 6.09,6.09 3.37,0 6.09,-2.73 6.09,-6.09 0,-3.37 -2.73,-6.09 -6.09,-6.09 -3.36,0 -6.09,2.73 -6.09,6.09z"/>
   <path fill="black" fill-rule="nonzero" d="M5.56 37.6l-3.12 8.2 -0.01 0.01 -0.66 1.75 8.57 0 8.51 -3.03 -8.42 -10.95 -3.33 0 -1.52 3.97c0,0.02 -0.01,0.04 -0.02,0.05zm9.09 9.96l19.7 0 4.58 0 -5.22 -6.78 -13.45 4.78 0 0 -5.61 2zm32.58 0l-0.62 -1.64 -0.04 -0.11 -0.01 -0.01 -3.12 -8.2c-0.01,-0.01 -0.01,-0.02 -0.02,-0.03l-0.08 -0.22 -8.2 2.92 5.61 7.29 6.48 0zm0.68 -2.28l0 0.01 0.76 1.99 0.28 0.74c0.03,0.08 0.05,0.15 0.05,0.23l0 0 0 0.02 0 0 0 0 0 0 0 0.01 0 0 0 0.01 0 0.01 0 0.01 0 0.01 0 0c-0.01,0.17 -0.08,0.32 -0.18,0.44l0 0 -0.01 0.01 -0.01 0.01 0 0.01 -0.01 0 -0.01 0.01 0 0 -0.01 0.01 0 0 -0.01 0.01 -0.01 0.01 0 0 -0.01 0.01c-0.11,0.09 -0.25,0.15 -0.41,0.16l0 0 -0.01 0 0 0 0 0 -0.01 0 0 0 0 0 -0.01 0 0 0 0 0 -0.02 0 0 0 -47.56 0 0 0c-0.01,0 -0.01,0 -0.02,0l0 0 0 0 -0.01 0 0 0 0 0 -0.01 0 0 0 0 0 -0.01 0 0 0c-0.16,-0.01 -0.3,-0.07 -0.41,-0.16l-0.01 -0.01 0 0 -0.01 -0.01 -0.01 -0.01 0 0 -0.01 -0.01 -0.01 0 0 -0.01 -0.01 0 -0.01 -0.01 0 -0.01 -0.01 -0.01 0 0c-0.1,-0.12 -0.17,-0.27 -0.18,-0.44l0 0 0 -0.01 0 -0.01 0 -0.01 0 -0.01 0 0 0 -0.01 0 0 0 0 0 0 0 -0.02 0 0c0,-0.08 0.02,-0.15 0.04,-0.23l0.29 -0.74 0.76 -1.99 0 -0.01 3.56 -9.34 1.28 -3.34c0.1,-0.28 0.37,-0.46 0.67,-0.46l11.13 0c-0.07,-0.11 -0.14,-0.22 -0.2,-0.33 -3.95,-6.54 -6.09,-12.32 -6.38,-17.21l0 0c0,-0.08 -0.01,-0.16 -0.01,-0.24 -0.02,-0.33 -0.02,-0.66 -0.02,-0.99 0,-0.13 0,-0.27 0,-0.41 0.01,-0.03 0.01,-0.06 0.01,-0.09l0 -0.02c0.04,-1.13 0.23,-2.24 0.55,-3.33 0.01,-0.02 0.02,-0.04 0.02,-0.06 0.41,-1.33 1.03,-2.61 1.85,-3.77 1.19,-1.7 2.71,-3.04 4.41,-3.99 1.93,-1.08 4.04,-1.64 6.13,-1.7l0.03 0c0.08,0 0.16,0 0.25,0 0.04,0 0.09,0 0.13,0 0.04,0 0.09,0 0.13,0 0.08,0 0.17,0 0.25,0l0.02 0c2.1,0.06 4.21,0.62 6.13,1.7 1.71,0.95 3.23,2.29 4.42,3.99 0.82,1.16 1.44,2.44 1.85,3.77 0,0.02 0.01,0.04 0.02,0.06 0.32,1.09 0.51,2.2 0.55,3.33l0 0.02c0,0.03 0,0.06 0,0.09 0.01,0.14 0.01,0.28 0.01,0.41 0,0.33 0,0.66 -0.02,0.99 0,0.08 -0.01,0.16 -0.01,0.24l0 0c-0.29,4.89 -2.43,10.67 -6.38,17.21 -0.06,0.11 -0.13,0.22 -0.2,0.33l11.13 0c0.3,0 0.57,0.18 0.67,0.46l1.28 3.34 3.56 9.34zm-34.84 -35.35l0 0.01c-0.12,0.38 -0.21,0.77 -0.29,1.16l0 0.02c-0.02,0.08 -0.03,0.16 -0.05,0.24 0,0.04 -0.01,0.07 -0.02,0.11 0,0.06 -0.01,0.11 -0.02,0.17 -0.01,0.05 -0.02,0.1 -0.02,0.15 -0.01,0.04 -0.01,0.08 -0.02,0.12 -0.01,0.07 -0.01,0.14 -0.02,0.2 0,0.03 -0.01,0.06 -0.01,0.09 -0.01,0.07 -0.02,0.15 -0.02,0.23l-0.01 0.06c0,0.08 -0.01,0.17 -0.01,0.25l0 0.05c-0.01,0.08 -0.01,0.17 -0.01,0.25l-0.01 0.06c0,0.08 0,0.16 0,0.24l0 0.05c0,0.02 0,0.05 0,0.08 0,0.11 0,0.21 0,0.32 0,0.05 0.01,0.1 0.01,0.15 0,0.12 0.01,0.24 0.01,0.36 0,0.02 0,0.04 0,0.06 0.01,0.14 0.02,0.28 0.03,0.42 0,0.04 0.01,0.08 0.01,0.11 0.01,0.14 0.02,0.29 0.04,0.43l0 0.01c0.01,0.15 0.03,0.3 0.05,0.45l0.01 0.08c0.04,0.31 0.09,0.62 0.14,0.92l0.01 0.07c0.06,0.31 0.12,0.62 0.18,0.94l0.02 0.05c0.07,0.32 0.14,0.63 0.22,0.95l0.02 0.06c0.08,0.31 0.17,0.63 0.26,0.94l0.02 0.07c0.04,0.15 0.09,0.3 0.13,0.45l0.01 0.02c0.05,0.15 0.1,0.3 0.15,0.46l0.03 0.09c0.04,0.14 0.09,0.27 0.13,0.4 0.01,0.02 0.02,0.04 0.03,0.07 0.05,0.14 0.1,0.28 0.15,0.43 0.01,0.04 0.03,0.08 0.05,0.13 0.04,0.11 0.08,0.22 0.12,0.33 0.01,0.04 0.03,0.08 0.04,0.12 0.06,0.13 0.11,0.26 0.16,0.4 0.02,0.06 0.04,0.11 0.07,0.17 0.03,0.09 0.07,0.18 0.1,0.27 0.03,0.06 0.05,0.12 0.08,0.18 0.05,0.12 0.1,0.24 0.14,0.35 0.04,0.08 0.07,0.15 0.1,0.22 0.03,0.07 0.05,0.13 0.08,0.19 0.06,0.14 0.12,0.28 0.18,0.42 0.02,0.05 0.04,0.09 0.07,0.14 0.04,0.09 0.08,0.18 0.12,0.27l0.05 0.11c0.14,0.3 0.28,0.6 0.42,0.9l0.01 0.02c1.35,2.79 2.91,5.39 4.35,7.58l0 0c1.76,2.67 3.34,4.72 4.14,5.72 1.63,-2.04 6.48,-8.41 9.47,-15.47l0.01 -0.02c0.13,-0.31 0.26,-0.63 0.39,-0.95l0.02 -0.06c0.06,-0.15 0.12,-0.31 0.18,-0.46l0.01 -0.03c0.06,-0.14 0.11,-0.28 0.16,-0.43l0.04 -0.09c0.05,-0.15 0.1,-0.3 0.16,-0.45l0.01 -0.05c0.05,-0.13 0.09,-0.26 0.14,-0.39 0.01,-0.04 0.02,-0.09 0.04,-0.13 0.04,-0.14 0.09,-0.28 0.13,-0.43 0.01,-0.02 0.02,-0.05 0.03,-0.08 0.04,-0.12 0.07,-0.24 0.11,-0.36 0.01,-0.04 0.03,-0.09 0.04,-0.14 0.04,-0.14 0.08,-0.28 0.12,-0.42 0.01,-0.03 0.02,-0.07 0.03,-0.11 0.03,-0.11 0.06,-0.21 0.09,-0.32 0.01,-0.06 0.03,-0.11 0.04,-0.16 0.03,-0.13 0.06,-0.25 0.09,-0.38 0.01,-0.05 0.03,-0.1 0.04,-0.15 0.02,-0.11 0.05,-0.21 0.07,-0.31 0.01,-0.06 0.02,-0.12 0.03,-0.17 0.03,-0.12 0.06,-0.25 0.08,-0.37 0.01,-0.04 0.02,-0.09 0.03,-0.14 0.02,-0.11 0.04,-0.22 0.06,-0.33 0.01,-0.05 0.02,-0.1 0.03,-0.16 0.02,-0.12 0.04,-0.25 0.06,-0.37 0,-0.04 0.01,-0.08 0.01,-0.12 0.02,-0.11 0.04,-0.23 0.05,-0.35 0.01,-0.05 0.02,-0.1 0.02,-0.14 0.02,-0.14 0.03,-0.27 0.05,-0.41l0 -0.05c0.02,-0.13 0.03,-0.27 0.04,-0.4 0,-0.04 0.01,-0.07 0.01,-0.11 0.02,-0.3 0.04,-0.59 0.04,-0.89l0 -0.06c0.01,-0.15 0.01,-0.3 0.01,-0.45l0 -0.05c0,-0.08 0,-0.16 0,-0.24l-0.01 -0.06c0,-0.08 0,-0.17 -0.01,-0.25l0 -0.05c0,-0.08 -0.01,-0.17 -0.01,-0.25l-0.01 -0.06c-0.01,-0.08 -0.01,-0.16 -0.02,-0.23 0,-0.03 -0.01,-0.06 -0.01,-0.09 -0.01,-0.06 -0.01,-0.13 -0.02,-0.2 -0.01,-0.04 -0.01,-0.08 -0.02,-0.12 0,-0.05 -0.01,-0.1 -0.02,-0.15 -0.01,-0.06 -0.02,-0.11 -0.02,-0.17 -0.01,-0.04 -0.02,-0.07 -0.02,-0.11 -0.02,-0.08 -0.03,-0.16 -0.05,-0.24l0 -0.02c-0.08,-0.39 -0.17,-0.78 -0.29,-1.16l0 -0.01c-0.88,-2.93 -2.86,-5.39 -5.46,-6.89 -0.02,-0.01 -0.04,-0.03 -0.06,-0.04 -0.06,-0.03 -0.11,-0.06 -0.16,-0.08 -0.05,-0.03 -0.1,-0.06 -0.15,-0.08l-0.03 -0.02c-1.3,-0.68 -2.7,-1.12 -4.16,-1.3 -0.04,0 -0.08,0 -0.11,-0.01 -0.05,0 -0.09,-0.01 -0.14,-0.01 -0.07,-0.01 -0.14,-0.02 -0.2,-0.02 -0.03,0 -0.06,-0.01 -0.08,-0.01 -0.08,0 -0.17,-0.01 -0.25,-0.01l-0.03 0c-0.1,-0.01 -0.19,-0.01 -0.29,-0.02l-0.02 0c-0.09,0 -0.19,0 -0.29,0 -0.1,0 -0.2,0 -0.3,0l-0.01 0c-0.1,0.01 -0.19,0.01 -0.29,0.02l-0.03 0c-0.08,0 -0.17,0.01 -0.25,0.01 -0.03,0 -0.05,0.01 -0.08,0.01 -0.07,0 -0.13,0.01 -0.2,0.02 -0.05,0 -0.09,0.01 -0.14,0.01 -0.04,0.01 -0.08,0.01 -0.11,0.01 -1.46,0.18 -2.86,0.62 -4.16,1.3l-0.03 0.02c-0.05,0.02 -0.1,0.05 -0.15,0.08 -0.05,0.02 -0.1,0.05 -0.16,0.08l-0.06 0.04c-2.6,1.5 -4.58,3.96 -5.46,6.89zm5.56 23.65l-3.73 0 -1.4 0 -1.25 0 8.03 10.44 22.55 -8.01 -0.93 -2.43 -3.33 0 -1.82 0 -6.38 0 0 0c-1.63,2.55 -3.41,4.99 -5.32,7.32 -0.03,0.03 -0.05,0.06 -0.08,0.08 -0.31,0.26 -0.76,0.23 -1.02,-0.08 -1.92,-2.33 -3.69,-4.77 -5.32,-7.32z"/>
  </g>
 </g>
</svg>
