<svg width="64" height="74" viewBox="0 0 64 74" fill="none" xmlns="http://www.w3.org/2000/svg">
<path d="M11.7446 23.115L2.00074 31.7766M2.00074 31.7766L11.7446 40.4382M2.00074 31.7766L28.1699 31.7766" stroke="black" stroke-width="1.5"/>
<path d="M58.2337 2.84389L43.0719 8.18095C38.6696 9.73063 35.7244 13.8897 35.7244 18.5569V63.29M20.7969 21.6405V12C20.7969 5.92487 25.7217 1 31.7969 1H51.9993C58.0744 1 62.9993 5.92486 62.9993 12V55.5451C62.9993 60.1904 60.0812 64.335 55.7078 65.9011L44.9199 69.7644C40.4403 71.3686 35.7244 68.0482 35.7244 63.29V63.29M35.7244 63.29H31.7969C25.7217 63.29 20.7969 58.3651 20.7969 52.29V42.6495" stroke="black" stroke-width="1.5"/>
</svg>
