<?xml version="1.0" encoding="UTF-8"?>
<!DOCTYPE svg PUBLIC "-//W3C//DTD SVG 1.1//EN" "http://www.w3.org/Graphics/SVG/1.1/DTD/svg11.dtd">
<!-- Creator: CorelDRAW 2018 (64-Bit) -->
<svg xmlns="http://www.w3.org/2000/svg" xml:space="preserve" width="49px" height="49px" version="1.1" shape-rendering="geometricPrecision" text-rendering="geometricPrecision" image-rendering="optimizeQuality" fill-rule="evenodd" clip-rule="evenodd"
viewBox="0 0 49 49"
 xmlns:xlink="http://www.w3.org/1999/xlink">
 <defs>
    <clipPath id="id0">
     <path d="M42.45 24.2c0.24,0.45 0.38,0.96 0.38,1.5l0 19.25c0,2.23 -1.82,4.05 -4.05,4.05l-28.56 0c-2.23,0 -4.05,-1.82 -4.05,-4.05l0 -37.64c0,-2.24 1.82,-4.05 4.05,-4.05l9.04 0c0.9,-1.81 2.72,-3.11 4.84,-3.25 1.62,-0.11 3.2,0.45 4.39,1.56 0.52,0.49 0.94,1.06 1.25,1.69l9.04 0c2.23,0 4.05,1.81 4.05,4.05l0 15.39c0,0.54 -0.14,1.05 -0.38,1.5z"/>
    </clipPath>
     <clipPath id="id1">
      <path d="M39.63 7.31l0 37.64c0,0.47 -0.38,0.86 -0.85,0.86l-28.56 0c-0.47,0 -0.85,-0.39 -0.85,-0.86l0 -37.64c0,-0.47 0.38,-0.86 0.85,-0.86l28.56 0c0.47,0 0.85,0.39 0.85,0.86l0 0z"/>
     </clipPath>
     <clipPath id="id2">
      <path d="M10.74 10.68l0 33.15c0,0.33 0.27,0.6 0.61,0.6l17.3 0c0.22,0 0.44,-0.09 0.6,-0.25l6.61 -6.6 0 -27.36 -23.41 0 -0.15 -1.04 -1.18 0.79c-0.24,0.16 -0.38,0.43 -0.38,0.71l0 0z"/>
     </clipPath>
     <clipPath id="id3">
      <path d="M37.06 9.88l0 26.49 -5.14 1.89 -1.72 4.97 -17.4 0c-0.48,0 -0.86,-0.38 -0.86,-0.85l0 -32.5c0,-0.47 0.38,-0.86 0.86,-0.86l23.4 0c0.48,0 0.86,0.39 0.86,0.86l0 0z"/>
     </clipPath>
     <clipPath id="id4">
      <path d="M37.06 36.37l-6.86 6.86 0 -6c0,-0.47 0.39,-0.86 0.86,-0.86l6 0z"/>
     </clipPath>
     <clipPath id="id5">
      <path d="M33.13 9.02l0 1.67c0,1.18 -0.96,2.14 -2.14,2.14l-12.98 0c-1.18,0 -2.14,-0.96 -2.14,-2.14l0 -1.67 17.26 0z"/>
     </clipPath>
     <clipPath id="id6">
      <path d="M15.87 6.45l17.26 0 0 2.57 -17.26 0 0 -2.57z"/>
     </clipPath>
     <clipPath id="id7">
      <path d="M31.84 6.45l0 4.24c0,0.47 -0.38,0.86 -0.85,0.86l-12.98 0c-0.47,0 -0.85,-0.39 -0.85,-0.86l0 -4.24 4.76 0c-0.07,-0.27 -0.09,-0.56 -0.06,-0.86 0.12,-1.28 1.17,-2.3 2.45,-2.39 1.55,-0.11 2.84,1.12 2.84,2.65 0,0.2 -0.02,0.41 -0.07,0.6l4.76 0z"/>
     </clipPath>
     <clipPath id="id8">
      <path d="M32.69 18.42l-9.09 0c-0.36,0 -0.64,-0.29 -0.64,-0.64 0,-0.35 0.28,-0.64 0.64,-0.64l9.09 0c0.35,0 0.64,0.29 0.64,0.64 0,0.35 -0.29,0.64 -0.64,0.64l0 0z"/>
     </clipPath>
     <clipPath id="id9">
      <path d="M32.69 25.96l-9.09 0c-0.36,0 -0.64,-0.29 -0.64,-0.65 0,-0.35 0.28,-0.64 0.64,-0.64l9.09 0c0.35,0 0.64,0.29 0.64,0.64 0,0.36 -0.29,0.65 -0.64,0.65l0 0z"/>
     </clipPath>
     <clipPath id="id10">
      <path d="M32.69 33.77l-1.5 0c-0.36,0 -0.65,-0.29 -0.65,-0.64 0,-0.36 0.29,-0.65 0.65,-0.65l1.5 0c0.35,0 0.64,0.29 0.64,0.65 0,0.35 -0.29,0.64 -0.64,0.64l0 0z"/>
     </clipPath>
     <clipPath id="id11">
      <path d="M28.19 33.77l-4.59 0c-0.36,0 -0.64,-0.29 -0.64,-0.64 0,-0.36 0.28,-0.65 0.64,-0.65l4.59 0c0.35,0 0.64,0.29 0.64,0.65 0,0.35 -0.29,0.64 -0.64,0.64l0 0z"/>
     </clipPath>
     <clipPath id="id12">
      <path d="M20.26 35.74l-3.95 0c-0.35,0 -0.64,-0.29 -0.64,-0.64l0 -3.94c0,-0.36 0.29,-0.65 0.64,-0.65l3.95 0c0.35,0 0.64,0.29 0.64,0.65l0 3.94c0,0.35 -0.29,0.64 -0.64,0.64l0 0zm-3.31 -1.28l2.66 0 0 -2.66 -2.66 0 0 2.66z"/>
     </clipPath>
     <clipPath id="id13">
      <path d="M23.6 18.42l9.09 0c0.35,0 0.64,-0.29 0.64,-0.64 0,-0.35 -0.29,-0.64 -0.64,-0.64l-9.09 0c-0.36,0 -0.64,0.29 -0.64,0.64 0,0.35 0.28,0.64 0.64,0.64l0 0z"/>
     </clipPath>
     <clipPath id="id14">
      <path d="M23.6 25.96l9.09 0c0.35,0 0.64,-0.29 0.64,-0.65 0,-0.35 -0.29,-0.64 -0.64,-0.64l-9.09 0c-0.36,0 -0.64,0.29 -0.64,0.64 0,0.36 0.28,0.65 0.64,0.65l0 0z"/>
     </clipPath>
     <clipPath id="id15">
      <path d="M23.6 33.77l1.67 0 2.92 0 3 0 0 0 1.5 0c0.35,0 0.64,-0.29 0.64,-0.64 0,-0.36 -0.29,-0.65 -0.64,-0.65l0 0 -1.29 0 0 0 -3.21 0 -2.92 0 0 0 -1.67 0c-0.36,0 -0.64,0.29 -0.64,0.65 0,0.35 0.28,0.64 0.64,0.64l0 0z"/>
     </clipPath>
     <clipPath id="id16">
      <path d="M16.31 35.74l3.95 0c0.35,0 0.64,-0.29 0.64,-0.64l0 -3.94c0,-0.36 -0.29,-0.65 -0.64,-0.65l-3.95 0c-0.35,0 -0.64,0.29 -0.64,0.65l0 3.94c0,0.35 0.29,0.64 0.64,0.64l0 0zm0.64 -3.94l2.66 0 0 2.66 -2.66 0 0 -2.66z"/>
     </clipPath>
     <clipPath id="id17">
      <path d="M39.63 23.34c0.36,0 0.65,-0.29 0.65,-0.64l0 -15.39c0,-0.83 -0.68,-1.5 -1.5,-1.5l-10.98 0c-0.02,-0.9 -0.4,-1.76 -1.05,-2.37 -0.68,-0.63 -1.56,-0.95 -2.48,-0.88 -1.69,0.11 -3.06,1.56 -3.07,3.25l-10.98 0c-0.82,0 -1.5,0.67 -1.5,1.5l0 37.64c0,0.83 0.68,1.5 1.5,1.5l28.56 0c0.82,0 1.5,-0.67 1.5,-1.5l0 -19.25c0,-0.36 -0.29,-0.64 -0.65,-0.64 -0.35,0 -0.64,0.28 -0.64,0.64l0 19.25c0,0.12 -0.1,0.21 -0.21,0.21l-28.56 0c-0.11,0 -0.21,-0.09 -0.21,-0.21l0 -37.64c0,-0.12 0.1,-0.22 0.21,-0.22l6.29 0 0 1.29 -4.57 0c-0.36,0 -0.64,0.29 -0.64,0.64l0 34.21c0,0.36 0.28,0.65 0.64,0.65l2.87 0c0.36,0 0.64,-0.29 0.64,-0.65 0,-0.35 -0.28,-0.64 -0.64,-0.64l-2.23 0 0 -32.92 3.93 0 0 1.45c0,0.59 0.49,1.07 1.08,1.07l8.68 0c0.35,0 0.64,-0.29 0.64,-0.64 0,-0.36 -0.29,-0.65 -0.64,-0.65l-8.47 0 0 -3.81 4.12 0c0.41,0.01 0.72,-0.39 0.62,-0.79 -0.29,-1.16 0.61,-2.39 1.82,-2.46 1.31,-0.13 2.43,1.19 2.1,2.46 -0.1,0.39 0.22,0.8 0.62,0.79l4.12 0 0 3.81 -1.93 0c-0.36,0 -0.64,0.29 -0.64,0.65 0,0.35 0.28,0.64 0.64,0.64l2.14 0c0.59,0 1.08,-0.48 1.08,-1.07l0 -1.45 3.93 0 0 26.06 -6.22 0c-0.35,0 -0.64,0.29 -0.64,0.64l0 6.22 -11.75 0c-0.35,0 -0.64,0.29 -0.64,0.64 0,0.36 0.29,0.65 0.64,0.65l12.39 0c0.17,0 0.34,-0.07 0.46,-0.19l6.86 -6.86c0.12,-0.12 0.18,-0.29 0.18,-0.46l0 -27.35c0,-0.35 -0.28,-0.64 -0.64,-0.64l-4.57 0 0 -1.29 6.29 0c0.11,0 0.21,0.1 0.21,0.22l0 15.39c0,0.35 0.29,0.64 0.64,0.64l0 0zm-8.79 18.34l0 -4.66 4.67 0 -4.67 4.66z"/>
     </clipPath>
     <clipPath id="id18">
      <path d="M16.31 27.93l3.95 0c0.35,0 0.64,-0.29 0.64,-0.64l0 -3.95c0,-0.35 -0.29,-0.64 -0.64,-0.64l-3.95 0c-0.35,0 -0.64,0.29 -0.64,0.64l0 3.95c0,0.35 0.29,0.64 0.64,0.64l0 0zm0.64 -3.94l2.66 0 0 2.65 -2.66 0 0 -2.65z"/>
     </clipPath>
     <clipPath id="id19">
      <path d="M16.31 20.4l3.95 0c0.35,0 0.64,-0.29 0.64,-0.65l0 -3.94c0,-0.36 -0.29,-0.64 -0.64,-0.64l-3.95 0c-0.35,0 -0.64,0.28 -0.64,0.64l0 3.94c0,0.36 0.29,0.65 0.64,0.65l0 0zm0.64 -3.95l2.66 0 0 2.66 -2.66 0 0 -2.66z"/>
     </clipPath>
 </defs>
 <g id="Layer_x0020_1">
  <metadata id="CorelCorpID_0Corel-Layer"/>
  <g id="_1774836865552">
   <path fill="white" d="M42.45 24.2c0.24,0.45 0.38,0.96 0.38,1.5l0 19.25c0,2.23 -1.82,4.05 -4.05,4.05l-28.56 0c-2.23,0 -4.05,-1.82 -4.05,-4.05l0 -37.64c0,-2.24 1.82,-4.05 4.05,-4.05l9.04 0c0.9,-1.81 2.72,-3.11 4.84,-3.25 1.62,-0.11 3.2,0.45 4.39,1.56 0.52,0.49 0.94,1.06 1.25,1.69l9.04 0c2.23,0 4.05,1.81 4.05,4.05l0 15.39c0,0.54 -0.14,1.05 -0.38,1.5z"/>
   <g clip-path="url(#id0)">
    <g>
     <polygon id="1" fill="white" fill-opacity="0.600000" points="-371.37,-646.83 820.44,-646.83 820.44,324.57 -371.37,324.57 "/>
    </g>
   </g>
   <path fill="none" d="M42.45 24.2c0.24,0.45 0.38,0.96 0.38,1.5l0 19.25c0,2.23 -1.82,4.05 -4.05,4.05l-28.56 0c-2.23,0 -4.05,-1.82 -4.05,-4.05l0 -37.64c0,-2.24 1.82,-4.05 4.05,-4.05l9.04 0c0.9,-1.81 2.72,-3.11 4.84,-3.25 1.62,-0.11 3.2,0.45 4.39,1.56 0.52,0.49 0.94,1.06 1.25,1.69l9.04 0c2.23,0 4.05,1.81 4.05,4.05l0 15.39c0,0.54 -0.14,1.05 -0.38,1.5z"/>
   <g>
    <path fill="#FAD207" d="M39.63 7.31l0 37.64c0,0.47 -0.38,0.86 -0.85,0.86l-28.56 0c-0.47,0 -0.85,-0.39 -0.85,-0.86l0 -37.64c0,-0.47 0.38,-0.86 0.85,-0.86l28.56 0c0.47,0 0.85,0.39 0.85,0.86l0 0z"/>
    <g clip-path="url(#id1)">
     <g>
      <polygon id="1" fill="white" fill-opacity="0.600000" points="-371.37,-646.83 820.44,-646.83 820.44,324.57 -371.37,324.57 "/>
     </g>
    </g>
    <path fill="none" d="M39.63 7.31l0 37.64c0,0.47 -0.38,0.86 -0.85,0.86l-28.56 0c-0.47,0 -0.85,-0.39 -0.85,-0.86l0 -37.64c0,-0.47 0.38,-0.86 0.85,-0.86l28.56 0c0.47,0 0.85,0.39 0.85,0.86l0 0z"/>
    <path fill="#FAA515" d="M10.74 10.68l0 33.15c0,0.33 0.27,0.6 0.61,0.6l17.3 0c0.22,0 0.44,-0.09 0.6,-0.25l6.61 -6.6 0 -27.36 -23.41 0 -0.15 -1.04 -1.18 0.79c-0.24,0.16 -0.38,0.43 -0.38,0.71l0 0z"/>
    <g clip-path="url(#id2)">
     <g>
      <polygon id="1" fill="white" fill-opacity="0.600000" points="-371.37,-646.83 820.44,-646.83 820.44,324.57 -371.37,324.57 "/>
     </g>
    </g>
    <path fill="none" d="M10.74 10.68l0 33.15c0,0.33 0.27,0.6 0.61,0.6l17.3 0c0.22,0 0.44,-0.09 0.6,-0.25l6.61 -6.6 0 -27.36 -23.41 0 -0.15 -1.04 -1.18 0.79c-0.24,0.16 -0.38,0.43 -0.38,0.71l0 0z"/>
    <path fill="whitesmoke" d="M37.06 9.88l0 26.49 -5.14 1.89 -1.72 4.97 -17.4 0c-0.48,0 -0.86,-0.38 -0.86,-0.85l0 -32.5c0,-0.47 0.38,-0.86 0.86,-0.86l23.4 0c0.48,0 0.86,0.39 0.86,0.86l0 0z"/>
    <g clip-path="url(#id3)">
     <g>
      <polygon id="1" fill="white" fill-opacity="0.600000" points="-371.37,-646.83 820.44,-646.83 820.44,324.57 -371.37,324.57 "/>
     </g>
    </g>
    <path fill="none" d="M37.06 9.88l0 26.49 -5.14 1.89 -1.72 4.97 -17.4 0c-0.48,0 -0.86,-0.38 -0.86,-0.85l0 -32.5c0,-0.47 0.38,-0.86 0.86,-0.86l23.4 0c0.48,0 0.86,0.39 0.86,0.86l0 0z"/>
    <path fill="#E6E6E6" d="M37.06 36.37l-6.86 6.86 0 -6c0,-0.47 0.39,-0.86 0.86,-0.86l6 0z"/>
    <g clip-path="url(#id4)">
     <g>
      <polygon id="1" fill="white" fill-opacity="0.600000" points="-371.37,-646.83 820.44,-646.83 820.44,324.57 -371.37,324.57 "/>
     </g>
    </g>
    <path fill="none" d="M37.06 36.37l-6.86 6.86 0 -6c0,-0.47 0.39,-0.86 0.86,-0.86l6 0z"/>
    <path fill="#E6E6E6" d="M33.13 9.02l0 1.67c0,1.18 -0.96,2.14 -2.14,2.14l-12.98 0c-1.18,0 -2.14,-0.96 -2.14,-2.14l0 -1.67 17.26 0z"/>
    <g clip-path="url(#id5)">
     <g>
      <polygon id="1" fill="white" fill-opacity="0.600000" points="-371.37,-646.83 820.44,-646.83 820.44,324.57 -371.37,324.57 "/>
     </g>
    </g>
    <path fill="none" d="M33.13 9.02l0 1.67c0,1.18 -0.96,2.14 -2.14,2.14l-12.98 0c-1.18,0 -2.14,-0.96 -2.14,-2.14l0 -1.67 17.26 0z"/>
    <polygon fill="#FAA515" points="15.87,6.45 33.13,6.45 33.13,9.02 15.87,9.02 "/>
    <g clip-path="url(#id6)">
     <g>
      <polygon id="1" fill="white" fill-opacity="0.600000" points="-371.37,-646.83 820.44,-646.83 820.44,324.57 -371.37,324.57 "/>
     </g>
    </g>
    <polygon fill="none" points="15.87,6.45 33.13,6.45 33.13,9.02 15.87,9.02 "/>
    <path fill="#50758D" d="M31.84 6.45l0 4.24c0,0.47 -0.38,0.86 -0.85,0.86l-12.98 0c-0.47,0 -0.85,-0.39 -0.85,-0.86l0 -4.24 4.76 0c-0.07,-0.27 -0.09,-0.56 -0.06,-0.86 0.12,-1.28 1.17,-2.3 2.45,-2.39 1.55,-0.11 2.84,1.12 2.84,2.65 0,0.2 -0.02,0.41 -0.07,0.6l4.76 0z"/>
    <g clip-path="url(#id7)">
     <g>
      <polygon id="1" fill="white" fill-opacity="0.600000" points="-371.37,-646.83 820.44,-646.83 820.44,324.57 -371.37,324.57 "/>
     </g>
    </g>
    <path fill="none" d="M31.84 6.45l0 4.24c0,0.47 -0.38,0.86 -0.85,0.86l-12.98 0c-0.47,0 -0.85,-0.39 -0.85,-0.86l0 -4.24 4.76 0c-0.07,-0.27 -0.09,-0.56 -0.06,-0.86 0.12,-1.28 1.17,-2.3 2.45,-2.39 1.55,-0.11 2.84,1.12 2.84,2.65 0,0.2 -0.02,0.41 -0.07,0.6l4.76 0z"/>
    <path fill="#50758D" d="M32.69 18.42l-9.09 0c-0.36,0 -0.64,-0.29 -0.64,-0.64 0,-0.35 0.28,-0.64 0.64,-0.64l9.09 0c0.35,0 0.64,0.29 0.64,0.64 0,0.35 -0.29,0.64 -0.64,0.64l0 0z"/>
    <g clip-path="url(#id8)">
     <g>
      <polygon id="1" fill="white" fill-opacity="0.600000" points="-371.37,-646.83 820.44,-646.83 820.44,324.57 -371.37,324.57 "/>
     </g>
    </g>
    <path fill="none" d="M32.69 18.42l-9.09 0c-0.36,0 -0.64,-0.29 -0.64,-0.64 0,-0.35 0.28,-0.64 0.64,-0.64l9.09 0c0.35,0 0.64,0.29 0.64,0.64 0,0.35 -0.29,0.64 -0.64,0.64l0 0z"/>
    <path fill="#50758D" d="M32.69 25.96l-9.09 0c-0.36,0 -0.64,-0.29 -0.64,-0.65 0,-0.35 0.28,-0.64 0.64,-0.64l9.09 0c0.35,0 0.64,0.29 0.64,0.64 0,0.36 -0.29,0.65 -0.64,0.65l0 0z"/>
    <g clip-path="url(#id9)">
     <g>
      <polygon id="1" fill="white" fill-opacity="0.600000" points="-371.37,-646.83 820.44,-646.83 820.44,324.57 -371.37,324.57 "/>
     </g>
    </g>
    <path fill="none" d="M32.69 25.96l-9.09 0c-0.36,0 -0.64,-0.29 -0.64,-0.65 0,-0.35 0.28,-0.64 0.64,-0.64l9.09 0c0.35,0 0.64,0.29 0.64,0.64 0,0.36 -0.29,0.65 -0.64,0.65l0 0z"/>
    <path fill="#50758D" d="M32.69 33.77l-1.5 0c-0.36,0 -0.65,-0.29 -0.65,-0.64 0,-0.36 0.29,-0.65 0.65,-0.65l1.5 0c0.35,0 0.64,0.29 0.64,0.65 0,0.35 -0.29,0.64 -0.64,0.64l0 0z"/>
    <g clip-path="url(#id10)">
     <g>
      <polygon id="1" fill="white" fill-opacity="0.600000" points="-371.37,-646.83 820.44,-646.83 820.44,324.57 -371.37,324.57 "/>
     </g>
    </g>
    <path fill="none" d="M32.69 33.77l-1.5 0c-0.36,0 -0.65,-0.29 -0.65,-0.64 0,-0.36 0.29,-0.65 0.65,-0.65l1.5 0c0.35,0 0.64,0.29 0.64,0.65 0,0.35 -0.29,0.64 -0.64,0.64l0 0z"/>
    <path fill="#50758D" d="M28.19 33.77l-4.59 0c-0.36,0 -0.64,-0.29 -0.64,-0.64 0,-0.36 0.28,-0.65 0.64,-0.65l4.59 0c0.35,0 0.64,0.29 0.64,0.65 0,0.35 -0.29,0.64 -0.64,0.64l0 0z"/>
    <g clip-path="url(#id11)">
     <g>
      <polygon id="1" fill="white" fill-opacity="0.600000" points="-371.37,-646.83 820.44,-646.83 820.44,324.57 -371.37,324.57 "/>
     </g>
    </g>
    <path fill="none" d="M28.19 33.77l-4.59 0c-0.36,0 -0.64,-0.29 -0.64,-0.64 0,-0.36 0.28,-0.65 0.64,-0.65l4.59 0c0.35,0 0.64,0.29 0.64,0.65 0,0.35 -0.29,0.64 -0.64,0.64l0 0z"/>
    <path fill="#FD646F" d="M20.26 35.74l-3.95 0c-0.35,0 -0.64,-0.29 -0.64,-0.64l0 -3.94c0,-0.36 0.29,-0.65 0.64,-0.65l3.95 0c0.35,0 0.64,0.29 0.64,0.65l0 3.94c0,0.35 -0.29,0.64 -0.64,0.64l0 0zm-3.31 -1.28l2.66 0 0 -2.66 -2.66 0 0 2.66z"/>
    <g clip-path="url(#id12)">
     <g>
      <polygon id="1" fill="white" fill-opacity="0.600000" points="-371.37,-646.83 820.44,-646.83 820.44,324.57 -371.37,324.57 "/>
     </g>
    </g>
    <path fill="none" d="M20.26 35.74l-3.95 0c-0.35,0 -0.64,-0.29 -0.64,-0.64l0 -3.94c0,-0.36 0.29,-0.65 0.64,-0.65l3.95 0c0.35,0 0.64,0.29 0.64,0.65l0 3.94c0,0.35 -0.29,0.64 -0.64,0.64l0 0zm-3.31 -1.28l2.66 0 0 -2.66 -2.66 0 0 2.66z"/>
    <path fill="black" d="M23.6 18.42l9.09 0c0.35,0 0.64,-0.29 0.64,-0.64 0,-0.35 -0.29,-0.64 -0.64,-0.64l-9.09 0c-0.36,0 -0.64,0.29 -0.64,0.64 0,0.35 0.28,0.64 0.64,0.64l0 0z"/>
    <g clip-path="url(#id13)">
     <g>
      <polygon id="1" fill="white" fill-opacity="0.600000" points="-371.37,-646.83 820.44,-646.83 820.44,324.57 -371.37,324.57 "/>
     </g>
    </g>
    <path fill="none" d="M23.6 18.42l9.09 0c0.35,0 0.64,-0.29 0.64,-0.64 0,-0.35 -0.29,-0.64 -0.64,-0.64l-9.09 0c-0.36,0 -0.64,0.29 -0.64,0.64 0,0.35 0.28,0.64 0.64,0.64l0 0z"/>
    <path fill="black" d="M23.6 25.96l9.09 0c0.35,0 0.64,-0.29 0.64,-0.65 0,-0.35 -0.29,-0.64 -0.64,-0.64l-9.09 0c-0.36,0 -0.64,0.29 -0.64,0.64 0,0.36 0.28,0.65 0.64,0.65l0 0z"/>
    <g clip-path="url(#id14)">
     <g>
      <polygon id="1" fill="white" fill-opacity="0.600000" points="-371.37,-646.83 820.44,-646.83 820.44,324.57 -371.37,324.57 "/>
     </g>
    </g>
    <path fill="none" d="M23.6 25.96l9.09 0c0.35,0 0.64,-0.29 0.64,-0.65 0,-0.35 -0.29,-0.64 -0.64,-0.64l-9.09 0c-0.36,0 -0.64,0.29 -0.64,0.64 0,0.36 0.28,0.65 0.64,0.65l0 0z"/>
    <path fill="black" d="M23.6 33.77l1.67 0 2.92 0 3 0 0 0 1.5 0c0.35,0 0.64,-0.29 0.64,-0.64 0,-0.36 -0.29,-0.65 -0.64,-0.65l0 0 -1.29 0 0 0 -3.21 0 -2.92 0 0 0 -1.67 0c-0.36,0 -0.64,0.29 -0.64,0.65 0,0.35 0.28,0.64 0.64,0.64l0 0z"/>
    <g clip-path="url(#id15)">
     <g>
      <polygon id="1" fill="white" fill-opacity="0.600000" points="-371.37,-646.83 820.44,-646.83 820.44,324.57 -371.37,324.57 "/>
     </g>
    </g>
    <path fill="none" d="M23.6 33.77l1.67 0 2.92 0 3 0 0 0 1.5 0c0.35,0 0.64,-0.29 0.64,-0.64 0,-0.36 -0.29,-0.65 -0.64,-0.65l0 0 -1.29 0 0 0 -3.21 0 -2.92 0 0 0 -1.67 0c-0.36,0 -0.64,0.29 -0.64,0.65 0,0.35 0.28,0.64 0.64,0.64l0 0z"/>
    <path fill="black" d="M16.31 35.74l3.95 0c0.35,0 0.64,-0.29 0.64,-0.64l0 -3.94c0,-0.36 -0.29,-0.65 -0.64,-0.65l-3.95 0c-0.35,0 -0.64,0.29 -0.64,0.65l0 3.94c0,0.35 0.29,0.64 0.64,0.64l0 0zm0.64 -3.94l2.66 0 0 2.66 -2.66 0 0 -2.66z"/>
    <g clip-path="url(#id16)">
     <g>
      <polygon id="1" fill="white" fill-opacity="0.600000" points="-371.37,-646.83 820.44,-646.83 820.44,324.57 -371.37,324.57 "/>
     </g>
    </g>
    <path fill="none" d="M16.31 35.74l3.95 0c0.35,0 0.64,-0.29 0.64,-0.64l0 -3.94c0,-0.36 -0.29,-0.65 -0.64,-0.65l-3.95 0c-0.35,0 -0.64,0.29 -0.64,0.65l0 3.94c0,0.35 0.29,0.64 0.64,0.64l0 0zm0.64 -3.94l2.66 0 0 2.66 -2.66 0 0 -2.66z"/>
    <path fill="black" d="M39.63 23.34c0.36,0 0.65,-0.29 0.65,-0.64l0 -15.39c0,-0.83 -0.68,-1.5 -1.5,-1.5l-10.98 0c-0.02,-0.9 -0.4,-1.76 -1.05,-2.37 -0.68,-0.63 -1.56,-0.95 -2.48,-0.88 -1.69,0.11 -3.06,1.56 -3.07,3.25l-10.98 0c-0.82,0 -1.5,0.67 -1.5,1.5l0 37.64c0,0.83 0.68,1.5 1.5,1.5l28.56 0c0.82,0 1.5,-0.67 1.5,-1.5l0 -19.25c0,-0.36 -0.29,-0.64 -0.65,-0.64 -0.35,0 -0.64,0.28 -0.64,0.64l0 19.25c0,0.12 -0.1,0.21 -0.21,0.21l-28.56 0c-0.11,0 -0.21,-0.09 -0.21,-0.21l0 -37.64c0,-0.12 0.1,-0.22 0.21,-0.22l6.29 0 0 1.29 -4.57 0c-0.36,0 -0.64,0.29 -0.64,0.64l0 34.21c0,0.36 0.28,0.65 0.64,0.65l2.87 0c0.36,0 0.64,-0.29 0.64,-0.65 0,-0.35 -0.28,-0.64 -0.64,-0.64l-2.23 0 0 -32.92 3.93 0 0 1.45c0,0.59 0.49,1.07 1.08,1.07l8.68 0c0.35,0 0.64,-0.29 0.64,-0.64 0,-0.36 -0.29,-0.65 -0.64,-0.65l-8.47 0 0 -3.81 4.12 0c0.41,0.01 0.72,-0.39 0.62,-0.79 -0.29,-1.16 0.61,-2.39 1.82,-2.46 1.31,-0.13 2.43,1.19 2.1,2.46 -0.1,0.39 0.22,0.8 0.62,0.79l4.12 0 0 3.81 -1.93 0c-0.36,0 -0.64,0.29 -0.64,0.65 0,0.35 0.28,0.64 0.64,0.64l2.14 0c0.59,0 1.08,-0.48 1.08,-1.07l0 -1.45 3.93 0 0 26.06 -6.22 0c-0.35,0 -0.64,0.29 -0.64,0.64l0 6.22 -11.75 0c-0.35,0 -0.64,0.29 -0.64,0.64 0,0.36 0.29,0.65 0.64,0.65l12.39 0c0.17,0 0.34,-0.07 0.46,-0.19l6.86 -6.86c0.12,-0.12 0.18,-0.29 0.18,-0.46l0 -27.35c0,-0.35 -0.28,-0.64 -0.64,-0.64l-4.57 0 0 -1.29 6.29 0c0.11,0 0.21,0.1 0.21,0.22l0 15.39c0,0.35 0.29,0.64 0.64,0.64l0 0zm-8.79 18.34l0 -4.66 4.67 0 -4.67 4.66z"/>
    <g clip-path="url(#id17)">
     <g>
      <polygon id="1" fill="white" fill-opacity="0.600000" points="-371.37,-646.83 820.44,-646.83 820.44,324.57 -371.37,324.57 "/>
     </g>
    </g>
    <path fill="none" d="M39.63 23.34c0.36,0 0.65,-0.29 0.65,-0.64l0 -15.39c0,-0.83 -0.68,-1.5 -1.5,-1.5l-10.98 0c-0.02,-0.9 -0.4,-1.76 -1.05,-2.37 -0.68,-0.63 -1.56,-0.95 -2.48,-0.88 -1.69,0.11 -3.06,1.56 -3.07,3.25l-10.98 0c-0.82,0 -1.5,0.67 -1.5,1.5l0 37.64c0,0.83 0.68,1.5 1.5,1.5l28.56 0c0.82,0 1.5,-0.67 1.5,-1.5l0 -19.25c0,-0.36 -0.29,-0.64 -0.65,-0.64 -0.35,0 -0.64,0.28 -0.64,0.64l0 19.25c0,0.12 -0.1,0.21 -0.21,0.21l-28.56 0c-0.11,0 -0.21,-0.09 -0.21,-0.21l0 -37.64c0,-0.12 0.1,-0.22 0.21,-0.22l6.29 0 0 1.29 -4.57 0c-0.36,0 -0.64,0.29 -0.64,0.64l0 34.21c0,0.36 0.28,0.65 0.64,0.65l2.87 0c0.36,0 0.64,-0.29 0.64,-0.65 0,-0.35 -0.28,-0.64 -0.64,-0.64l-2.23 0 0 -32.92 3.93 0 0 1.45c0,0.59 0.49,1.07 1.08,1.07l8.68 0c0.35,0 0.64,-0.29 0.64,-0.64 0,-0.36 -0.29,-0.65 -0.64,-0.65l-8.47 0 0 -3.81 4.12 0c0.41,0.01 0.72,-0.39 0.62,-0.79 -0.29,-1.16 0.61,-2.39 1.82,-2.46 1.31,-0.13 2.43,1.19 2.1,2.46 -0.1,0.39 0.22,0.8 0.62,0.79l4.12 0 0 3.81 -1.93 0c-0.36,0 -0.64,0.29 -0.64,0.65 0,0.35 0.28,0.64 0.64,0.64l2.14 0c0.59,0 1.08,-0.48 1.08,-1.07l0 -1.45 3.93 0 0 26.06 -6.22 0c-0.35,0 -0.64,0.29 -0.64,0.64l0 6.22 -11.75 0c-0.35,0 -0.64,0.29 -0.64,0.64 0,0.36 0.29,0.65 0.64,0.65l12.39 0c0.17,0 0.34,-0.07 0.46,-0.19l6.86 -6.86c0.12,-0.12 0.18,-0.29 0.18,-0.46l0 -27.35c0,-0.35 -0.28,-0.64 -0.64,-0.64l-4.57 0 0 -1.29 6.29 0c0.11,0 0.21,0.1 0.21,0.22l0 15.39c0,0.35 0.29,0.64 0.64,0.64l0 0zm-8.79 18.34l0 -4.66 4.67 0 -4.67 4.66z"/>
    <path fill="black" d="M16.31 27.93l3.95 0c0.35,0 0.64,-0.29 0.64,-0.64l0 -3.95c0,-0.35 -0.29,-0.64 -0.64,-0.64l-3.95 0c-0.35,0 -0.64,0.29 -0.64,0.64l0 3.95c0,0.35 0.29,0.64 0.64,0.64l0 0zm0.64 -3.94l2.66 0 0 2.65 -2.66 0 0 -2.65z"/>
    <g clip-path="url(#id18)">
     <g>
      <polygon id="1" fill="white" fill-opacity="0.600000" points="-371.37,-646.83 820.44,-646.83 820.44,324.57 -371.37,324.57 "/>
     </g>
    </g>
    <path fill="none" d="M16.31 27.93l3.95 0c0.35,0 0.64,-0.29 0.64,-0.64l0 -3.95c0,-0.35 -0.29,-0.64 -0.64,-0.64l-3.95 0c-0.35,0 -0.64,0.29 -0.64,0.64l0 3.95c0,0.35 0.29,0.64 0.64,0.64l0 0zm0.64 -3.94l2.66 0 0 2.65 -2.66 0 0 -2.65z"/>
    <path fill="black" d="M16.31 20.4l3.95 0c0.35,0 0.64,-0.29 0.64,-0.65l0 -3.94c0,-0.36 -0.29,-0.64 -0.64,-0.64l-3.95 0c-0.35,0 -0.64,0.28 -0.64,0.64l0 3.94c0,0.36 0.29,0.65 0.64,0.65l0 0zm0.64 -3.95l2.66 0 0 2.66 -2.66 0 0 -2.66z"/>
    <g clip-path="url(#id19)">
     <g>
      <polygon id="1" fill="white" fill-opacity="0.600000" points="-371.37,-646.83 820.44,-646.83 820.44,324.57 -371.37,324.57 "/>
     </g>
    </g>
    <path fill="none" d="M16.31 20.4l3.95 0c0.35,0 0.64,-0.29 0.64,-0.65l0 -3.94c0,-0.36 -0.29,-0.64 -0.64,-0.64l-3.95 0c-0.35,0 -0.64,0.28 -0.64,0.64l0 3.94c0,0.36 0.29,0.65 0.64,0.65l0 0zm0.64 -3.95l2.66 0 0 2.66 -2.66 0 0 -2.66z"/>
   </g>
  </g>
 </g>
</svg>
