<?xml version="1.0" encoding="UTF-8"?>
<!DOCTYPE svg PUBLIC "-//W3C//DTD SVG 1.1//EN" "http://www.w3.org/Graphics/SVG/1.1/DTD/svg11.dtd">
<!-- Creator: CorelDRAW 2018 (64-Bit) -->
<svg xmlns="http://www.w3.org/2000/svg" xml:space="preserve" width="49px" height="49px" version="1.1" shape-rendering="geometricPrecision" text-rendering="geometricPrecision" image-rendering="optimizeQuality" fill-rule="evenodd" clip-rule="evenodd"
viewBox="0 0 49 49"
 xmlns:xlink="http://www.w3.org/1999/xlink">
 <g id="Layer_x0020_1">
  <metadata id="CorelCorpID_0Corel-Layer"/>
  <g id="_1774660511312">
   <path fill="white" d="M42.77 24.2c0.24,0.45 0.37,0.96 0.37,1.5l0 19.25c0,2.23 -1.82,4.05 -4.05,4.05l-28.55 0c-2.24,0 -4.05,-1.82 -4.05,-4.05l0 -37.64c0,-2.24 1.81,-4.05 4.05,-4.05l9.03 -0.01c0.91,-1.8 2.72,-3.1 4.84,-3.24 1.63,-0.11 3.2,0.45 4.39,1.56 0.52,0.49 0.94,1.06 1.25,1.68l9.04 0.01c2.23,0 4.05,1.81 4.05,4.05l0 15.39c0,0.54 -0.13,1.05 -0.37,1.5z"/>
   <g>
    <path fill="#FAD207" d="M39.95 7.31l0 37.64c0,0.47 -0.39,0.86 -0.86,0.86l-28.55 0c-0.48,0 -0.86,-0.39 -0.86,-0.86l0 -37.64c0,-0.47 0.38,-0.86 0.86,-0.86l28.55 0c0.47,0 0.86,0.39 0.86,0.86l0 0z"/>
    <path fill="#FAA515" d="M11.05 10.68l0 33.15c0,0.33 0.27,0.6 0.61,0.6l17.3 0c0.23,0 0.44,-0.09 0.61,-0.25l6.6 -6.6 0 -27.36 -23.41 0 -0.14 -1.04 -1.19 0.79c-0.24,0.16 -0.38,0.43 -0.38,0.71l0 0z"/>
    <path fill="whitesmoke" d="M37.37 9.88l0 26.49 -5.14 1.89 -1.72 4.97 -17.4 0c-0.47,0 -0.86,-0.38 -0.86,-0.85l0 -32.5c0,-0.47 0.39,-0.86 0.86,-0.86l23.41 0c0.47,0 0.85,0.39 0.85,0.86l0 0z"/>
    <path fill="#E6E6E6" d="M37.37 36.37l-6.86 6.86 0 -6c0,-0.47 0.39,-0.86 0.86,-0.86l6 0z"/>
    <path fill="#E6E6E6" d="M33.44 9.02l0 1.67c0,1.18 -0.96,2.14 -2.14,2.14l-12.97 0c-1.18,0 -2.15,-0.96 -2.15,-2.14l0 -1.67 17.26 0z"/>
    <polygon fill="#FAA515" points="16.18,6.45 33.44,6.45 33.44,9.02 16.18,9.02 "/>
    <path fill="#50758D" d="M32.16 6.45l0 4.24c0,0.47 -0.39,0.86 -0.86,0.86l-12.97 0c-0.48,0 -0.86,-0.39 -0.86,-0.86l0 -4.24 4.76 0c-0.06,-0.27 -0.09,-0.56 -0.06,-0.86 0.12,-1.28 1.17,-2.3 2.45,-2.39 1.55,-0.11 2.84,1.12 2.84,2.65 0,0.2 -0.02,0.41 -0.06,0.6l4.76 0z"/>
    <path fill="#50758D" d="M33 18.42l-9.09 0c-0.35,0 -0.64,-0.29 -0.64,-0.64 0,-0.35 0.29,-0.64 0.64,-0.64l9.09 0c0.36,0 0.64,0.29 0.64,0.64 0,0.35 -0.28,0.64 -0.64,0.64l0 0z"/>
    <path fill="#50758D" d="M33 25.96l-9.09 0c-0.35,0 -0.64,-0.29 -0.64,-0.65 0,-0.35 0.29,-0.64 0.64,-0.64l9.09 0c0.36,0 0.64,0.29 0.64,0.64 0,0.36 -0.28,0.65 -0.64,0.65l0 0z"/>
    <path fill="#50758D" d="M33 33.77l-1.5 0c-0.36,0 -0.64,-0.29 -0.64,-0.64 0,-0.36 0.28,-0.65 0.64,-0.65l1.5 0c0.36,0 0.64,0.29 0.64,0.65 0,0.35 -0.28,0.64 -0.64,0.64l0 0z"/>
    <path fill="#50758D" d="M28.5 33.77l-4.59 0c-0.35,0 -0.64,-0.29 -0.64,-0.64 0,-0.36 0.29,-0.65 0.64,-0.65l4.59 0c0.35,0 0.64,0.29 0.64,0.65 0,0.35 -0.29,0.64 -0.64,0.64l0 0z"/>
    <path fill="#FD646F" d="M20.57 35.74l-3.95 0c-0.35,0 -0.64,-0.29 -0.64,-0.64l0 -3.94c0,-0.36 0.29,-0.65 0.64,-0.65l3.95 0c0.35,0 0.64,0.29 0.64,0.65l0 3.94c0,0.35 -0.29,0.64 -0.64,0.64l0 0zm-3.3 -1.28l2.66 0 0 -2.66 -2.66 0 0 2.66z"/>
    <path fill="black" d="M23.91 18.42l9.09 0c0.36,0 0.64,-0.29 0.64,-0.64 0,-0.35 -0.28,-0.64 -0.64,-0.64l-9.09 0c-0.35,0 -0.64,0.29 -0.64,0.64 0,0.35 0.29,0.64 0.64,0.64l0 0z"/>
    <path fill="black" d="M23.91 25.96l9.09 0c0.36,0 0.64,-0.29 0.64,-0.65 0,-0.35 -0.28,-0.64 -0.64,-0.64l-9.09 0c-0.35,0 -0.64,0.29 -0.64,0.64 0,0.36 0.29,0.65 0.64,0.65l0 0z"/>
    <path fill="black" d="M23.91 33.77l1.67 0 2.92 0 3 0 0 0 1.5 0c0.36,0 0.64,-0.29 0.64,-0.64 0,-0.36 -0.28,-0.65 -0.64,-0.65l0 0 -1.28 0 0 0 -3.22 0 -2.92 0 0 0 -1.67 0c-0.35,0 -0.64,0.29 -0.64,0.65 0,0.35 0.29,0.64 0.64,0.64l0 0z"/>
    <path fill="black" d="M16.62 35.74l3.95 0c0.35,0 0.64,-0.29 0.64,-0.64l0 -3.94c0,-0.36 -0.29,-0.65 -0.64,-0.65l-3.95 0c-0.35,0 -0.64,0.29 -0.64,0.65l0 3.94c0,0.35 0.29,0.64 0.64,0.64l0 0zm0.65 -3.94l2.66 0 0 2.66 -2.66 0 0 -2.66z"/>
    <path fill="black" d="M39.95 23.34c0.35,0 0.64,-0.29 0.64,-0.64l0 -15.39c0,-0.83 -0.67,-1.5 -1.5,-1.5l-10.98 0c-0.01,-0.9 -0.39,-1.76 -1.05,-2.37 -0.67,-0.63 -1.55,-0.95 -2.48,-0.88 -1.69,0.11 -3.06,1.56 -3.06,3.25l-10.98 0c-0.83,0 -1.5,0.67 -1.5,1.5l0 37.64c0,0.83 0.67,1.5 1.5,1.5l28.55 0c0.83,0 1.5,-0.67 1.5,-1.5l0 -19.25c0,-0.36 -0.29,-0.64 -0.64,-0.64 -0.36,0 -0.65,0.28 -0.65,0.64l0 19.25c0,0.12 -0.09,0.21 -0.21,0.21l-28.55 0c-0.12,0 -0.22,-0.09 -0.22,-0.21l0 -37.64c0,-0.12 0.1,-0.22 0.22,-0.22l6.29 0 0 1.29 -4.58 0c-0.35,0 -0.64,0.29 -0.64,0.64l0 34.21c0,0.36 0.29,0.65 0.64,0.65l2.87 0c0.36,0 0.65,-0.29 0.65,-0.65 0,-0.35 -0.29,-0.64 -0.65,-0.64l-2.23 0 0 -32.92 3.94 0 0 1.45c0,0.59 0.48,1.07 1.07,1.07l8.68 0c0.36,0 0.64,-0.29 0.64,-0.64 0,-0.36 -0.28,-0.65 -0.64,-0.65l-8.47 0 0 -3.81 4.12 0c0.41,0.01 0.72,-0.39 0.63,-0.79 -0.3,-1.16 0.6,-2.39 1.81,-2.46 1.31,-0.13 2.43,1.19 2.1,2.46 -0.1,0.39 0.22,0.8 0.63,0.79l4.11 0 0 3.81 -1.93 0c-0.35,0 -0.64,0.29 -0.64,0.65 0,0.35 0.29,0.64 0.64,0.64l2.15 0c0.59,0 1.07,-0.48 1.07,-1.07l0 -1.45 3.93 0 0 26.06 -6.22 0c-0.35,0 -0.64,0.29 -0.64,0.64l0 6.22 -11.74 0c-0.36,0 -0.65,0.29 -0.65,0.64 0,0.36 0.29,0.65 0.65,0.65l12.38 0c0.17,0 0.34,-0.07 0.46,-0.19l6.86 -6.86c0.12,-0.12 0.19,-0.29 0.19,-0.46l0 -27.35c0,-0.35 -0.29,-0.64 -0.65,-0.64l-4.57 0 0 -1.29 6.29 0c0.12,0 0.21,0.1 0.21,0.22l0 15.39c0,0.35 0.29,0.64 0.65,0.64l0 0zm-8.79 18.34l0 -4.66 4.66 0 -4.66 4.66z"/>
    <path fill="black" d="M16.62 27.93l3.95 0c0.35,0 0.64,-0.29 0.64,-0.64l0 -3.95c0,-0.35 -0.29,-0.64 -0.64,-0.64l-3.95 0c-0.35,0 -0.64,0.29 -0.64,0.64l0 3.95c0,0.35 0.29,0.64 0.64,0.64l0 0zm0.65 -3.94l2.66 0 0 2.65 -2.66 0 0 -2.65z"/>
    <path fill="black" d="M16.62 20.4l3.95 0c0.35,0 0.64,-0.29 0.64,-0.65l0 -3.94c0,-0.36 -0.29,-0.65 -0.64,-0.65l-3.95 0c-0.35,0 -0.64,0.29 -0.64,0.65l0 3.94c0,0.36 0.29,0.65 0.64,0.65l0 0zm0.65 -3.95l2.66 0 0 2.66 -2.66 0 0 -2.66z"/>
   </g>
  </g>
 </g>
</svg>
