<svg width="37" height="36" viewBox="0 0 37 36" fill="none" xmlns="http://www.w3.org/2000/svg">
<path d="M2 18C2 22.2593 3.59888 26.3633 6.4801 29.5C9.36133 32.637 13.3152 34.5779 17.5591 34.9387C21.803 35.2998 26.0278 34.0547 29.3976 31.4495C32.7672 28.8445 35.0364 25.0696 35.7557 20.8714C36.4752 16.6734 35.5925 12.3582 33.2825 8.7798C30.9724 5.20143 27.4033 2.62062 23.2814 1.54787C19.1593 0.47536 14.7849 0.989032 11.0236 2.98757C7.26233 4.98586 4.38818 8.3235 2.96997 12.3396M2.96997 12.3396L8.5 9.5M2.96997 12.3396L1 7.5M18 7.5V18L24 24" stroke="black"/>
</svg>
