<?xml version="1.0" encoding="UTF-8"?>
<!DOCTYPE svg PUBLIC "-//W3C//DTD SVG 1.1//EN" "http://www.w3.org/Graphics/SVG/1.1/DTD/svg11.dtd">
<!-- Creator: CorelDRAW 2018 (64-Bit) -->
<svg xmlns="http://www.w3.org/2000/svg" xml:space="preserve" width="49px" height="49px" version="1.1" shape-rendering="geometricPrecision" text-rendering="geometricPrecision" image-rendering="optimizeQuality" fill-rule="evenodd" clip-rule="evenodd"
viewBox="0 0 49 49"
 xmlns:xlink="http://www.w3.org/1999/xlink">
 <g id="Layer_x0020_1">
  <metadata id="CorelCorpID_0Corel-Layer"/>
  <g id="_1811885368304">
   <path fill="#4F4F4F" fill-rule="nonzero" d="M3.61 39.3l6.7 0c0.42,0 0.82,-0.15 1.14,-0.43l5.18 -4.59 0.34 -2.37 -6.7 -1.18 -0.85 4.56 -6.17 0.9 0.36 3.11z"/>
   <path fill="#9C9D9E" fill-rule="nonzero" d="M25.02 46.36l22.31 0c0.53,0 0.95,-0.42 0.95,-0.95l0 -41.82c0,-0.53 -0.42,-0.95 -0.95,-0.95l-22.31 0c-0.52,0 -0.95,0.42 -0.95,0.95l0 41.82c0,0.53 0.43,0.95 0.95,0.95z"/>
   <path fill="#616262" fill-rule="nonzero" d="M24.07 45.41l0 -41.82c0,-0.53 0.43,-0.95 0.95,-0.95l7.28 2.29c0.36,0.11 0.6,0.44 0.6,0.82l0 40.61 -7.88 0c-0.52,0 -0.95,-0.42 -0.95,-0.95l0 0z"/>
   <path fill="#FBCDC1" fill-rule="nonzero" d="M20.36 23.62l-2.37 2.58 2.37 2.06c0.42,0.36 1,0.46 1.51,0.26l5.3 -2.08c0.71,-0.28 1.08,-1.07 0.84,-1.79 -0.23,-0.71 -0.96,-1.13 -1.69,-0.96l-4.65 1.05c-0.13,0.03 -0.26,-0.01 -0.35,-0.1l-0.96 -1.02z"/>
   <path fill="#FBCDC1" fill-rule="nonzero" d="M7.98 19.84l-2.74 0.19c-0.55,0.04 -1.03,0.38 -1.25,0.88l-2.28 5.22c-0.3,0.71 -0.01,1.52 0.68,1.87 0.66,0.34 1.47,0.11 1.87,-0.52l2.55 -4.04c0.07,-0.1 0.19,-0.17 0.31,-0.16l1.24 0.03 -0.38 -3.47z"/>
   <path fill="#FFE07D" fill-rule="nonzero" d="M21.1 24.4l-3.94 -4.15c-0.72,-0.76 -1.9,-0.83 -2.7,-0.16 -0.95,0.78 -0.96,2.22 -0.04,3.02l4.27 3.7 2.41 -2.41z"/>
   <path fill="#E84E4E" fill-rule="nonzero" d="M37.73 35.1l-5.49 -3.97c-0.25,-0.18 -0.6,0 -0.6,0.31l0 1.83 -9.15 0c-0.21,0 -0.38,0.17 -0.38,0.38l0 3.52c0,0.21 0.17,0.38 0.38,0.38l9.15 0 0 1.84c0,0.31 0.35,0.49 0.6,0.31l5.49 -3.98c0.21,-0.15 0.21,-0.46 0,-0.62l0 0z"/>
   <path fill="#FFE07D" fill-rule="nonzero" d="M16.97 31.91l-7.8 -1.38 1.42 -8.06c0.38,-2.15 2.43,-3.59 4.59,-3.21 2.15,0.38 3.59,2.43 3.21,4.59l-1.42 8.06z"/>
   <path fill="#FBCDC1" fill-rule="nonzero" d="M16.48 11.14c2.29,0 4.15,1.86 4.15,4.15 0,2.3 -1.86,4.15 -4.15,4.15 -2.3,0 -4.16,-1.85 -4.16,-4.15 0,-2.29 1.86,-4.15 4.16,-4.15z"/>
   <path fill="#878889" fill-rule="nonzero" d="M19 37.82c0.03,-0.49 -0.13,-0.96 -0.45,-1.33l-4.43 -5.08 -4.95 -0.88 -0.43 1.98c-0.31,1.44 0.38,2.91 1.68,3.59l4.79 2.52c0.17,0.08 0.28,0.25 0.29,0.43l0.43 4.7 2.75 0 0.32 -5.93z"/>
   <path fill="#FFE07D" fill-rule="nonzero" d="M13.08 19.47l-6.1 0.44 0.31 3.37 5.88 0.15c1.04,0.03 1.93,-0.75 2.03,-1.79 0.11,-1.22 -0.9,-2.25 -2.12,-2.17z"/>
   <path fill="#D5E2F3" fill-rule="nonzero" d="M3.25 36.19l-1.86 0c-0.37,0 -0.67,0.3 -0.67,0.67l0 4.45c0,1.22 1.72,1.49 2.09,0.33l0.73 -2.29 0.07 -0.05 -0.36 -3.11z"/>
   <path fill="#D5E2F3" fill-rule="nonzero" d="M20.35 44.24l-1.67 -0.46 0 -0.03 -2.75 0 0 1.88c0,0.38 0.31,0.69 0.69,0.69 0.11,0 3.53,0 3.46,0 0.57,0 1.02,-0.46 1.02,-1.02l0 -0.08c0,-0.46 -0.3,-0.86 -0.75,-0.98l0 0z"/>
   <path fill="#F8B0A1" fill-rule="nonzero" d="M28.01 24.65c-0.23,-0.71 -0.96,-1.13 -1.69,-0.96l-1.01 0.23c0.24,0.17 0.44,0.42 0.54,0.73 0.24,0.72 -0.13,1.51 -0.85,1.79l-4.64 1.82 0 0c0.42,0.36 1,0.46 1.51,0.26l5.3 -2.08c0.71,-0.28 1.08,-1.07 0.84,-1.79l0 0z"/>
   <path fill="#F8B0A1" fill-rule="nonzero" d="M16.48 11.14c-0.38,0 -0.74,0.05 -1.09,0.14 1.77,0.48 3.08,2.09 3.08,4.01 0,1.92 -1.31,3.53 -3.08,4.01 0.35,0.09 0.71,0.14 1.09,0.14 2.29,0 4.15,-1.85 4.15,-4.15 0,-2.29 -1.86,-4.15 -4.15,-4.15z"/>
   <path fill="#C3D7EF" fill-rule="nonzero" d="M20.35 44.24l-1.67 -0.46 0 -0.03 -2.16 0 0 0.03 1.67 0.46c0.44,0.12 0.75,0.52 0.75,0.98l0 0.08c0,0.56 -0.46,1.02 -1.02,1.02 1,0 2.2,0 2.16,0 0.57,0 1.02,-0.46 1.02,-1.02l0 -0.08c0,-0.46 -0.3,-0.86 -0.75,-0.98z"/>
   <path fill="#E84E4E" fill-rule="nonzero" d="M37.73 35.1l-5.49 -3.97c-0.25,-0.18 -0.6,0 -0.6,0.31l0 1.83 -9.15 0c-0.21,0 -0.38,0.17 -0.38,0.38l0 3.52c0,0.21 0.17,0.38 0.38,0.38l9.15 0 0 1.84c0,0.31 0.35,0.49 0.6,0.31l5.49 -3.98c0.21,-0.15 0.21,-0.46 0,-0.62l0 0z"/>
   <path fill="#616262" fill-rule="nonzero" d="M18.37 36.85l-2.44 -5.23 -4.49 -0.42 0.97 0.97 4.56 5.24c0.33,0.38 0.5,0.87 0.48,1.37l-0.3 5.56 1.36 0 0.33 -6.12c0.03,-0.5 -0.14,-0.99 -0.47,-1.37z"/>
   <path fill="black" fill-rule="nonzero" d="M32.36 38.73l0 -1.18c0,-0.39 -0.33,-0.71 -0.72,-0.71 -1.09,0 -7.85,0 -8.81,0l0 -2.85 8.81 0c0.39,0 0.72,-0.32 0.72,-0.72l0 -1.17 4.57 3.31 -4.57 3.32zm-0.18 6.92c-0.83,0 -6.29,0 -7.16,0 -0.11,0 -0.21,-0.09 -0.23,-0.2 0,-0.01 0,-0.03 0,-0.04l0 -7.14 6.13 0 0 1.12c0,0 0,0 0,0 0,0.6 0.5,0.98 0.6,0.98l0 0c0.21,0.1 0.45,0.14 0.66,0.1l0 5.18zm-10.57 -17.8c-0.27,0.11 -0.56,0.06 -0.78,-0.13l-1.09 -0.95 1.4 -1.4c0.21,0.1 0.45,0.12 0.69,0.07 0.97,-0.22 3.11,-0.7 4.65,-1.05 0.87,-0.2 1.26,1.05 0.43,1.38 -3.97,1.56 -1.21,0.48 -5.3,2.08l0 0zm-2.45 -4.43c0,-0.01 0,-0.01 0,-0.02l0.94 0.99 -1.3 1.3c0.32,-1.84 0.34,-1.9 0.36,-2.27l0 0zm5.63 -19.83c0,-0.1 0.05,-0.19 0.16,-0.22l7.14 2.24c0.05,0.02 0.09,0.07 0.09,0.14l0 24.6c-0.66,-0.1 -1.26,0.42 -1.26,1.09 0,0 0,0 0,0l0 1.11 -6.13 0 0 -4.4 2.64 -1.04c0,0 0.01,0 0.01,0 1.07,-0.43 1.61,-1.61 1.26,-2.69 -0.35,-1.06 -1.45,-1.68 -2.54,-1.43l-1.37 0.31 0 -19.71zm-7.08 19.97c-0.02,0.13 -1.29,7.31 -1.32,7.52l-6.39 -1.13 1.03 -5.86c0.06,0.01 2.14,0.06 2.19,0.06 2.06,0 3.38,-2.23 2.35,-4.03 0,-0.01 -0.01,-0.01 -0.01,-0.02 0.63,0.22 1.17,0.62 1.57,1.18 0.48,0.67 0.68,1.49 0.58,2.28l0 0zm0.3 13.4c0.19,0.23 0.29,0.52 0.28,0.82l-0.29 5.26 -1.41 0 -0.37 -4.05c-0.04,-0.43 -0.29,-0.81 -0.67,-1.01l-4.79 -2.51c-1.01,-0.53 -1.56,-1.69 -1.32,-2.81l0.28 -1.3 6.44 1.13 -0.24 1.69c-0.03,0.21 0.03,0.42 0.16,0.57l1.93 2.21zm2.15 7.97c0.34,0.09 0.29,0.67 -0.08,0.67l-3.43 0 0 -1.13 1.86 0 1.65 0.46zm-12.22 -22.35l-0.18 -2.01c0.13,-0.01 4.97,-0.35 5.37,-0.38l0 0c0.37,-0.03 0.74,0.11 1,0.38 0.26,0.26 0.39,0.63 0.35,1 -0.06,0.66 -0.63,1.16 -1.29,1.15l-5.25 -0.14zm8.54 -10.73c1.89,0 3.43,1.55 3.43,3.44 0,1.9 -1.54,3.44 -3.43,3.44 -1.9,0 -3.44,-1.54 -3.44,-3.44 0,-1.89 1.54,-3.44 3.44,-3.44zm-13.62 27.28l-0.73 2.29c-0.08,0.25 -0.28,0.25 -0.39,0.24 -0.12,-0.02 -0.3,-0.09 -0.3,-0.35l0 -4.4 1.17 0 0.26 2.2c0,0.01 -0.01,0.01 -0.01,0.02zm3.34 -16.07l-2.55 4.04c-0.2,0.32 -0.6,0.43 -0.94,0.26 -0.34,-0.18 -0.49,-0.59 -0.34,-0.94l2.28 -5.22c0.11,-0.26 0.36,-0.43 0.64,-0.45l1.04 -0.08 0.19 2.07c-0.13,0.08 -0.24,0.19 -0.32,0.32l0 0zm41.13 -21.14l-1.92 0c-0.39,0 -0.71,0.32 -0.71,0.72 0,0.39 0.32,0.71 0.71,0.71l1.92 0c0.13,0 0.23,0.11 0.23,0.24l0 41.82c0,0.13 -0.1,0.24 -0.23,0.24l-13.71 0 0 -6.06 4.53 -3.29c0.27,-0.19 0.45,-0.52 0.45,-0.89 0,-0.35 -0.17,-0.68 -0.45,-0.89l-4.53 -3.28 0 -25.49c0,-0.7 -0.44,-1.3 -1.1,-1.51l-2.83 -0.89 12.37 0c0.4,0 0.72,-0.32 0.72,-0.71 0,-0.4 -0.32,-0.72 -0.72,-0.72l-17.04 0c-0.92,0 -1.67,0.75 -1.67,1.67l0 20.03 -1.64 0.38c-7.16,-7.55 -0.81,-0.84 -3.81,-4.05 1.99,-0.61 3.45,-2.47 3.45,-4.66 0,-2.69 -2.19,-4.87 -4.87,-4.87 -2.69,0 -4.87,2.18 -4.87,4.87 0,1.34 0.54,2.55 1.41,3.43 -0.05,0.01 -0.1,0.03 -0.14,0.05 -0.15,0.01 -2.57,0.18 -7.69,0.54 -0.82,0.06 -1.53,0.56 -1.86,1.32l-2.27 5.22c-0.46,1.05 -0.02,2.27 1,2.79 1.01,0.51 2.21,0.17 2.81,-0.78l2.44 -3.86c0.04,0 0.96,0.02 2.27,0.06 -1.31,7.44 -1,5.78 -1.54,8.3 -0.17,0.81 -0.09,1.64 0.22,2.37l-5.06 0.74 -1.81 0c-0.77,0 -1.39,0.62 -1.39,1.39l0 4.45c0,0.9 0.62,1.63 1.51,1.77 0.89,0.13 1.71,-0.36 1.98,-1.22l0.59 -1.84 1.12 0c0.39,0 0.72,-0.32 0.72,-0.72 0,-0.4 -0.33,-0.72 -0.72,-0.72l-0.95 0 -0.2 -1.78 5.1 -0.75c0.53,0.52 0.85,0.64 2.62,1.57l-0.8 0.71c-0.36,0.32 -0.57,0.25 -2.42,0.25 -0.4,0 -0.72,0.32 -0.72,0.72 0,0.4 0.32,0.72 0.72,0.72l1.76 0c1.13,0 1.62,-0.62 2.82,-1.69l1.67 0.88c0.49,5.38 0.42,4.07 0.42,6.42 0,0.77 0.63,1.4 1.4,1.4l3.47 0c2.03,0 2.4,-2.95 0.45,-3.49l-1.11 -0.3 0.29 -5.38c0.04,-0.68 -0.19,-1.33 -0.63,-1.84l-1.71 -1.96 0.3 -2.04 0.78 -4.45 1.43 1.24c0.62,0.53 1.48,0.68 2.24,0.38l1.22 -0.48 0 3.84 -0.86 0c-0.6,0 -1.1,0.5 -1.1,1.1l0 3.52c0,0.61 0.5,1.1 1.1,1.1l0.86 0c0,7.69 -0.03,7.32 0.08,7.66 0.22,0.67 0.85,1.15 1.59,1.15l22.31 0c0.92,0 1.67,-0.75 1.67,-1.67l0 -41.82c0,-0.92 -0.75,-1.67 -1.67,-1.67l0 0z"/>
   <rect fill="black" x="39.78" y="1.92" width="5.63" height="1.44"/>
   <rect fill="black" x="4.85" y="38.58" width="4.08" height="1.44"/>
  </g>
 </g>
</svg>
