<svg width="23" height="18" viewBox="0 0 23 18" fill="none" xmlns="http://www.w3.org/2000/svg">
<path fill-rule="evenodd" clip-rule="evenodd" d="M22.8814 18V0H0V15H19.6237L22.8814 18ZM6.10376 8.71965C6.58533 8.71965 6.97572 8.32926 6.97572 7.84769C6.97572 7.36611 6.58533 6.97572 6.10376 6.97572C5.62218 6.97572 5.23179 7.36611 5.23179 7.84769C5.23179 8.32926 5.62218 8.71965 6.10376 8.71965ZM12.2075 7.84769C12.2075 8.32926 11.8171 8.71965 11.3355 8.71965C10.854 8.71965 10.4636 8.32926 10.4636 7.84769C10.4636 7.36611 10.854 6.97572 11.3355 6.97572C11.8171 6.97572 12.2075 7.36611 12.2075 7.84769ZM16.5673 8.71965C17.0489 8.71965 17.4393 8.32926 17.4393 7.84769C17.4393 7.36611 17.0489 6.97572 16.5673 6.97572C16.0858 6.97572 15.6954 7.36611 15.6954 7.84769C15.6954 8.32926 16.0858 8.71965 16.5673 8.71965Z" fill="#FDD96E"/>
</svg>
