<?xml version="1.0" encoding="UTF-8"?>
<!DOCTYPE svg PUBLIC "-//W3C//DTD SVG 1.1//EN" "http://www.w3.org/Graphics/SVG/1.1/DTD/svg11.dtd">
<!-- Creator: CorelDRAW 2018 (64-Bit) -->
<svg xmlns="http://www.w3.org/2000/svg" xml:space="preserve" width="49px" height="49px" version="1.1" shape-rendering="geometricPrecision" text-rendering="geometricPrecision" image-rendering="optimizeQuality" fill-rule="evenodd" clip-rule="evenodd"
viewBox="0 0 49 49"
 xmlns:xlink="http://www.w3.org/1999/xlink">
 <g id="Layer_x0020_1">
  <metadata id="CorelCorpID_0Corel-Layer"/>
  <g id="_1774660180224">
   <g>
    <path fill="#6F9935" d="M41.36 19.59l0 10.58 6.68 -2.53 -9.25 -23.24 -37.83 15.19 40.4 0zm0 0l0 0 0 0z"/>
   </g>
   <polygon fill="#658B30" points="43.28,29.44 43.28,17.67 5.75,17.67 2.88,18.82 2.88,19.59 41.36,19.59 41.36,30.17 "/>
   <polygon fill="#79A73A" points="0.96,19.59 41.36,19.59 41.36,44.6 0.96,44.6 "/>
   <path fill="#AAC16B" d="M4.81 27.97c2.18,-0.65 3.88,-2.35 4.53,-4.53l23.64 0c0.65,2.18 2.36,3.88 4.53,4.53l0 8.25c-2.17,0.65 -3.88,2.36 -4.53,4.53l-23.36 0 -0.28 0c-0.65,-2.17 -2.35,-3.88 -4.53,-4.53l0 -8.25z"/>
   <circle fill="#79A73A" cx="21.16" cy="32.1" r="4.81"/>
   <path fill="#AAC16B" d="M40.69 19.59l-2.28 -5.87 -0.1 -0.25c-2.26,0.2 -4.47,-0.76 -5.89,-2.54l-0.25 0.11 -20.63 8.55 29.15 0z"/>
   <polygon fill="#89B140" points="16.18,17.67 11.54,19.59 40.69,19.59 39.95,17.67 "/>
   <circle fill="#79A73A" cx="10.58" cy="32.1" r="0.96"/>
   <circle fill="#79A73A" cx="31.74" cy="32.1" r="0.96"/>
   <path fill="black" d="M0.96 45.56l40.4 0c0.53,0 0.96,-0.43 0.96,-0.96l0 -13.66 6.07 -2.42c0.5,-0.19 0.74,-0.75 0.54,-1.25 0,0 0,0 0,0l-9.25 -23.23c-0.2,-0.49 -0.76,-0.73 -1.25,-0.53 0,0 0,0 0,0l-37.53 14.94c-0.16,0.07 -0.29,0.17 -0.39,0.31 -0.31,0.16 -0.51,0.48 -0.51,0.83l0 25.01c0,0.53 0.43,0.96 0.96,0.96l0 0zm39.44 -1.92l-38.48 0 0 -23.09 38.48 0 0 23.09zm-8.25 -31.42c1.44,1.51 3.43,2.37 5.52,2.38l1.61 4.03 -23.23 0 16.1 -6.41zm14.64 14.87l-4.47 1.79 0 -9.29c0,-0.53 -0.43,-0.96 -0.96,-0.96l-0.01 0 -2.04 -5.12c-0.03,-0.04 -0.05,-0.08 -0.08,-0.12 -0.11,-0.46 -0.53,-0.78 -1.01,-0.74 -1.94,0.18 -3.84,-0.64 -5.04,-2.17 -0.3,-0.37 -0.83,-0.47 -1.23,-0.22 -0.05,0.01 -0.1,0.02 -0.14,0.03l-19.66 7.83c-0.24,0.09 -0.43,0.27 -0.53,0.51l-5.97 0 32.6 -12.98 8.54 21.44z"/>
   <path fill="black" d="M4.53 37.15c1.87,0.55 3.33,2.01 3.89,3.87 0.12,0.41 0.49,0.69 0.92,0.69 0.05,0 0.1,-0.01 0.15,-0.02 0.04,0.01 0.08,0.02 0.13,0.03l23.08 0c0.04,-0.01 0.08,-0.02 0.12,-0.03 0.48,0.12 0.97,-0.18 1.08,-0.66 0,0 0,0 0,0 0.56,-1.87 2.02,-3.33 3.89,-3.88 0.45,-0.14 0.73,-0.6 0.66,-1.06 0.01,-0.05 0.02,-0.1 0.03,-0.15l0 -7.69c-0.01,-0.05 -0.02,-0.1 -0.03,-0.14 0.07,-0.47 -0.21,-0.92 -0.66,-1.06 -1.87,-0.55 -3.33,-2.02 -3.88,-3.89 -0.14,-0.45 -0.6,-0.73 -1.07,-0.65 -0.04,-0.02 -0.09,-0.03 -0.14,-0.03l-23.08 0c-0.05,0 -0.1,0.01 -0.15,0.03 -0.46,-0.08 -0.91,0.2 -1.05,0.66 -0.56,1.87 -2.02,3.33 -3.89,3.88 -0.45,0.14 -0.73,0.59 -0.66,1.06 -0.01,0.04 -0.02,0.09 -0.02,0.14l0 7.69c0,0.05 0.01,0.09 0.02,0.14 -0.08,0.47 0.21,0.93 0.66,1.07l0 0zm5.48 -12.75l22.3 0c0.78,1.93 2.31,3.46 4.24,4.24l0 6.91c-1.93,0.78 -3.46,2.31 -4.24,4.24l-22.3 0c-0.78,-1.93 -2.31,-3.46 -4.24,-4.24l0 -6.91c1.93,-0.78 3.46,-2.31 4.24,-4.24l0 0z"/>
   <path fill="black" d="M21.16 37.87c3.19,0 5.77,-2.59 5.77,-5.77 0,-3.19 -2.58,-5.78 -5.77,-5.78 -3.19,0 -5.77,2.59 -5.77,5.78 0,3.18 2.58,5.77 5.77,5.77zm0 -9.62c2.13,0 3.85,1.72 3.85,3.85 0,2.12 -1.72,3.84 -3.85,3.84 -2.12,0 -3.85,-1.72 -3.85,-3.84 0,-2.13 1.73,-3.85 3.85,-3.85z"/>
   <path fill="black" d="M10.58 33.54c0.8,0 1.44,-0.65 1.44,-1.44 0,-0.8 -0.64,-1.45 -1.44,-1.45 -0.8,0 -1.44,0.65 -1.44,1.45 0,0.79 0.64,1.44 1.44,1.44zm0 -1.92c0.27,0 0.48,0.21 0.48,0.48 0,0.26 -0.21,0.48 -0.48,0.48 -0.27,0 -0.48,-0.22 -0.48,-0.48 0,-0.27 0.21,-0.48 0.48,-0.48z"/>
   <path fill="black" d="M31.74 33.54c0.8,0 1.44,-0.65 1.44,-1.44 0,-0.8 -0.64,-1.45 -1.44,-1.45 -0.79,0 -1.44,0.65 -1.44,1.45 0,0.79 0.65,1.44 1.44,1.44zm0 -1.92c0.27,0 0.48,0.21 0.48,0.48 0,0.26 -0.21,0.48 -0.48,0.48 -0.26,0 -0.48,-0.22 -0.48,-0.48 0,-0.27 0.22,-0.48 0.48,-0.48z"/>
  </g>
 </g>
</svg>
