<?xml version="1.0" encoding="UTF-8"?>
<!DOCTYPE svg PUBLIC "-//W3C//DTD SVG 1.1//EN" "http://www.w3.org/Graphics/SVG/1.1/DTD/svg11.dtd">
<!-- Creator: CorelDRAW 2018 (64-Bit) -->
<svg xmlns="http://www.w3.org/2000/svg" xml:space="preserve" width="49px" height="49px" version="1.1" shape-rendering="geometricPrecision" text-rendering="geometricPrecision" image-rendering="optimizeQuality" fill-rule="evenodd" clip-rule="evenodd"
viewBox="0 0 49 49"
 xmlns:xlink="http://www.w3.org/1999/xlink">
 <g id="Layer_x0020_1">
  <metadata id="CorelCorpID_0Corel-Layer"/>
  <g id="_1774604752016">
   <path fill="white" d="M10.77 13.71l-0.81 -1.41c-0.86,-1.48 -0.35,-3.39 1.14,-4.24l1.9 -1.11c1.49,-0.85 3.39,-0.34 4.25,1.14l0.76 1.33c0.75,-0.25 1.51,-0.46 2.28,-0.62l0 -0.41c-1.54,-0.22 -2.73,-1.54 -2.73,-3.14l0 -2.08c0,-1.75 1.42,-3.17 3.17,-3.17l7.54 0c1.75,0 3.17,1.42 3.17,3.17l0 2.08c0,1.6 -1.19,2.92 -2.73,3.14l0 0.41c9.3,1.96 16.11,10.23 16.11,19.88 0,11.21 -9.11,20.32 -20.32,20.32 -11.21,0 -20.32,-9.11 -20.32,-20.32 0,-5.73 2.41,-11.14 6.59,-14.97z"/>
   <g>
    <path fill="#3F6D8E" d="M15.19 9.3c-0.2,-0.35 -0.65,-0.47 -1.01,-0.27l-1.9 1.11c-0.36,0.2 -0.48,0.65 -0.28,1.01l1.81 3.13 0.31 0.04 2.86 -1.66 0 -0.26 -1.79 -3.1z"/>
    <path fill="#365E7D" d="M13.66 10.15c-0.14,-0.25 -0.15,-0.53 -0.07,-0.78l-1.31 0.77c-0.36,0.2 -0.48,0.65 -0.28,1.01l1.81 3.13 0.31 0.04 1.46 -0.85 -1.92 -3.32z"/>
    <polygon fill="#365E7D" points="26.14,5.91 22.83,5.91 22.66,6.08 22.66,10.85 22.81,11.04 26.06,11.04 26.34,10.85 26.34,6.08 "/>
    <polygon fill="#294B64" points="24.5,6.08 24.67,5.91 22.83,5.91 22.66,6.08 22.66,10.85 22.81,11.04 24.65,11.04 24.5,10.85 "/>
    <circle fill="#90D8F9" transform="matrix(0.0201505 -0.0201509 0.0201505 0.0201509 24.4907 28.7087)" r="629.95"/>
    <path fill="#75CEF9" d="M9.52 28.71c0,-9.42 7.25,-17.14 16.46,-17.89 -0.49,-0.04 -0.98,-0.07 -1.48,-0.07 -9.92,0 -17.96,8.04 -17.96,17.96 0,9.92 8.04,17.95 17.96,17.95 0.5,0 0.99,-0.02 1.48,-0.06 -9.21,-0.75 -16.46,-8.48 -16.46,-17.89z"/>
    <circle fill="#F4FBFF" transform="matrix(0.0201505 -0.0201509 0.0201505 0.0201509 24.4907 28.7087)" r="504.95"/>
    <path fill="#E4F6FF" d="M14.16 28.71c0,-7.25 5.38,-13.26 12.36,-14.25 -0.66,-0.09 -1.34,-0.14 -2.02,-0.14 -7.94,0 -14.4,6.45 -14.4,14.39 0,7.94 6.46,14.39 14.4,14.39 0.68,0 1.36,-0.05 2.02,-0.14 -6.98,-0.99 -12.36,-7 -12.36,-14.25z"/>
    <path fill="#3F6D8E" d="M28.27 2.4l-7.55 0c-0.44,0 -0.8,0.35 -0.8,0.8l0 2.08c0,0.44 0.36,0.8 0.8,0.8l7.55 0c0.44,0 0.8,-0.36 0.8,-0.8l0 -2.08c0,-0.45 -0.36,-0.8 -0.8,-0.8z"/>
    <path fill="#365E7D" d="M23.34 5.28l0 -2.08c0,-0.45 0.36,-0.8 0.8,-0.8l-3.42 0c-0.44,0 -0.8,0.35 -0.8,0.8l0 2.08c0,0.44 0.36,0.8 0.8,0.8l3.42 0c-0.44,0 -0.8,-0.36 -0.8,-0.8z"/>
    <path fill="#DD636E" d="M24.5 14.32l0 11.41 0.2 0.28 2.11 1.64 7.69 0 1.18 0.74 0.27 0.32 2.94 0c0,-7.94 -6.46,-14.39 -14.39,-14.39z"/>
    <path fill="#DA4A54" d="M27.37 14.6c-0.93,-0.18 -1.89,-0.28 -2.87,-0.28l0 11.41 0.2 0.28 2.11 1.64 0.56 0 0 -13.05 0 0z"/>
    <path fill="#FFAA5B" d="M21.84 27.37c-0.83,0 -1.45,0 -2.41,0 -0.74,0 -1.34,0.6 -1.34,1.34 0,0.74 0.6,1.34 1.34,1.34l2.41 0 0.13 -0.29 0 -2.15 -0.13 -0.24z"/>
    <path fill="#FFAA5B" d="M34.62 27.37c-0.92,0 -6.65,0 -7.46,0l-0.23 0.18 0 2.06 0.23 0.44 7.46 0c0.73,0 1.33,-0.6 1.33,-1.34 0,-0.74 -0.6,-1.34 -1.33,-1.34l0 0z"/>
    <path fill="#FF9838" d="M19.43 28.71c-0.49,0 -0.92,-0.27 -1.16,-0.67 -0.11,0.2 -0.18,0.43 -0.18,0.67 0,0.74 0.6,1.34 1.34,1.34l2.41 0 0.13 -0.29 0 -1.33 -0.13 0.28c-0.83,0 -1.45,0 -2.41,0z"/>
    <path fill="#FF9838" d="M34.62 28.71l-7.46 0 -0.23 -0.43 0 1.33 0.23 0.44 7.46 0c0.73,0 1.33,-0.6 1.33,-1.34 0,-0.24 -0.06,-0.47 -0.18,-0.67 -0.23,0.4 -0.66,0.67 -1.15,0.67z"/>
    <circle fill="#FFBA7E" transform="matrix(0.010916 -0.0263358 0.0263353 0.0109162 24.5064 28.7149)" r="104.49"/>
    <path fill="#FFAA5B" d="M23.61 28.71c0,-1.27 0.8,-2.36 1.93,-2.79 -0.32,-0.12 -0.68,-0.19 -1.04,-0.19 -1.65,0 -2.98,1.34 -2.98,2.98 0,1.64 1.33,2.98 2.98,2.98 0.36,0 0.72,-0.07 1.04,-0.19 -1.13,-0.43 -1.93,-1.52 -1.93,-2.79z"/>
    <path fill="black" d="M5.88 28.68c0,10.27 8.35,18.62 18.62,18.62 10.27,0 18.62,-8.35 18.62,-18.62 0,-9.42 -7.02,-17.22 -16.11,-18.45l0 -3.51 1.26 0c0.81,0 1.47,-0.66 1.47,-1.47l0 -2.08c0,-0.81 -0.66,-1.47 -1.47,-1.47l-2.21 0 -3.12 0 0 0 -2.21 0c-0.81,0 -1.47,0.66 -1.47,1.47l0 2.08c0,0.81 0.66,1.47 1.47,1.47l1.26 0 0 3.51c-1.65,0.22 -3.24,0.66 -4.73,1.29l-1.48 -2.58c-0.39,-0.67 -1.26,-0.9 -1.93,-0.51l-1.9 1.1c-0.68,0.39 -0.91,1.25 -0.52,1.92l1.52 2.63c-4.31,3.42 -7.07,8.69 -7.07,14.6l0 0zm20.18 -25.65l0.42 0 1.79 0c0.07,0 0.13,0.06 0.13,0.14l0 2.08c0,0.07 -0.06,0.13 -0.13,0.13 -0.59,0 -6.26,0 -7.54,0 -0.07,0 -0.13,-0.06 -0.13,-0.13l0 -2.08c0,-0.08 0.06,-0.14 0.13,-0.14l1.49 0 0 0 3.84 0zm-2.73 3.69l2.34 0 0 3.37c-0.75,-0.04 -1.56,-0.05 -2.34,0l0 -3.37zm-10.74 4.06c-0.02,-0.03 -0.01,-0.08 0.02,-0.1l1.91 -1.1c0.03,-0.02 0.08,0 0.1,0.03l1.43 2.47c-0.7,0.36 -1.37,0.76 -2.02,1.2l-1.44 -2.5zm10.73 0.65c0.79,-0.05 1.58,-0.05 2.36,0 8.99,0.62 16.11,8.12 16.11,17.25 0,9.53 -7.76,17.29 -17.29,17.29 -9.53,0 -17.29,-7.76 -17.29,-17.29 0,-9.14 7.13,-16.64 16.11,-17.25l0 0z"/>
    <path fill="black" d="M24.5 43.74c8.3,0 15.06,-6.76 15.06,-15.06 0,-8.32 -6.78,-15.06 -15.06,-15.06l0 0c-8.3,0 -15.06,6.76 -15.06,15.06 0,8.3 6.76,15.06 15.06,15.06zm-12.2 -21.34l0.53 0.31c0.32,0.19 0.72,0.08 0.91,-0.24 0.18,-0.32 0.07,-0.73 -0.24,-0.92l-0.53 -0.3c1.06,-1.64 2.46,-3.04 4.1,-4.1l0.3 0.52c0.19,0.32 0.6,0.43 0.92,0.25 0.32,-0.19 0.43,-0.59 0.24,-0.91l-0.3 -0.53c1.69,-0.88 3.59,-1.41 5.6,-1.51l0 4.55c0,0.37 0.3,0.67 0.67,0.67 0.37,0 0.67,-0.3 0.67,-0.67 0,-0.92 0,-3.64 0,-4.55 1.93,0.09 3.85,0.6 5.6,1.51l-0.3 0.53c-0.19,0.32 -0.08,0.72 0.24,0.91 0.32,0.18 0.73,0.07 0.91,-0.25l0.31 -0.52c1.6,1.03 3.01,2.41 4.1,4.1l-0.53 0.3c-0.32,0.19 -0.42,0.6 -0.24,0.92 0.18,0.32 0.59,0.43 0.91,0.24l0.53 -0.3c0.94,1.81 1.42,3.75 1.51,5.6 -0.6,0 -1.09,0 -1.7,0 -0.26,-0.76 -1.01,-1.33 -1.89,-1.33l-7.08 0c-0.55,-0.84 -1.41,-1.41 -2.37,-1.59l0 -2.45c0,-0.37 -0.3,-0.67 -0.67,-0.67 -0.37,0 -0.67,0.3 -0.67,0.67l0 2.46c-0.99,0.18 -1.84,0.76 -2.37,1.58l-2.03 0c-1.1,0 -2,0.89 -2,2 0,1.1 0.9,2 2,2l2.03 0c0.65,0.99 1.77,1.65 3.04,1.65 1.27,0 2.39,-0.66 3.04,-1.65l7.08 0c0.87,0 1.61,-0.56 1.89,-1.33l1.7 0c-0.1,2.01 -0.63,3.91 -1.51,5.6l-0.53 -0.3c-0.32,-0.19 -0.73,-0.08 -0.91,0.24 -0.18,0.32 -0.08,0.73 0.24,0.91l0.53 0.31c-1.06,1.64 -2.46,3.04 -4.1,4.1l-0.31 -0.53c-0.18,-0.31 -0.59,-0.42 -0.91,-0.24 -0.32,0.18 -0.43,0.59 -0.24,0.91l0.3 0.53c-1.69,0.88 -3.59,1.41 -5.6,1.51l0 -0.62c0,-0.37 -0.3,-0.67 -0.67,-0.67 -0.37,0 -0.67,0.3 -0.67,0.67l0 0.62c-2.01,-0.1 -3.91,-0.63 -5.6,-1.51l0.3 -0.53c0.19,-0.32 0.08,-0.73 -0.24,-0.91 -0.32,-0.18 -0.73,-0.08 -0.92,0.24l-0.3 0.53c-1.64,-1.06 -3.04,-2.46 -4.1,-4.1l0.53 -0.31c0.31,-0.18 0.42,-0.59 0.24,-0.91 -0.19,-0.32 -0.59,-0.43 -0.91,-0.24l-0.53 0.3c-0.88,-1.69 -1.41,-3.59 -1.51,-5.6l0.62 0c0.37,0 0.66,-0.3 0.66,-0.67 0,-0.37 -0.29,-0.67 -0.66,-0.67l-0.62 0c0.1,-2.01 0.63,-3.91 1.51,-5.61l0 0zm15.78 5.61l6.54 0c0.37,0 0.67,0.3 0.67,0.67 0,0.37 -0.3,0.67 -0.67,0.67l-6.54 0c0.09,-0.43 0.09,-0.91 0,-1.34zm-1.52 1.71c-0.38,0.75 -1.16,1.27 -2.06,1.27 -1.29,0 -2.31,-1.05 -2.31,-2.31 0,-1.27 1.03,-2.31 2.31,-2.31 1.65,0 2.83,1.71 2.06,3.35zm-5.65 -0.37l-1.48 0c-0.36,0 -0.66,-0.3 -0.66,-0.67 0,-0.37 0.3,-0.67 0.66,-0.67l1.48 0c-0.08,0.45 -0.07,0.92 0,1.34z"/>
   </g>
  </g>
 </g>
</svg>
