<?xml version="1.0" encoding="UTF-8"?>
<!DOCTYPE svg PUBLIC "-//W3C//DTD SVG 1.1//EN" "http://www.w3.org/Graphics/SVG/1.1/DTD/svg11.dtd">
<!-- Creator: CorelDRAW 2018 (64-Bit) -->
<svg xmlns="http://www.w3.org/2000/svg" xml:space="preserve" width="49px" height="49px" version="1.1" shape-rendering="geometricPrecision" text-rendering="geometricPrecision" image-rendering="optimizeQuality" fill-rule="evenodd" clip-rule="evenodd"
viewBox="0 0 49 49"
 xmlns:xlink="http://www.w3.org/1999/xlink">
 <defs>
     <clipPath id="id0">
      <path d="M24.5 3.49c11.6,0 21.01,9.41 21.01,21.01 0,11.6 -9.41,21.01 -21.01,21.01 -11.6,0 -21.01,-9.41 -21.01,-21.01 0,-11.6 9.41,-21.01 21.01,-21.01z"/>
     </clipPath>
     <clipPath id="id1">
      <path d="M24.65 9.31c3.64,0 6.59,2.95 6.59,6.59 0,3.64 -2.95,6.59 -6.59,6.59 -3.64,0 -6.59,-2.95 -6.59,-6.59 0,-3.64 2.95,-6.59 6.59,-6.59z"/>
     </clipPath>
     <clipPath id="id2">
      <path d="M23.56 23.49c7.88,0 14.96,3.56 14.96,15.02 0,0 0.86,4.92 -11,7.22 -11.87,2.29 -17.94,-5.33 -17.02,-10.03 0.91,-4.7 6.19,-12.21 13.06,-12.21z"/>
     </clipPath>
     <clipPath id="id3">
      <path d="M24.5 46.68c5.23,0 10.3,-1.85 14.3,-5.23l0.01 -0.01 0.02 -0.01 0.01 -0.01 0.02 -0.01 0.01 -0.02 0.01 -0.01 0.01 0c0.92,-0.79 1.78,-1.65 2.57,-2.58 3.37,-4 5.22,-9.08 5.22,-14.3 0,-5.92 -2.31,-11.49 -6.5,-15.68 -4.18,-4.19 -9.75,-6.5 -15.68,-6.5 -5.92,0 -11.49,2.31 -15.68,6.5 -4.19,4.19 -6.5,9.76 -6.5,15.68 0,5.22 1.85,10.3 5.22,14.3 0.79,0.93 1.65,1.8 2.58,2.59l0.02 0.01 0.02 0.02 0 0 0.01 0.01c4,3.39 9.09,5.25 14.33,5.25zm0 -38.7c-4.42,0 -8.02,3.6 -8.02,8.02 0,2.84 1.48,5.34 3.71,6.77 -2.41,0.71 -4.62,2.03 -6.44,3.87 -2.8,2.84 -4.35,6.61 -4.35,10.61 0,0.28 0.01,0.56 0.03,0.85 -0.16,-0.17 -0.31,-0.34 -0.45,-0.52 -3.09,-3.65 -4.78,-8.3 -4.78,-13.08 0,-11.19 9.11,-20.3 20.3,-20.3 11.19,0 20.3,9.11 20.3,20.3 0,4.78 -1.69,9.43 -4.78,13.08 -0.14,0.18 -0.29,0.35 -0.45,0.52 0.02,-0.29 0.03,-0.57 0.03,-0.85 0,-4 -1.55,-7.77 -4.35,-10.61 -1.82,-1.84 -4.02,-3.16 -6.44,-3.87 2.23,-1.43 3.71,-3.93 3.71,-6.77 0,-4.42 -3.6,-8.02 -8.02,-8.02zm0 1.88c3.39,0 6.14,2.76 6.14,6.14 0,3.39 -2.75,6.14 -6.14,6.14 -3.39,0 -6.14,-2.75 -6.14,-6.14 0,-3.38 2.75,-6.14 6.14,-6.14zm-12.89 30.32c-0.22,-0.96 -0.33,-1.95 -0.33,-2.93 0,-7.18 5.83,-13.18 13.03,-13.22l0.38 0c7.2,0.04 13.03,6.04 13.03,13.22 0,0.98 -0.11,1.97 -0.33,2.93 -3.62,2.99 -8.19,4.62 -12.89,4.62 -4.7,0 -9.27,-1.64 -12.89,-4.62z"/>
     </clipPath>
 </defs>
 <g id="Layer_x0020_1">
  <metadata id="CorelCorpID_0Corel-Layer"/>
  <g id="_1774836822256">
   <path fill="white" d="M40.45 43.1c-0.03,0.03 -0.06,0.05 -0.09,0.07 -0.02,0.02 -0.04,0.04 -0.07,0.06 -4.41,3.73 -10.02,5.77 -15.79,5.77 -5.79,0 -11.42,-2.05 -15.83,-5.8l-0.05 -0.05c-1.03,-0.87 -1.98,-1.83 -2.85,-2.86 -3.73,-4.41 -5.77,-10.02 -5.77,-15.79 0,-6.54 2.55,-12.7 7.18,-17.32 4.62,-4.63 10.78,-7.18 17.32,-7.18 6.54,0 12.7,2.55 17.32,7.18 4.63,4.62 7.18,10.78 7.18,17.32 0,5.77 -2.04,11.38 -5.77,15.79 -0.85,1.01 -1.78,1.95 -2.78,2.81z"/>
   <g>
    <path fill="#FEF1DA" d="M24.5 3.49c11.6,0 21.01,9.41 21.01,21.01 0,11.6 -9.41,21.01 -21.01,21.01 -11.6,0 -21.01,-9.41 -21.01,-21.01 0,-11.6 9.41,-21.01 21.01,-21.01z"/>
    <g clip-path="url(#id0)">
     <g>
      <polygon id="1" fill="white" fill-opacity="0.600000" points="-14.32,-6.75 58.79,-6.75 58.79,52.84 -14.32,52.84 "/>
     </g>
    </g>
    <path fill="none" d="M24.5 3.49c11.6,0 21.01,9.41 21.01,21.01 0,11.6 -9.41,21.01 -21.01,21.01 -11.6,0 -21.01,-9.41 -21.01,-21.01 0,-11.6 9.41,-21.01 21.01,-21.01z"/>
    <path fill="#FBC700" d="M24.65 9.31c3.64,0 6.59,2.95 6.59,6.59 0,3.64 -2.95,6.59 -6.59,6.59 -3.64,0 -6.59,-2.95 -6.59,-6.59 0,-3.64 2.95,-6.59 6.59,-6.59z"/>
    <g clip-path="url(#id1)">
     <g>
      <polygon id="1" fill="white" fill-opacity="0.600000" points="-14.32,-6.75 58.79,-6.75 58.79,52.84 -14.32,52.84 "/>
     </g>
    </g>
    <path fill="none" d="M24.65 9.31c3.64,0 6.59,2.95 6.59,6.59 0,3.64 -2.95,6.59 -6.59,6.59 -3.64,0 -6.59,-2.95 -6.59,-6.59 0,-3.64 2.95,-6.59 6.59,-6.59z"/>
    <path fill="#FBC700" d="M23.56 23.49c7.88,0 14.96,3.56 14.96,15.02 0,0 0.86,4.92 -11,7.22 -11.87,2.29 -17.94,-5.33 -17.02,-10.03 0.91,-4.7 6.19,-12.21 13.06,-12.21z"/>
    <g clip-path="url(#id2)">
     <g>
      <polygon id="1" fill="white" fill-opacity="0.600000" points="-14.32,-6.75 58.79,-6.75 58.79,52.84 -14.32,52.84 "/>
     </g>
    </g>
    <path fill="none" d="M23.56 23.49c7.88,0 14.96,3.56 14.96,15.02 0,0 0.86,4.92 -11,7.22 -11.87,2.29 -17.94,-5.33 -17.02,-10.03 0.91,-4.7 6.19,-12.21 13.06,-12.21z"/>
    <path fill="black" d="M24.5 46.68c5.23,0 10.3,-1.85 14.3,-5.23l0.01 -0.01 0.02 -0.01 0.01 -0.01 0.02 -0.01 0.01 -0.02 0.01 -0.01 0.01 0c0.92,-0.79 1.78,-1.65 2.57,-2.58 3.37,-4 5.22,-9.08 5.22,-14.3 0,-5.92 -2.31,-11.49 -6.5,-15.68 -4.18,-4.19 -9.75,-6.5 -15.68,-6.5 -5.92,0 -11.49,2.31 -15.68,6.5 -4.19,4.19 -6.5,9.76 -6.5,15.68 0,5.22 1.85,10.3 5.22,14.3 0.79,0.93 1.65,1.8 2.58,2.59l0.02 0.01 0.02 0.02 0 0 0.01 0.01c4,3.39 9.09,5.25 14.33,5.25zm0 -38.7c-4.42,0 -8.02,3.6 -8.02,8.02 0,2.84 1.48,5.34 3.71,6.77 -2.41,0.71 -4.62,2.03 -6.44,3.87 -2.8,2.84 -4.35,6.61 -4.35,10.61 0,0.28 0.01,0.56 0.03,0.85 -0.16,-0.17 -0.31,-0.34 -0.45,-0.52 -3.09,-3.65 -4.78,-8.3 -4.78,-13.08 0,-11.19 9.11,-20.3 20.3,-20.3 11.19,0 20.3,9.11 20.3,20.3 0,4.78 -1.69,9.43 -4.78,13.08 -0.14,0.18 -0.29,0.35 -0.45,0.52 0.02,-0.29 0.03,-0.57 0.03,-0.85 0,-4 -1.55,-7.77 -4.35,-10.61 -1.82,-1.84 -4.02,-3.16 -6.44,-3.87 2.23,-1.43 3.71,-3.93 3.71,-6.77 0,-4.42 -3.6,-8.02 -8.02,-8.02zm0 1.88c3.39,0 6.14,2.76 6.14,6.14 0,3.39 -2.75,6.14 -6.14,6.14 -3.39,0 -6.14,-2.75 -6.14,-6.14 0,-3.38 2.75,-6.14 6.14,-6.14zm-12.89 30.32c-0.22,-0.96 -0.33,-1.95 -0.33,-2.93 0,-7.18 5.83,-13.18 13.03,-13.22l0.38 0c7.2,0.04 13.03,6.04 13.03,13.22 0,0.98 -0.11,1.97 -0.33,2.93 -3.62,2.99 -8.19,4.62 -12.89,4.62 -4.7,0 -9.27,-1.64 -12.89,-4.62z"/>
    <g clip-path="url(#id3)">
     <g>
      <polygon id="1" fill="white" fill-opacity="0.600000" points="-14.32,-6.75 58.79,-6.75 58.79,52.84 -14.32,52.84 "/>
     </g>
    </g>
    <path fill="none" d="M24.5 46.68c5.23,0 10.3,-1.85 14.3,-5.23l0.01 -0.01 0.02 -0.01 0.01 -0.01 0.02 -0.01 0.01 -0.02 0.01 -0.01 0.01 0c0.92,-0.79 1.78,-1.65 2.57,-2.58 3.37,-4 5.22,-9.08 5.22,-14.3 0,-5.92 -2.31,-11.49 -6.5,-15.68 -4.18,-4.19 -9.75,-6.5 -15.68,-6.5 -5.92,0 -11.49,2.31 -15.68,6.5 -4.19,4.19 -6.5,9.76 -6.5,15.68 0,5.22 1.85,10.3 5.22,14.3 0.79,0.93 1.65,1.8 2.58,2.59l0.02 0.01 0.02 0.02 0 0 0.01 0.01c4,3.39 9.09,5.25 14.33,5.25zm0 -38.7c-4.42,0 -8.02,3.6 -8.02,8.02 0,2.84 1.48,5.34 3.71,6.77 -2.41,0.71 -4.62,2.03 -6.44,3.87 -2.8,2.84 -4.35,6.61 -4.35,10.61 0,0.28 0.01,0.56 0.03,0.85 -0.16,-0.17 -0.31,-0.34 -0.45,-0.52 -3.09,-3.65 -4.78,-8.3 -4.78,-13.08 0,-11.19 9.11,-20.3 20.3,-20.3 11.19,0 20.3,9.11 20.3,20.3 0,4.78 -1.69,9.43 -4.78,13.08 -0.14,0.18 -0.29,0.35 -0.45,0.52 0.02,-0.29 0.03,-0.57 0.03,-0.85 0,-4 -1.55,-7.77 -4.35,-10.61 -1.82,-1.84 -4.02,-3.16 -6.44,-3.87 2.23,-1.43 3.71,-3.93 3.71,-6.77 0,-4.42 -3.6,-8.02 -8.02,-8.02zm0 1.88c3.39,0 6.14,2.76 6.14,6.14 0,3.39 -2.75,6.14 -6.14,6.14 -3.39,0 -6.14,-2.75 -6.14,-6.14 0,-3.38 2.75,-6.14 6.14,-6.14zm-12.89 30.32c-0.22,-0.96 -0.33,-1.95 -0.33,-2.93 0,-7.18 5.83,-13.18 13.03,-13.22l0.38 0c7.2,0.04 13.03,6.04 13.03,13.22 0,0.98 -0.11,1.97 -0.33,2.93 -3.62,2.99 -8.19,4.62 -12.89,4.62 -4.7,0 -9.27,-1.64 -12.89,-4.62z"/>
   </g>
  </g>
 </g>
</svg>
