<?xml version="1.0" encoding="UTF-8"?>
<!DOCTYPE svg PUBLIC "-//W3C//DTD SVG 1.1//EN" "http://www.w3.org/Graphics/SVG/1.1/DTD/svg11.dtd">
<!-- Creator: CorelDRAW 2018 (64-Bit) -->
<svg xmlns="http://www.w3.org/2000/svg" xml:space="preserve" width="49px" height="49px" version="1.1" shape-rendering="geometricPrecision" text-rendering="geometricPrecision" image-rendering="optimizeQuality" fill-rule="evenodd" clip-rule="evenodd"
viewBox="0 0 49 49"
 xmlns:xlink="http://www.w3.org/1999/xlink">
 <g id="Layer_x0020_1">
  <metadata id="CorelCorpID_0Corel-Layer"/>
  <g id="_1774630197504">
   <polygon fill="#E55934" points="48.18,16.33 0.82,16.33 4.08,0.82 44.92,0.82 "/>
   <polygon fill="#EA7A5D" points="4.08,4.08 44.92,4.08 47.5,16.33 48.18,16.33 44.92,0.82 4.08,0.82 0.82,16.33 1.5,16.33 "/>
   <path fill="#AC4327" d="M46.55 44.92l-44.1 0c-0.9,0 -1.63,0.73 -1.63,1.63l0 1.63 47.36 0 0 -1.63c0,-0.9 -0.73,-1.63 -1.63,-1.63z"/>
   <rect fill="#FDF1CC" x="26.13" y="16.33" width="20.42" height="20.42"/>
   <rect fill="#E55934" x="26.13" y="36.75" width="20.42" height="8.17"/>
   <rect fill="#AC4327" x="3.27" y="16.33" width="22.87" height="3.27"/>
   <g>
    <rect fill="#FDF1CC" x="3.27" y="19.6" width="11.43" height="25.32"/>
    <rect fill="#FDF1CC" x="14.7" y="19.6" width="11.43" height="25.32"/>
   </g>
   <polygon fill="#F5BB00" points="35.93,13.07 13.07,13.07 16.33,6.53 32.67,6.53 "/>
   <rect fill="#B88C00" x="13.07" y="13.07" width="22.87" height="3.27"/>
   <g>
    <path fill="#F5BB00" d="M30.22 34.3l-2.45 0c-0.91,0 -1.64,0.73 -1.64,1.63l0 0.82 5.72 0 0 -0.82c0,-0.9 -0.73,-1.63 -1.63,-1.63z"/>
    <path fill="#F5BB00" d="M35.93 34.3l-2.45 0c-0.9,0 -1.63,0.73 -1.63,1.63l0 0.82 5.72 0 0 -0.82c0,-0.9 -0.73,-1.63 -1.64,-1.63z"/>
    <path fill="#F5BB00" d="M41.65 34.3l-2.45 0c-0.9,0 -1.63,0.73 -1.63,1.63l0 0.82 5.71 0 0 -0.82c0,-0.9 -0.73,-1.63 -1.63,-1.63z"/>
    <path fill="#F5BB00" d="M46.55 34.3l-1.63 0c-0.91,0 -1.64,0.73 -1.64,1.63l0 0.82 3.27 0 0 -2.45 0 0z"/>
    <path fill="#F5BB00" d="M31.85 21.23l-4.08 0c-0.91,0 -1.64,-0.73 -1.64,-1.63l0 -3.27 7.35 0 0 3.27c0,0.9 -0.73,1.63 -1.63,1.63z"/>
    <path fill="#F5BB00" d="M38.38 21.23l-3.26 0c-0.91,0 -1.64,-0.73 -1.64,-1.63l0 -3.27 6.54 0 0 3.27c0,0.9 -0.73,1.63 -1.64,1.63z"/>
    <path fill="#F5BB00" d="M44.92 21.23l-3.27 0c-0.9,0 -1.63,-0.73 -1.63,-1.63l0 -3.27 6.53 0 0 3.27c0,0.9 -0.73,1.63 -1.63,1.63z"/>
   </g>
   <path fill="black" d="M13.88 13.88l-2.45 0c-0.45,0 -0.81,-0.36 -0.81,-0.81 0,-0.46 0.36,-0.82 0.81,-0.82l2.45 0c0.46,0 0.82,0.36 0.82,0.82 0,0.45 -0.36,0.81 -0.82,0.81z"/>
   <path fill="black" d="M47.37 44.25l0 -7.5 0 -2.45 0 -14.7 0 -2.45 0.81 0c0.25,0 0.48,-0.11 0.64,-0.3 0.15,-0.19 0.21,-0.44 0.16,-0.69l-3.26 -15.51c-0.08,-0.38 -0.42,-0.65 -0.8,-0.65l-40.84 0c-0.38,0 -0.72,0.27 -0.8,0.65l-3.26 15.51c-0.05,0.25 0.01,0.5 0.16,0.69 0.16,0.19 0.39,0.3 0.64,0.3l1.63 0 0 2.45 0 24.5c-1.35,0 -2.45,1.1 -2.45,2.45l0 1.63c0,0.45 0.36,0.82 0.82,0.82l47.36 0c0.46,0 0.82,-0.37 0.82,-0.82l0 -1.63c0,-1.06 -0.69,-1.96 -1.63,-2.3zm-31.85 -0.15l0 -23.68 9.8 0 0 15.51 0 0.82 0 7.35 -9.8 0 0 0zm22.86 -8.17c0,-0.45 0.37,-0.81 0.82,-0.81l2.45 0c0.45,0 0.82,0.36 0.82,0.81l-4.09 0zm-5.71 0c0,-0.45 0.36,-0.81 0.81,-0.81l2.45 0c0.45,0 0.82,0.36 0.82,0.81l-4.08 0zm-5.72 0c0,-0.45 0.37,-0.81 0.82,-0.81l2.45 0c0.45,0 0.81,0.36 0.81,0.81l-4.08 0zm18.78 0l-1.63 0c0,-0.45 0.37,-0.81 0.82,-0.81l0.81 0 0 0.81 0 0zm0 -2.45l-0.81 0c-0.63,0 -1.2,0.25 -1.64,0.64 -0.43,-0.39 -1,-0.64 -1.63,-0.64l-2.45 0c-0.63,0 -1.2,0.25 -1.63,0.64 -0.44,-0.39 -1.01,-0.64 -1.64,-0.64l-2.45 0c-0.63,0 -1.2,0.25 -1.63,0.64 -0.43,-0.39 -1,-0.64 -1.63,-0.64l-2.45 0c-0.29,0 -0.56,0.06 -0.82,0.15l0 -11.73c0.26,0.09 0.53,0.15 0.82,0.15l4.08 0c0.63,0 1.2,-0.25 1.63,-0.64 0.44,0.39 1.01,0.64 1.64,0.64l3.26 0c0.63,0 1.2,-0.25 1.64,-0.64 0.43,0.39 1,0.64 1.63,0.64l3.27 0c0.28,0 0.56,-0.06 0.81,-0.15l0 11.58 0 0zm-6.53 -13.88c0,0.45 -0.37,0.82 -0.82,0.82l-3.26 0c-0.45,0 -0.82,-0.37 -0.82,-0.82l0 -2.45 1.63 0 3.27 0 0 2.45 0 0zm-24.81 -7.35l2.45 -4.9 15.32 0 2.45 4.9 -20.22 0zm-0.51 1.63l21.24 0 0 1.64 -1.64 0 -7.35 0 -12.25 0 0 -1.64zm18.79 3.27l0 2.45c0,0.45 -0.37,0.82 -0.82,0.82l-4.08 0c-0.45,0 -0.82,-0.37 -0.82,-0.82l0 -2.45 5.72 0 0 0zm-5.72 20.42l4.9 0 5.72 0 5.71 0 2.45 0 0 6.53 -18.78 0 0 -6.53zm18.78 -17.97c0,0.45 -0.36,0.82 -0.81,0.82l-3.27 0c-0.45,0 -0.82,-0.37 -0.82,-0.82l0 -2.45 4.9 0 0 2.45 0 0zm-40.98 -17.97l39.5 0 2.93 13.89 -0.63 0 -6.53 0 -3.27 0 0 -1.64 0.82 0c0.45,0 0.81,-0.36 0.81,-0.81 0,-0.46 -0.36,-0.82 -0.81,-0.82l-1.13 0 -3.04 -6.08c-0.14,-0.28 -0.42,-0.45 -0.73,-0.45l-16.34 0c-0.31,0 -0.59,0.17 -0.73,0.45l-3.26 6.53c-0.01,0.01 -0.01,0.02 -0.01,0.03 -0.01,0.02 -0.02,0.04 -0.02,0.06 -0.03,0.08 -0.05,0.16 -0.05,0.25 0,0.01 -0.01,0.01 -0.01,0.03l0 2.45 -8.98 0 -1.45 0 2.93 -13.89zm8.32 15.52l12.25 0 0 1.63 -10.62 0 -10.62 0 0 -1.63 8.99 0zm-8.99 3.27l9.8 0 0 23.68 -9.8 0 0 -23.68zm43.29 26.95l-45.74 0 0 -0.82c0,-0.45 0.37,-0.82 0.82,-0.82l0.82 0 11.43 0 11.43 0 20.42 0c0.45,0 0.82,0.37 0.82,0.82l0 0.82 0 0z"/>
   <path fill="black" d="M11.43 30.22c-0.45,0 -0.81,0.36 -0.81,0.81l0 2.45c0,0.45 0.36,0.82 0.81,0.82 0.45,0 0.82,-0.37 0.82,-0.82l0 -2.45c0,-0.45 -0.37,-0.81 -0.82,-0.81z"/>
   <path fill="black" d="M17.97 30.22c-0.46,0 -0.82,0.36 -0.82,0.81l0 2.45c0,0.45 0.36,0.82 0.82,0.82 0.45,0 0.81,-0.37 0.81,-0.82l0 -2.45c0,-0.45 -0.36,-0.81 -0.81,-0.81z"/>
   <path fill="black" d="M31.03 39.2l-1.63 0c-0.45,0 -0.82,0.36 -0.82,0.82 0,0.45 0.37,0.81 0.82,0.81l1.63 0c0.46,0 0.82,-0.36 0.82,-0.81 0,-0.46 -0.36,-0.82 -0.82,-0.82z"/>
   <path fill="black" d="M35.93 40.83l-1.63 0c-0.45,0 -0.82,0.37 -0.82,0.82 0,0.45 0.37,0.82 0.82,0.82l1.63 0c0.46,0 0.82,-0.37 0.82,-0.82 0,-0.45 -0.37,-0.82 -0.82,-0.82z"/>
   <path fill="black" d="M43.28 39.2l-4.08 0c-0.45,0 -0.82,0.36 -0.82,0.82 0,0.45 0.37,0.81 0.82,0.81l4.08 0c0.45,0 0.82,-0.36 0.82,-0.81 0,-0.46 -0.37,-0.82 -0.82,-0.82z"/>
   <path fill="black" d="M34.76 25.74l-2.89 2.89c-0.32,0.32 -0.32,0.84 0,1.16 0.16,0.16 0.37,0.24 0.58,0.24 0.21,0 0.42,-0.08 0.58,-0.24l2.88 -2.89c0.32,-0.32 0.32,-0.84 0,-1.16 -0.32,-0.31 -0.83,-0.31 -1.15,0z"/>
   <path fill="black" d="M40.47 25.74l-2.88 2.89c-0.32,0.32 -0.32,0.84 0,1.16 0.16,0.16 0.37,0.24 0.58,0.24 0.2,0 0.41,-0.08 0.57,-0.24l2.89 -2.89c0.32,-0.32 0.32,-0.84 0,-1.16 -0.32,-0.31 -0.84,-0.31 -1.16,0z"/>
  </g>
 </g>
</svg>
