<svg width="32" height="31" viewBox="0 0 32 31" fill="none" xmlns="http://www.w3.org/2000/svg">
<path d="M30.4742 7.22363C30.2315 9.55609 28.3105 11.3552 26 11.3552C23.6895 11.3552 21.7685 9.55609 21.5258 7.22363H30.4742ZM11.5258 7.22363H20.4742C20.2315 9.55609 18.3105 11.3552 16 11.3552C13.6895 11.3552 11.7685 9.55608 11.5258 7.22363ZM1.52584 7.22363H10.4742C10.2315 9.55608 8.31049 11.3552 6 11.3552C3.68951 11.3552 1.76849 9.55608 1.52584 7.22363Z" stroke="black"/>
<path d="M31 6.72368L27.8542 1H4.22251L1 6.72368" stroke="black"/>
<path d="M15.9012 17.4868C18.0826 17.4868 19.842 19.2354 19.842 21.3813V30.0066H11.9604V21.3813C11.9604 19.2354 13.7199 17.4868 15.9012 17.4868Z" stroke="black"/>
<path d="M20.2434 30H31V6.72363M11.5592 30H1V6.72363" stroke="black"/>
</svg>
