<?xml version="1.0" encoding="UTF-8"?>
<!DOCTYPE svg PUBLIC "-//W3C//DTD SVG 1.1//EN" "http://www.w3.org/Graphics/SVG/1.1/DTD/svg11.dtd">
<!-- Creator: CorelDRAW 2018 (64-Bit) -->
<svg xmlns="http://www.w3.org/2000/svg" xml:space="preserve" width="49px" height="49px" version="1.1" shape-rendering="geometricPrecision" text-rendering="geometricPrecision" image-rendering="optimizeQuality" fill-rule="evenodd" clip-rule="evenodd"
viewBox="0 0 49 49"
 xmlns:xlink="http://www.w3.org/1999/xlink">
 <defs>
    <clipPath id="id0">
     <path d="M2.96 6.46l0 -0.08c0,-1.28 1.04,-2.31 2.31,-2.31l2.96 0c1.25,0 2.27,0.98 2.32,2.21l1.28 0c0.05,-1.23 1.07,-2.21 2.32,-2.21l2.95 0c1.25,0 2.27,0.98 2.32,2.21l1.29 0c0.05,-1.23 1.07,-2.21 2.31,-2.21l2.96 0c1.24,0 2.26,0.98 2.31,2.21l1.29 0c0.05,-1.23 1.07,-2.21 2.31,-2.21l2.96 0c1.25,0 2.26,0.98 2.32,2.21l1.28 0c0.05,-1.23 1.07,-2.21 2.32,-2.21l2.96 0c1.27,0 2.31,1.03 2.31,2.31l0 0.08c1.71,0.52 2.96,2.11 2.96,3.99l0 30.32c0,2.3 -1.87,4.16 -4.17,4.16l-40.66 0c-2.3,0 -4.17,-1.86 -4.17,-4.16l0 -30.32c0,-1.88 1.25,-3.47 2.96,-3.99z"/>
    </clipPath>
    <clipPath id="id1" clip-rule="nonzero">
     <path d="M46.68 10.45l0 2.59 -44.36 0 0 -2.59c0,-1.02 0.82,-1.85 1.84,-1.85l0.01 0 1.1 0 0 2.22 2.96 0 0 -2.22 5.92 0 0 2.22 2.96 0 0 -2.22 5.91 0 0 2.22 2.96 0 0 -2.22 5.91 0 0 2.22 2.96 0 0 -2.22 5.92 0 0 2.22 2.96 0 0 -2.22 1.1 0c1.02,0 1.85,0.83 1.85,1.85l0 0z"/>
    </clipPath>
    <clipPath id="id2" clip-rule="nonzero">
     <path d="M5.27 8.6l2.96 0 0 2.22 -2.96 0 0 -2.22z"/>
    </clipPath>
    <clipPath id="id3" clip-rule="nonzero">
     <path d="M14.15 8.6l2.96 0 0 2.22 -2.96 0 0 -2.22z"/>
    </clipPath>
    <clipPath id="id4" clip-rule="nonzero">
     <path d="M23.02 8.6l2.96 0 0 2.22 -2.96 0 0 -2.22z"/>
    </clipPath>
    <clipPath id="id5" clip-rule="nonzero">
     <path d="M31.89 8.6l2.96 0 0 2.22 -2.96 0 0 -2.22z"/>
    </clipPath>
    <clipPath id="id6" clip-rule="nonzero">
     <path d="M40.77 8.6l2.96 0 0 2.22 -2.96 0 0 -2.22z"/>
    </clipPath>
    <clipPath id="id7" clip-rule="nonzero">
     <path d="M46.68 13.04l0 27.73c0,1.02 -0.82,1.85 -1.84,1.85l-0.01 0 -40.66 0c-1.02,0 -1.85,-0.83 -1.85,-1.85l0 0 0 -27.73 44.36 0z"/>
    </clipPath>
    <clipPath id="id8" clip-rule="nonzero">
     <path d="M23.02 6.38l2.96 0 0 4.44 -2.96 0 0 -4.44z"/>
    </clipPath>
    <clipPath id="id9" clip-rule="nonzero">
     <path d="M14.15 6.38l2.96 0 0 4.44 -2.96 0 0 -4.44z"/>
    </clipPath>
    <clipPath id="id10" clip-rule="nonzero">
     <path d="M5.27 6.38l2.96 0 0 4.44 -2.96 0 0 -4.44z"/>
    </clipPath>
    <clipPath id="id11" clip-rule="nonzero">
     <path d="M40.77 6.38l2.96 0 0 4.44 -2.96 0 0 -4.44z"/>
    </clipPath>
    <clipPath id="id12" clip-rule="nonzero">
     <path d="M31.89 6.38l2.96 0 0 4.44 -2.96 0 0 -4.44z"/>
    </clipPath>
    <clipPath id="id13" clip-rule="nonzero">
     <path d="M45.94 12.3l-42.88 0 0 -1.85c0,-0.61 0.49,-1.11 1.11,-1.11l0.37 0 0 1.48c0,0.41 0.33,0.74 0.73,0.74l2.96 0c0.41,0 0.74,-0.33 0.74,-0.74l0 -1.48 4.44 0 0 1.48c0,0.41 0.33,0.74 0.74,0.74l2.96 0c0.4,0 0.74,-0.33 0.74,-0.74l0 -1.48 4.43 0 0 1.48c0,0.41 0.33,0.74 0.74,0.74l2.96 0c0.41,0 0.74,-0.33 0.74,-0.74l0 -1.48 4.43 0 0 1.48c0,0.41 0.34,0.74 0.74,0.74l2.96 0c0.41,0 0.74,-0.33 0.74,-0.74l0 -1.48 4.44 0 0 1.48c0,0.41 0.33,0.74 0.74,0.74l2.96 0c0.4,0 0.73,-0.33 0.73,-0.74l0 -1.48 0.37 0c0.62,0 1.11,0.5 1.11,1.11l0 1.85zm0 28.47c0,0.61 -0.49,1.11 -1.11,1.11l-40.66 0c-0.62,0 -1.11,-0.5 -1.11,-1.11l0 -26.99 42.88 0 0 26.99zm-39.93 -33.65l1.48 0 0 2.96 -1.48 0 0 -2.96zm8.88 0l1.48 0 0 2.96 -1.48 0 0 -2.96zm8.87 0l1.48 0 0 2.96 -1.48 0 0 -2.96zm8.87 0l1.48 0 0 2.96 -1.48 0 0 -2.96zm8.88 0l1.48 0 0 2.96 -1.48 0 0 -2.96zm3.32 0.74l-0.37 0 0 -1.48c0,-0.4 -0.33,-0.74 -0.73,-0.74l-2.96 0c-0.41,0 -0.74,0.34 -0.74,0.74l0 1.48 -4.44 0 0 -1.48c0,-0.4 -0.33,-0.74 -0.74,-0.74l-2.96 0c-0.4,0 -0.74,0.34 -0.74,0.74l0 1.48 -4.43 0 0 -1.48c0,-0.4 -0.33,-0.74 -0.74,-0.74l-2.96 0c-0.41,0 -0.74,0.34 -0.74,0.74l0 1.48 -4.43 0 0 -1.48c0,-0.4 -0.34,-0.74 -0.74,-0.74l-2.96 0c-0.41,0 -0.74,0.34 -0.74,0.74l0 1.48 -4.44 0 0 -1.48c0,-0.4 -0.33,-0.74 -0.74,-0.74l-2.96 0c-0.4,0 -0.73,0.34 -0.73,0.74l0 1.48 -0.37 0c-1.43,0 -2.59,1.16 -2.59,2.59l0 30.32c0,1.43 1.16,2.58 2.59,2.59l40.66 0c1.43,-0.01 2.59,-1.16 2.59,-2.59l0 -30.32c0,-1.43 -1.16,-2.59 -2.59,-2.59z"/>
    </clipPath>
    <clipPath id="id14" clip-rule="nonzero">
     <path d="M40.77 38.92l-8.14 0c-0.4,0 -0.74,0.33 -0.74,0.74 0,0.41 0.34,0.74 0.74,0.74l8.14 0c0.41,0 0.74,-0.33 0.74,-0.74 0,-0.41 -0.33,-0.74 -0.74,-0.74z"/>
    </clipPath>
    <clipPath id="id15" clip-rule="nonzero">
     <path d="M43.73 38.92l-0.74 0c-0.41,0 -0.74,0.33 -0.74,0.74 0,0.41 0.33,0.74 0.74,0.74l0.74 0c0.4,0 0.73,-0.33 0.73,-0.74 0,-0.41 -0.33,-0.74 -0.73,-0.74z"/>
    </clipPath>
    <clipPath id="id16" clip-rule="nonzero">
     <path d="M14.4 20.94l1.62 0 0 4.65 1.94 0 0 -4.65 1.64 0 0 -1.53 -5.2 0 0 1.53z"/>
    </clipPath>
    <clipPath id="id17" clip-rule="nonzero">
     <path d="M23.9 25.59l1.94 0 0 -6.18 -1.94 0 0 2.22 -1.84 0 0 -2.22 -1.94 0 0 6.18 1.94 0 0 -2.41 1.84 0 0 2.41z"/>
    </clipPath>
    <clipPath id="id18" clip-rule="nonzero">
     <path d="M26.71 25.59l1.94 0 0 -6.18 -1.94 0 0 6.18z"/>
    </clipPath>
    <clipPath id="id19" clip-rule="nonzero">
     <path d="M34.3 23.68c0,-1.91 -2.88,-1.78 -2.88,-2.55 0,-0.21 0.13,-0.32 0.28,-0.32 0.21,0 0.41,0.12 0.43,0.49l2.09 0c-0.05,-1.28 -1.01,-2 -2.51,-2 -1.32,0 -2.36,0.65 -2.36,1.89 -0.04,2.11 2.88,1.8 2.89,2.64 0,0.22 -0.19,0.31 -0.38,0.31 -0.19,0 -0.44,-0.08 -0.47,-0.53l-2.06 0c0.09,1.38 1.2,2.04 2.61,2.04 1.49,0 2.36,-0.84 2.36,-1.97z"/>
    </clipPath>
    <clipPath id="id20" clip-rule="nonzero">
     <path d="M13.15 36.35l2.41 0 0.72 -3.51 0.71 3.51 2.41 0 1.42 -6.18 -2.09 0 -0.56 3.89 -0.84 -3.89 -2.11 0 -0.84 3.89 -0.55 -3.89 -2.09 0 1.41 6.18z"/>
    </clipPath>
    <clipPath id="id21" clip-rule="nonzero">
     <path d="M25.63 30.17l-4.12 0 0 6.18 4.12 0 0 -1.54 -2.18 0 0 -0.88 1.92 0 0 -1.45 -1.92 0 0 -0.76 2.18 0 0 -1.55z"/>
    </clipPath>
    <clipPath id="id22" clip-rule="nonzero">
     <path d="M30.49 30.17l-4.12 0 0 6.18 4.12 0 0 -1.54 -2.19 0 0 -0.88 1.92 0 0 -1.45 -1.92 0 0 -0.76 2.19 0 0 -1.55z"/>
    </clipPath>
    <clipPath id="id23" clip-rule="nonzero">
     <path d="M34.95 36.35l2.31 0 -2.27 -3.22 2.13 -2.96 -2.19 0 -1.77 2.6 0 -2.6 -1.94 0 0 6.18 1.94 0 0 -2.68 1.79 2.68z"/>
    </clipPath>
 </defs>
 <g id="Layer_x0020_1">
  <metadata id="CorelCorpID_0Corel-Layer"/>
  <g id="_1774622019072">
   <path fill="white" d="M2.96 6.46l0 -0.08c0,-1.28 1.04,-2.31 2.31,-2.31l2.96 0c1.25,0 2.27,0.98 2.32,2.21l1.28 0c0.05,-1.23 1.07,-2.21 2.32,-2.21l2.95 0c1.25,0 2.27,0.98 2.32,2.21l1.29 0c0.05,-1.23 1.07,-2.21 2.31,-2.21l2.96 0c1.24,0 2.26,0.98 2.31,2.21l1.29 0c0.05,-1.23 1.07,-2.21 2.31,-2.21l2.96 0c1.25,0 2.26,0.98 2.32,2.21l1.28 0c0.05,-1.23 1.07,-2.21 2.32,-2.21l2.96 0c1.27,0 2.31,1.03 2.31,2.31l0 0.08c1.71,0.52 2.96,2.11 2.96,3.99l0 30.32c0,2.3 -1.87,4.16 -4.17,4.16l-40.66 0c-2.3,0 -4.17,-1.86 -4.17,-4.16l0 -30.32c0,-1.88 1.25,-3.47 2.96,-3.99z"/>
   <g clip-path="url(#id0)">
    <g>
     <polygon id="1" fill="white" fill-opacity="0.600000" points="-291.08,-319.9 445.97,-319.9 445.97,280.84 -291.08,280.84 "/>
    </g>
   </g>
   <path fill="none" d="M2.96 6.46l0 -0.08c0,-1.28 1.04,-2.31 2.31,-2.31l2.96 0c1.25,0 2.27,0.98 2.32,2.21l1.28 0c0.05,-1.23 1.07,-2.21 2.32,-2.21l2.95 0c1.25,0 2.27,0.98 2.32,2.21l1.29 0c0.05,-1.23 1.07,-2.21 2.31,-2.21l2.96 0c1.24,0 2.26,0.98 2.31,2.21l1.29 0c0.05,-1.23 1.07,-2.21 2.31,-2.21l2.96 0c1.25,0 2.26,0.98 2.32,2.21l1.28 0c0.05,-1.23 1.07,-2.21 2.32,-2.21l2.96 0c1.27,0 2.31,1.03 2.31,2.31l0 0.08c1.71,0.52 2.96,2.11 2.96,3.99l0 30.32c0,2.3 -1.87,4.16 -4.17,4.16l-40.66 0c-2.3,0 -4.17,-1.86 -4.17,-4.16l0 -30.32c0,-1.88 1.25,-3.47 2.96,-3.99z"/>
   <path fill="#3E3D42" fill-rule="nonzero" d="M46.68 10.45l0 2.59 -44.36 0 0 -2.59c0,-1.02 0.82,-1.85 1.84,-1.85l0.01 0 1.1 0 0 2.22 2.96 0 0 -2.22 5.92 0 0 2.22 2.96 0 0 -2.22 5.91 0 0 2.22 2.96 0 0 -2.22 5.91 0 0 2.22 2.96 0 0 -2.22 5.92 0 0 2.22 2.96 0 0 -2.22 1.1 0c1.02,0 1.85,0.83 1.85,1.85l0 0z"/>
   <g clip-path="url(#id1)">
    <g>
     <polygon id="1" fill="white" fill-opacity="0.600000" points="-291.08,-319.9 445.97,-319.9 445.97,280.84 -291.08,280.84 "/>
    </g>
   </g>
   <path fill="none" fill-rule="nonzero" d="M46.68 10.45l0 2.59 -44.36 0 0 -2.59c0,-1.02 0.82,-1.85 1.84,-1.85l0.01 0 1.1 0 0 2.22 2.96 0 0 -2.22 5.92 0 0 2.22 2.96 0 0 -2.22 5.91 0 0 2.22 2.96 0 0 -2.22 5.91 0 0 2.22 2.96 0 0 -2.22 5.92 0 0 2.22 2.96 0 0 -2.22 1.1 0c1.02,0 1.85,0.83 1.85,1.85l0 0z"/>
   <polygon fill="#D8D7DA" fill-rule="nonzero" points="5.27,8.6 8.23,8.6 8.23,10.82 5.27,10.82 "/>
   <g clip-path="url(#id2)">
    <g>
     <polygon id="1" fill="white" fill-opacity="0.600000" points="-291.08,-319.9 445.97,-319.9 445.97,280.84 -291.08,280.84 "/>
    </g>
   </g>
   <polygon fill="none" fill-rule="nonzero" points="5.27,8.6 8.23,8.6 8.23,10.82 5.27,10.82 "/>
   <polygon fill="#D8D7DA" fill-rule="nonzero" points="14.15,8.6 17.11,8.6 17.11,10.82 14.15,10.82 "/>
   <g clip-path="url(#id3)">
    <g>
     <polygon id="1" fill="white" fill-opacity="0.600000" points="-291.08,-319.9 445.97,-319.9 445.97,280.84 -291.08,280.84 "/>
    </g>
   </g>
   <polygon fill="none" fill-rule="nonzero" points="14.15,8.6 17.11,8.6 17.11,10.82 14.15,10.82 "/>
   <polygon fill="#D8D7DA" fill-rule="nonzero" points="23.02,8.6 25.98,8.6 25.98,10.82 23.02,10.82 "/>
   <g clip-path="url(#id4)">
    <g>
     <polygon id="1" fill="white" fill-opacity="0.600000" points="-291.08,-319.9 445.97,-319.9 445.97,280.84 -291.08,280.84 "/>
    </g>
   </g>
   <polygon fill="none" fill-rule="nonzero" points="23.02,8.6 25.98,8.6 25.98,10.82 23.02,10.82 "/>
   <polygon fill="#D8D7DA" fill-rule="nonzero" points="31.89,8.6 34.85,8.6 34.85,10.82 31.89,10.82 "/>
   <g clip-path="url(#id5)">
    <g>
     <polygon id="1" fill="white" fill-opacity="0.600000" points="-291.08,-319.9 445.97,-319.9 445.97,280.84 -291.08,280.84 "/>
    </g>
   </g>
   <polygon fill="none" fill-rule="nonzero" points="31.89,8.6 34.85,8.6 34.85,10.82 31.89,10.82 "/>
   <polygon fill="#D8D7DA" fill-rule="nonzero" points="40.77,8.6 43.73,8.6 43.73,10.82 40.77,10.82 "/>
   <g clip-path="url(#id6)">
    <g>
     <polygon id="1" fill="white" fill-opacity="0.600000" points="-291.08,-319.9 445.97,-319.9 445.97,280.84 -291.08,280.84 "/>
    </g>
   </g>
   <polygon fill="none" fill-rule="nonzero" points="40.77,8.6 43.73,8.6 43.73,10.82 40.77,10.82 "/>
   <path fill="#57A4FF" fill-rule="nonzero" d="M46.68 13.04l0 27.73c0,1.02 -0.82,1.85 -1.84,1.85l-0.01 0 -40.66 0c-1.02,0 -1.85,-0.83 -1.85,-1.85l0 0 0 -27.73 44.36 0z"/>
   <g clip-path="url(#id7)">
    <g>
     <polygon id="1" fill="white" fill-opacity="0.600000" points="-291.08,-319.9 445.97,-319.9 445.97,280.84 -291.08,280.84 "/>
    </g>
   </g>
   <path fill="none" fill-rule="nonzero" d="M46.68 13.04l0 27.73c0,1.02 -0.82,1.85 -1.84,1.85l-0.01 0 -40.66 0c-1.02,0 -1.85,-0.83 -1.85,-1.85l0 0 0 -27.73 44.36 0z"/>
   <polygon fill="#FFDA44" fill-rule="nonzero" points="23.02,6.38 25.98,6.38 25.98,10.82 23.02,10.82 "/>
   <g clip-path="url(#id8)">
    <g>
     <polygon id="1" fill="white" fill-opacity="0.600000" points="-291.08,-319.9 445.97,-319.9 445.97,280.84 -291.08,280.84 "/>
    </g>
   </g>
   <polygon fill="none" fill-rule="nonzero" points="23.02,6.38 25.98,6.38 25.98,10.82 23.02,10.82 "/>
   <polygon fill="#FFDA44" fill-rule="nonzero" points="14.15,6.38 17.11,6.38 17.11,10.82 14.15,10.82 "/>
   <g clip-path="url(#id9)">
    <g>
     <polygon id="1" fill="white" fill-opacity="0.600000" points="-291.08,-319.9 445.97,-319.9 445.97,280.84 -291.08,280.84 "/>
    </g>
   </g>
   <polygon fill="none" fill-rule="nonzero" points="14.15,6.38 17.11,6.38 17.11,10.82 14.15,10.82 "/>
   <polygon fill="#FFDA44" fill-rule="nonzero" points="5.27,6.38 8.23,6.38 8.23,10.82 5.27,10.82 "/>
   <g clip-path="url(#id10)">
    <g>
     <polygon id="1" fill="white" fill-opacity="0.600000" points="-291.08,-319.9 445.97,-319.9 445.97,280.84 -291.08,280.84 "/>
    </g>
   </g>
   <polygon fill="none" fill-rule="nonzero" points="5.27,6.38 8.23,6.38 8.23,10.82 5.27,10.82 "/>
   <polygon fill="#FFDA44" fill-rule="nonzero" points="40.77,6.38 43.73,6.38 43.73,10.82 40.77,10.82 "/>
   <g clip-path="url(#id11)">
    <g>
     <polygon id="1" fill="white" fill-opacity="0.600000" points="-291.08,-319.9 445.97,-319.9 445.97,280.84 -291.08,280.84 "/>
    </g>
   </g>
   <polygon fill="none" fill-rule="nonzero" points="40.77,6.38 43.73,6.38 43.73,10.82 40.77,10.82 "/>
   <polygon fill="#FFDA44" fill-rule="nonzero" points="31.89,6.38 34.85,6.38 34.85,10.82 31.89,10.82 "/>
   <g clip-path="url(#id12)">
    <g>
     <polygon id="1" fill="white" fill-opacity="0.600000" points="-291.08,-319.9 445.97,-319.9 445.97,280.84 -291.08,280.84 "/>
    </g>
   </g>
   <polygon fill="none" fill-rule="nonzero" points="31.89,6.38 34.85,6.38 34.85,10.82 31.89,10.82 "/>
   <path fill="black" fill-rule="nonzero" d="M45.94 12.3l-42.88 0 0 -1.85c0,-0.61 0.49,-1.11 1.11,-1.11l0.37 0 0 1.48c0,0.41 0.33,0.74 0.73,0.74l2.96 0c0.41,0 0.74,-0.33 0.74,-0.74l0 -1.48 4.44 0 0 1.48c0,0.41 0.33,0.74 0.74,0.74l2.96 0c0.4,0 0.74,-0.33 0.74,-0.74l0 -1.48 4.43 0 0 1.48c0,0.41 0.33,0.74 0.74,0.74l2.96 0c0.41,0 0.74,-0.33 0.74,-0.74l0 -1.48 4.43 0 0 1.48c0,0.41 0.34,0.74 0.74,0.74l2.96 0c0.41,0 0.74,-0.33 0.74,-0.74l0 -1.48 4.44 0 0 1.48c0,0.41 0.33,0.74 0.74,0.74l2.96 0c0.4,0 0.73,-0.33 0.73,-0.74l0 -1.48 0.37 0c0.62,0 1.11,0.5 1.11,1.11l0 1.85zm0 28.47c0,0.61 -0.49,1.11 -1.11,1.11l-40.66 0c-0.62,0 -1.11,-0.5 -1.11,-1.11l0 -26.99 42.88 0 0 26.99zm-39.93 -33.65l1.48 0 0 2.96 -1.48 0 0 -2.96zm8.88 0l1.48 0 0 2.96 -1.48 0 0 -2.96zm8.87 0l1.48 0 0 2.96 -1.48 0 0 -2.96zm8.87 0l1.48 0 0 2.96 -1.48 0 0 -2.96zm8.88 0l1.48 0 0 2.96 -1.48 0 0 -2.96zm3.32 0.74l-0.37 0 0 -1.48c0,-0.4 -0.33,-0.74 -0.73,-0.74l-2.96 0c-0.41,0 -0.74,0.34 -0.74,0.74l0 1.48 -4.44 0 0 -1.48c0,-0.4 -0.33,-0.74 -0.74,-0.74l-2.96 0c-0.4,0 -0.74,0.34 -0.74,0.74l0 1.48 -4.43 0 0 -1.48c0,-0.4 -0.33,-0.74 -0.74,-0.74l-2.96 0c-0.41,0 -0.74,0.34 -0.74,0.74l0 1.48 -4.43 0 0 -1.48c0,-0.4 -0.34,-0.74 -0.74,-0.74l-2.96 0c-0.41,0 -0.74,0.34 -0.74,0.74l0 1.48 -4.44 0 0 -1.48c0,-0.4 -0.33,-0.74 -0.74,-0.74l-2.96 0c-0.4,0 -0.73,0.34 -0.73,0.74l0 1.48 -0.37 0c-1.43,0 -2.59,1.16 -2.59,2.59l0 30.32c0,1.43 1.16,2.58 2.59,2.59l40.66 0c1.43,-0.01 2.59,-1.16 2.59,-2.59l0 -30.32c0,-1.43 -1.16,-2.59 -2.59,-2.59z"/>
   <g clip-path="url(#id13)">
    <g>
     <polygon id="1" fill="white" fill-opacity="0.600000" points="-291.08,-319.9 445.97,-319.9 445.97,280.84 -291.08,280.84 "/>
    </g>
   </g>
   <path fill="none" fill-rule="nonzero" d="M45.94 12.3l-42.88 0 0 -1.85c0,-0.61 0.49,-1.11 1.11,-1.11l0.37 0 0 1.48c0,0.41 0.33,0.74 0.73,0.74l2.96 0c0.41,0 0.74,-0.33 0.74,-0.74l0 -1.48 4.44 0 0 1.48c0,0.41 0.33,0.74 0.74,0.74l2.96 0c0.4,0 0.74,-0.33 0.74,-0.74l0 -1.48 4.43 0 0 1.48c0,0.41 0.33,0.74 0.74,0.74l2.96 0c0.41,0 0.74,-0.33 0.74,-0.74l0 -1.48 4.43 0 0 1.48c0,0.41 0.34,0.74 0.74,0.74l2.96 0c0.41,0 0.74,-0.33 0.74,-0.74l0 -1.48 4.44 0 0 1.48c0,0.41 0.33,0.74 0.74,0.74l2.96 0c0.4,0 0.73,-0.33 0.73,-0.74l0 -1.48 0.37 0c0.62,0 1.11,0.5 1.11,1.11l0 1.85zm0 28.47c0,0.61 -0.49,1.11 -1.11,1.11l-40.66 0c-0.62,0 -1.11,-0.5 -1.11,-1.11l0 -26.99 42.88 0 0 26.99zm-39.93 -33.65l1.48 0 0 2.96 -1.48 0 0 -2.96zm8.88 0l1.48 0 0 2.96 -1.48 0 0 -2.96zm8.87 0l1.48 0 0 2.96 -1.48 0 0 -2.96zm8.87 0l1.48 0 0 2.96 -1.48 0 0 -2.96zm8.88 0l1.48 0 0 2.96 -1.48 0 0 -2.96zm3.32 0.74l-0.37 0 0 -1.48c0,-0.4 -0.33,-0.74 -0.73,-0.74l-2.96 0c-0.41,0 -0.74,0.34 -0.74,0.74l0 1.48 -4.44 0 0 -1.48c0,-0.4 -0.33,-0.74 -0.74,-0.74l-2.96 0c-0.4,0 -0.74,0.34 -0.74,0.74l0 1.48 -4.43 0 0 -1.48c0,-0.4 -0.33,-0.74 -0.74,-0.74l-2.96 0c-0.41,0 -0.74,0.34 -0.74,0.74l0 1.48 -4.43 0 0 -1.48c0,-0.4 -0.34,-0.74 -0.74,-0.74l-2.96 0c-0.41,0 -0.74,0.34 -0.74,0.74l0 1.48 -4.44 0 0 -1.48c0,-0.4 -0.33,-0.74 -0.74,-0.74l-2.96 0c-0.4,0 -0.73,0.34 -0.73,0.74l0 1.48 -0.37 0c-1.43,0 -2.59,1.16 -2.59,2.59l0 30.32c0,1.43 1.16,2.58 2.59,2.59l40.66 0c1.43,-0.01 2.59,-1.16 2.59,-2.59l0 -30.32c0,-1.43 -1.16,-2.59 -2.59,-2.59z"/>
   <path fill="black" fill-rule="nonzero" d="M40.77 38.92l-8.14 0c-0.4,0 -0.74,0.33 -0.74,0.74 0,0.41 0.34,0.74 0.74,0.74l8.14 0c0.41,0 0.74,-0.33 0.74,-0.74 0,-0.41 -0.33,-0.74 -0.74,-0.74z"/>
   <g clip-path="url(#id14)">
    <g>
     <polygon id="1" fill="white" fill-opacity="0.600000" points="-291.08,-319.9 445.97,-319.9 445.97,280.84 -291.08,280.84 "/>
    </g>
   </g>
   <path fill="none" fill-rule="nonzero" d="M40.77 38.92l-8.14 0c-0.4,0 -0.74,0.33 -0.74,0.74 0,0.41 0.34,0.74 0.74,0.74l8.14 0c0.41,0 0.74,-0.33 0.74,-0.74 0,-0.41 -0.33,-0.74 -0.74,-0.74z"/>
   <path fill="black" fill-rule="nonzero" d="M43.73 38.92l-0.74 0c-0.41,0 -0.74,0.33 -0.74,0.74 0,0.41 0.33,0.74 0.74,0.74l0.74 0c0.4,0 0.73,-0.33 0.73,-0.74 0,-0.41 -0.33,-0.74 -0.73,-0.74z"/>
   <g clip-path="url(#id15)">
    <g>
     <polygon id="1" fill="white" fill-opacity="0.600000" points="-291.08,-319.9 445.97,-319.9 445.97,280.84 -291.08,280.84 "/>
    </g>
   </g>
   <path fill="none" fill-rule="nonzero" d="M43.73 38.92l-0.74 0c-0.41,0 -0.74,0.33 -0.74,0.74 0,0.41 0.33,0.74 0.74,0.74l0.74 0c0.4,0 0.73,-0.33 0.73,-0.74 0,-0.41 -0.33,-0.74 -0.73,-0.74z"/>
   <path fill="white" fill-rule="nonzero" d="M14.4 20.94l1.62 0 0 4.65 1.94 0 0 -4.65 1.64 0 0 -1.53 -5.2 0 0 1.53zm9.5 4.65l1.94 0 0 -6.18 -1.94 0 0 2.22 -1.84 0 0 -2.22 -1.94 0 0 6.18 1.94 0 0 -2.41 1.84 0 0 2.41zm2.81 0l1.94 0 0 -6.18 -1.94 0 0 6.18zm7.59 -1.91c0,-1.91 -2.88,-1.78 -2.88,-2.55 0,-0.21 0.13,-0.32 0.28,-0.32 0.21,0 0.41,0.12 0.43,0.49l2.09 0c-0.05,-1.28 -1.01,-2 -2.51,-2 -1.32,0 -2.36,0.65 -2.36,1.89 -0.04,2.11 2.88,1.8 2.89,2.64 0,0.22 -0.19,0.31 -0.38,0.31 -0.19,0 -0.44,-0.08 -0.47,-0.53l-2.06 0c0.09,1.38 1.2,2.04 2.61,2.04 1.49,0 2.36,-0.84 2.36,-1.97zm-21.15 12.67l2.41 0 0.72 -3.51 0.71 3.51 2.41 0 1.42 -6.18 -2.09 0 -0.56 3.89 -0.84 -3.89 -2.11 0 -0.84 3.89 -0.55 -3.89 -2.09 0 1.41 6.18zm12.48 -6.18l-4.12 0 0 6.18 4.12 0 0 -1.54 -2.18 0 0 -0.88 1.92 0 0 -1.45 -1.92 0 0 -0.76 2.18 0 0 -1.55zm4.86 0l-4.12 0 0 6.18 4.12 0 0 -1.54 -2.19 0 0 -0.88 1.92 0 0 -1.45 -1.92 0 0 -0.76 2.19 0 0 -1.55zm4.46 6.18l2.31 0 -2.27 -3.22 2.13 -2.96 -2.19 0 -1.77 2.6 0 -2.6 -1.94 0 0 6.18 1.94 0 0 -2.68 1.79 2.68z"/>
   <g clip-path="url(#id16)">
    <g>
     <polygon id="1" fill="white" fill-opacity="0.600000" points="-291.08,-319.9 445.97,-319.9 445.97,280.84 -291.08,280.84 "/>
    </g>
   </g>
   <g clip-path="url(#id17)">
    <g>
     <polygon fill="white" fill-opacity="0.600000" points="-291.08,-319.9 445.97,-319.9 445.97,280.84 -291.08,280.84 "/>
    </g>
   </g>
   <g clip-path="url(#id18)">
    <g>
     <polygon fill="white" fill-opacity="0.600000" points="-291.08,-319.9 445.97,-319.9 445.97,280.84 -291.08,280.84 "/>
    </g>
   </g>
   <g clip-path="url(#id19)">
    <g>
     <polygon fill="white" fill-opacity="0.600000" points="-291.08,-319.9 445.97,-319.9 445.97,280.84 -291.08,280.84 "/>
    </g>
   </g>
   <g clip-path="url(#id20)">
    <g>
     <polygon fill="white" fill-opacity="0.600000" points="-291.08,-319.9 445.97,-319.9 445.97,280.84 -291.08,280.84 "/>
    </g>
   </g>
   <g clip-path="url(#id21)">
    <g>
     <polygon fill="white" fill-opacity="0.600000" points="-291.08,-319.9 445.97,-319.9 445.97,280.84 -291.08,280.84 "/>
    </g>
   </g>
   <g clip-path="url(#id22)">
    <g>
     <polygon fill="white" fill-opacity="0.600000" points="-291.08,-319.9 445.97,-319.9 445.97,280.84 -291.08,280.84 "/>
    </g>
   </g>
   <g clip-path="url(#id23)">
    <g>
     <polygon fill="white" fill-opacity="0.600000" points="-291.08,-319.9 445.97,-319.9 445.97,280.84 -291.08,280.84 "/>
    </g>
   </g>
  </g>
 </g>
</svg>
