<svg width="64" height="74" viewBox="0 0 64 74" fill="none" xmlns="http://www.w3.org/2000/svg">
<path d="M11.7436 23.115L1.99977 31.7766M1.99977 31.7766L11.7436 40.4382M1.99977 31.7766L28.1689 31.7766" stroke="black" stroke-width="1.5"/>
<path d="M58.2341 2.84389L43.0724 8.18095C38.6701 9.73063 35.7249 13.8897 35.7249 18.5569V63.29M20.7974 21.6405V12C20.7974 5.92487 25.7222 1 31.7974 1H51.9998C58.0749 1 62.9998 5.92486 62.9998 12V55.5451C62.9998 60.1904 60.0817 64.335 55.7083 65.9011L44.9204 69.7644C40.4408 71.3686 35.7249 68.0482 35.7249 63.29V63.29M35.7249 63.29H31.7974C25.7222 63.29 20.7974 58.3651 20.7974 52.29V42.6495" stroke="black" stroke-width="1.5"/>
</svg>
