<?xml version="1.0" encoding="UTF-8"?>
<!DOCTYPE svg PUBLIC "-//W3C//DTD SVG 1.1//EN" "http://www.w3.org/Graphics/SVG/1.1/DTD/svg11.dtd">
<!-- Creator: CorelDRAW 2018 (64-Bit) -->
<svg xmlns="http://www.w3.org/2000/svg" xml:space="preserve" width="49px" height="49px" version="1.1" shape-rendering="geometricPrecision" text-rendering="geometricPrecision" image-rendering="optimizeQuality" fill-rule="evenodd" clip-rule="evenodd"
viewBox="0 0 49 49"
 xmlns:xlink="http://www.w3.org/1999/xlink">
 <g id="Layer_x0020_1">
  <metadata id="CorelCorpID_0Corel-Layer"/>
  <g id="_1774660502992">
   <path fill="white" d="M8.47 3.04c0.43,-1.75 2.01,-3.04 3.89,-3.04 1.87,0 3.45,1.29 3.88,3.04l4.37 0c0.44,-1.75 2.01,-3.04 3.89,-3.04 1.88,0 3.45,1.29 3.89,3.04l4.37 0c0.43,-1.75 2.01,-3.04 3.88,-3.04 1.88,0 3.46,1.29 3.89,3.04l1.43 0c3.05,0 5.52,2.47 5.52,5.52l0 34.92c0,3.05 -2.47,5.52 -5.52,5.52l-34.92 0c-3.05,0 -5.52,-2.47 -5.52,-5.52l0 -34.92c0,-3.05 2.47,-5.52 5.52,-5.52l1.43 0z"/>
   <g>
    <path fill="#9E9E9E" d="M44.99 16.15l0 27.33c0,0.8 -0.32,1.57 -0.89,2.14 -0.57,0.57 -1.34,0.89 -2.14,0.89l-34.92 0c-0.8,0 -1.57,-0.32 -2.14,-0.89 -0.57,-0.57 -0.89,-1.34 -0.89,-2.14l0 -27.33 40.98 0zm0 0z"/>
    <path fill="whitesmoke" d="M42.72 16.15l0 27.33c0,0.8 -0.32,1.57 -0.89,2.14 -0.57,0.57 -1.34,0.89 -2.15,0.89l-32.64 0c-0.8,0 -1.57,-0.32 -2.14,-0.89 -0.57,-0.57 -0.89,-1.34 -0.89,-2.14l0 -27.33 38.71 0zm0 0z"/>
    <path fill="#C52828" d="M44.99 8.56l0 7.59 -40.98 0 0 -7.59c0,-0.8 0.32,-1.58 0.89,-2.15 0.57,-0.57 1.34,-0.89 2.14,-0.89l34.92 0c0.8,0 1.57,0.32 2.14,0.89 0.57,0.57 0.89,1.35 0.89,2.15zm0 0z"/>
    <path fill="#F44335" d="M42.72 8.56l0 7.59 -38.71 0 0 -7.59c0,-0.8 0.32,-1.58 0.89,-2.15 0.57,-0.57 1.34,-0.89 2.14,-0.89l32.64 0c0.81,0 1.58,0.32 2.15,0.89 0.57,0.57 0.89,1.35 0.89,2.15zm0 0z"/>
    <g>
     <path fill="#424242" d="M13.87 7.45c1.19,0.69 1.77,2.09 1.42,3.42 -0.36,1.33 -1.56,2.25 -2.93,2.25 -1.38,0 -2.58,-0.92 -2.94,-2.25 -0.35,-1.33 0.23,-2.73 1.42,-3.42l3.03 0zm0 0l0 0 0 0z"/>
    </g>
    <g>
     <path fill="#424242" d="M26.02 7.45c1.19,0.69 1.77,2.09 1.41,3.42 -0.35,1.33 -1.56,2.25 -2.93,2.25 -1.37,0 -2.58,-0.92 -2.93,-2.25 -0.36,-1.33 0.22,-2.73 1.41,-3.42l3.04 0zm0 0l0 0 0 0z"/>
    </g>
    <g>
     <path fill="#424242" d="M38.16 7.45c1.19,0.69 1.77,2.09 1.42,3.42 -0.36,1.33 -1.56,2.25 -2.94,2.25 -1.37,0 -2.57,-0.92 -2.93,-2.25 -0.35,-1.33 0.23,-2.73 1.42,-3.42l3.03 0zm0 0l0 0 0 0z"/>
    </g>
    <path fill="#A5A5A4" d="M7.8 19.95l-0.76 0c-0.42,0 -0.76,-0.34 -0.76,-0.76 0,-0.42 0.34,-0.76 0.76,-0.76l0.76 0c0.42,0 0.76,0.34 0.76,0.76 0,0.42 -0.34,0.76 -0.76,0.76l0 0zm0 0z"/>
    <path fill="#A5A5A4" d="M11.6 19.95l-0.76 0c-0.42,0 -0.76,-0.34 -0.76,-0.76 0,-0.42 0.34,-0.76 0.76,-0.76l0.76 0c0.42,0 0.76,0.34 0.76,0.76 0,0.42 -0.34,0.76 -0.76,0.76l0 0zm0 0z"/>
    <path fill="#A5A5A4" d="M15.39 19.95l-0.76 0c-0.42,0 -0.76,-0.34 -0.76,-0.76 0,-0.42 0.34,-0.76 0.76,-0.76l0.76 0c0.42,0 0.76,0.34 0.76,0.76 0,0.42 -0.34,0.76 -0.76,0.76l0 0zm0 0z"/>
    <path fill="#A5A5A4" d="M19.19 19.95l-0.76 0c-0.42,0 -0.76,-0.34 -0.76,-0.76 0,-0.42 0.34,-0.76 0.76,-0.76l0.76 0c0.42,0 0.76,0.34 0.76,0.76 0,0.42 -0.34,0.76 -0.76,0.76l0 0zm0 0z"/>
    <path fill="#A5A5A4" d="M22.98 19.95l-0.76 0c-0.42,0 -0.76,-0.34 -0.76,-0.76 0,-0.42 0.34,-0.76 0.76,-0.76l0.76 0c0.42,0 0.76,0.34 0.76,0.76 0,0.42 -0.34,0.76 -0.76,0.76l0 0zm0 0z"/>
    <path fill="#A5A5A4" d="M26.78 19.95l-0.76 0c-0.42,0 -0.76,-0.34 -0.76,-0.76 0,-0.42 0.34,-0.76 0.76,-0.76l0.76 0c0.42,0 0.76,0.34 0.76,0.76 0,0.42 -0.34,0.76 -0.76,0.76l0 0zm0 0z"/>
    <path fill="#A5A5A4" d="M30.57 19.95l-0.76 0c-0.42,0 -0.76,-0.34 -0.76,-0.76 0,-0.42 0.34,-0.76 0.76,-0.76l0.76 0c0.42,0 0.76,0.34 0.76,0.76 0,0.42 -0.34,0.76 -0.76,0.76l0 0zm0 0z"/>
    <path fill="#A5A5A4" d="M34.37 19.95l-0.76 0c-0.42,0 -0.76,-0.34 -0.76,-0.76 0,-0.42 0.34,-0.76 0.76,-0.76l0.76 0c0.42,0 0.76,0.34 0.76,0.76 0,0.42 -0.34,0.76 -0.76,0.76l0 0zm0 0z"/>
    <path fill="#A5A5A4" d="M38.16 19.95l-0.76 0c-0.42,0 -0.76,-0.34 -0.76,-0.76 0,-0.42 0.34,-0.76 0.76,-0.76l0.76 0c0.42,0 0.76,0.34 0.76,0.76 0,0.42 -0.34,0.76 -0.76,0.76l0 0zm0 0z"/>
    <path fill="#A5A5A4" d="M41.96 19.95l-0.76 0c-0.42,0 -0.76,-0.34 -0.76,-0.76 0,-0.42 0.34,-0.76 0.76,-0.76l0.76 0c0.42,0 0.76,0.34 0.76,0.76 0,0.42 -0.34,0.76 -0.76,0.76l0 0zm0 0z"/>
    <path fill="#A5A5A4" d="M30.57 42.72l-15.94 0c-0.42,0 -0.76,-0.34 -0.76,-0.76 0,-0.42 0.34,-0.76 0.76,-0.76l15.94 0c0.42,0 0.76,0.34 0.76,0.76 0,0.42 -0.34,0.76 -0.76,0.76l0 0zm0 0z"/>
    <path fill="#A5A5A4" d="M35.13 42.72l-1.52 0c-0.42,0 -0.76,-0.34 -0.76,-0.76 0,-0.42 0.34,-0.76 0.76,-0.76l1.52 0c0.42,0 0.75,0.34 0.75,0.76 0,0.42 -0.33,0.76 -0.75,0.76l0 0zm0 0z"/>
    <path fill="#9E9E9E" d="M12.36 2.49c0.83,0 1.51,0.68 1.51,1.52l0 4.55c0,0.84 -0.68,1.52 -1.51,1.52 -0.84,0 -1.52,-0.68 -1.52,-1.52l0 -4.55c0,-0.84 0.68,-1.52 1.52,-1.52zm0 0z"/>
    <path fill="#9E9E9E" d="M24.5 2.49c0.84,0 1.52,0.68 1.52,1.52l0 4.55c0,0.84 -0.68,1.52 -1.52,1.52 -0.84,0 -1.52,-0.68 -1.52,-1.52l0 -4.55c0,-0.84 0.68,-1.52 1.52,-1.52zm0 0z"/>
    <path fill="#9E9E9E" d="M36.64 2.49c0.84,0 1.52,0.68 1.52,1.52l0 4.55c0,0.84 -0.68,1.52 -1.52,1.52 -0.83,0 -1.51,-0.68 -1.51,-1.52l0 -4.55c0,-0.84 0.68,-1.52 1.51,-1.52zm0 0z"/>
    <path fill="#4CAF50" d="M17.95 33.8l3.01 3 11.37 -14c0.34,-0.41 0.86,-0.63 1.39,-0.57 0.53,0.06 1,0.38 1.24,0.86l0 0c0.26,0.52 0.21,1.15 -0.13,1.62l-12.01 16.62c-0.27,0.37 -0.69,0.6 -1.15,0.63 -0.45,0.02 -0.9,-0.16 -1.21,-0.5l-4.85 -5.38c-0.43,-0.48 -0.53,-1.17 -0.24,-1.75l0.06 -0.13c0.23,-0.45 0.66,-0.76 1.16,-0.84 0.5,-0.08 1,0.08 1.36,0.44l0 0zm0 0z"/>
    <path fill="black" d="M45.75 8.56c0,-2.09 -1.7,-3.79 -3.79,-3.8l-3.04 0 0 -0.75c0,-1.26 -1.02,-2.28 -2.28,-2.28 -1.25,0 -2.27,1.02 -2.27,2.28l0 0.75 -7.59 0 0 -0.75c0,-1.26 -1.02,-2.28 -2.28,-2.28 -1.26,0 -2.28,1.02 -2.28,2.28l0 0.75 -7.59 0 0 -0.75c0,-1.26 -1.02,-2.28 -2.27,-2.28 -1.26,0 -2.28,1.02 -2.28,2.28l0 0.75 -3.04 0c-2.09,0.01 -3.79,1.71 -3.79,3.8l0 34.92c0,2.09 1.7,3.79 3.79,3.79l34.92 0c2.09,0 3.79,-1.7 3.79,-3.79l0 -34.92zm-9.87 -4.55c0,-0.42 0.34,-0.76 0.76,-0.76 0.42,0 0.76,0.34 0.76,0.76l0 4.55c0,0.42 -0.34,0.76 -0.76,0.76 -0.42,0 -0.76,-0.34 -0.76,-0.76l0 -4.55zm-1.37 5.32c0.32,0.9 1.18,1.51 2.13,1.51 0.96,0 1.82,-0.61 2.14,-1.51 0.09,0.24 0.14,0.49 0.14,0.75 0,1.26 -1.02,2.28 -2.28,2.28 -1.25,0 -2.27,-1.02 -2.27,-2.28 0,-0.26 0.05,-0.51 0.14,-0.75l0 0zm-10.77 -5.32c0,-0.42 0.34,-0.76 0.76,-0.76 0.42,0 0.76,0.34 0.76,0.76l0 4.55c0,0.42 -0.34,0.76 -0.76,0.76 -0.42,0 -0.76,-0.34 -0.76,-0.76l0 -4.55zm-1.37 5.32c0.32,0.9 1.17,1.51 2.13,1.51 0.96,0 1.81,-0.61 2.13,-1.51 0.09,0.24 0.14,0.49 0.15,0.75 0,1.26 -1.02,2.28 -2.28,2.28 -1.26,0 -2.28,-1.02 -2.28,-2.28 0.01,-0.26 0.06,-0.51 0.15,-0.75l0 0zm-10.77 -5.32c0,-0.42 0.34,-0.76 0.76,-0.76 0.42,0 0.76,0.34 0.76,0.76l0 4.55c0,0.42 -0.34,0.76 -0.76,0.76 -0.42,0 -0.76,-0.34 -0.76,-0.76l0 -4.55zm-1.38 5.32c0.32,0.9 1.18,1.51 2.14,1.51 0.95,0 1.81,-0.61 2.13,-1.51 0.09,0.24 0.14,0.49 0.14,0.75 0,1.26 -1.02,2.28 -2.27,2.28 -1.26,0 -2.28,-1.02 -2.28,-2.28 0,-0.26 0.05,-0.51 0.14,-0.75l0 0zm34.01 34.15c0,1.25 -1.02,2.27 -2.27,2.27l-34.92 0c-1.25,0 -2.27,-1.02 -2.27,-2.27l0 -26.57 39.46 0 0 26.57zm0 -28.09l-39.46 0 0 -6.83c0,-1.26 1.02,-2.28 2.27,-2.28l3.04 0 0 0.77c-1.31,0.98 -1.84,2.68 -1.32,4.23 0.51,1.55 1.96,2.6 3.6,2.6 1.63,0 3.08,-1.05 3.6,-2.6 0.51,-1.55 -0.02,-3.25 -1.33,-4.23l0 -0.77 7.59 0 0 0.77c-1.3,0.98 -1.84,2.68 -1.32,4.23 0.52,1.55 1.97,2.6 3.6,2.6 1.63,0 3.08,-1.05 3.6,-2.6 0.52,-1.55 -0.02,-3.25 -1.32,-4.23l0 -0.77 7.59 0 0 0.77c-1.31,0.98 -1.84,2.68 -1.33,4.23 0.52,1.55 1.97,2.6 3.6,2.6 1.64,0 3.09,-1.05 3.6,-2.6 0.52,-1.55 -0.01,-3.25 -1.32,-4.23l0 -0.77 3.04 0c1.25,0 2.27,1.02 2.27,2.28l0 6.83zm0 0z"/>
    <path fill="black" d="M7.04 19.95l0.76 0c0.42,0 0.76,-0.34 0.76,-0.76 0,-0.42 -0.34,-0.76 -0.76,-0.76l-0.76 0c-0.42,0 -0.76,0.34 -0.76,0.76 0,0.42 0.34,0.76 0.76,0.76l0 0zm0 0z"/>
    <path fill="black" d="M10.84 19.95l0.76 0c0.42,0 0.76,-0.34 0.76,-0.76 0,-0.42 -0.34,-0.76 -0.76,-0.76l-0.76 0c-0.42,0 -0.76,0.34 -0.76,0.76 0,0.42 0.34,0.76 0.76,0.76l0 0zm0 0z"/>
    <path fill="black" d="M14.63 19.95l0.76 0c0.42,0 0.76,-0.34 0.76,-0.76 0,-0.42 -0.34,-0.76 -0.76,-0.76l-0.76 0c-0.42,0 -0.76,0.34 -0.76,0.76 0,0.42 0.34,0.76 0.76,0.76l0 0zm0 0z"/>
    <path fill="black" d="M18.43 19.95l0.76 0c0.42,0 0.76,-0.34 0.76,-0.76 0,-0.42 -0.34,-0.76 -0.76,-0.76l-0.76 0c-0.42,0 -0.76,0.34 -0.76,0.76 0,0.42 0.34,0.76 0.76,0.76l0 0zm0 0z"/>
    <path fill="black" d="M22.22 19.95l0.76 0c0.42,0 0.76,-0.34 0.76,-0.76 0,-0.42 -0.34,-0.76 -0.76,-0.76l-0.76 0c-0.42,0 -0.76,0.34 -0.76,0.76 0,0.42 0.34,0.76 0.76,0.76l0 0zm0 0z"/>
    <path fill="black" d="M26.02 19.95l0.76 0c0.42,0 0.76,-0.34 0.76,-0.76 0,-0.42 -0.34,-0.76 -0.76,-0.76l-0.76 0c-0.42,0 -0.76,0.34 -0.76,0.76 0,0.42 0.34,0.76 0.76,0.76l0 0zm0 0z"/>
    <path fill="black" d="M29.81 19.95l0.76 0c0.42,0 0.76,-0.34 0.76,-0.76 0,-0.42 -0.34,-0.76 -0.76,-0.76l-0.76 0c-0.42,0 -0.76,0.34 -0.76,0.76 0,0.42 0.34,0.76 0.76,0.76l0 0zm0 0z"/>
    <path fill="black" d="M33.61 19.95l0.76 0c0.42,0 0.76,-0.34 0.76,-0.76 0,-0.42 -0.34,-0.76 -0.76,-0.76l-0.76 0c-0.42,0 -0.76,0.34 -0.76,0.76 0,0.42 0.34,0.76 0.76,0.76l0 0zm0 0z"/>
    <path fill="black" d="M37.4 19.95l0.76 0c0.42,0 0.76,-0.34 0.76,-0.76 0,-0.42 -0.34,-0.76 -0.76,-0.76l-0.76 0c-0.42,0 -0.76,0.34 -0.76,0.76 0,0.42 0.34,0.76 0.76,0.76l0 0zm0 0z"/>
    <path fill="black" d="M41.2 19.95l0.76 0c0.42,0 0.76,-0.34 0.76,-0.76 0,-0.42 -0.34,-0.76 -0.76,-0.76l-0.76 0c-0.42,0 -0.76,0.34 -0.76,0.76 0,0.42 0.34,0.76 0.76,0.76l0 0zm0 0z"/>
    <path fill="black" d="M14.63 42.72l15.94 0c0.42,0 0.76,-0.34 0.76,-0.76 0,-0.42 -0.34,-0.76 -0.76,-0.76l-6.72 0 11.6 -16.05c0.73,-1.02 0.52,-2.44 -0.48,-3.21 -1.01,-0.76 -2.43,-0.59 -3.23,0.39l-10.84 13.34 -2.41 -2.41c-0.53,-0.53 -1.28,-0.77 -2.02,-0.65 -0.74,0.12 -1.38,0.59 -1.71,1.26l-0.07 0.12c-0.43,0.86 -0.29,1.89 0.36,2.6l4.16 4.61 -4.58 0c-0.42,0 -0.76,0.34 -0.76,0.76 0,0.42 0.34,0.76 0.76,0.76l0 0zm1.54 -7.15c-0.22,-0.24 -0.27,-0.6 -0.12,-0.9l0.06 -0.13c0.12,-0.23 0.34,-0.39 0.6,-0.43 0.04,-0.01 0.09,-0.01 0.13,-0.01 0.22,0 0.42,0.08 0.58,0.24l3.01 3c0.15,0.15 0.36,0.23 0.57,0.22 0.22,-0.01 0.42,-0.11 0.55,-0.28l11.37 -14c0.28,-0.34 0.77,-0.4 1.12,-0.13 0.35,0.26 0.43,0.76 0.17,1.11l-12 16.62c-0.14,0.19 -0.35,0.3 -0.58,0.32 -0.23,0.01 -0.45,-0.08 -0.6,-0.25l-4.86 -5.38zm0 0z"/>
    <path fill="black" d="M35.13 41.2l-1.52 0c-0.42,0 -0.76,0.34 -0.76,0.76 0,0.42 0.34,0.76 0.76,0.76l1.52 0c0.42,0 0.75,-0.34 0.75,-0.76 0,-0.42 -0.33,-0.76 -0.75,-0.76l0 0zm0 0z"/>
   </g>
  </g>
 </g>
</svg>
