<?xml version="1.0" encoding="UTF-8"?>
<!DOCTYPE svg PUBLIC "-//W3C//DTD SVG 1.1//EN" "http://www.w3.org/Graphics/SVG/1.1/DTD/svg11.dtd">
<!-- Creator: CorelDRAW 2018 (64-Bit) -->
<svg xmlns="http://www.w3.org/2000/svg" xml:space="preserve" width="49px" height="49px" version="1.1" shape-rendering="geometricPrecision" text-rendering="geometricPrecision" image-rendering="optimizeQuality" fill-rule="evenodd" clip-rule="evenodd"
viewBox="0 0 49 49"
 xmlns:xlink="http://www.w3.org/1999/xlink">
 <defs>
    <clipPath id="id0">
     <path d="M48.17 18.77l0 24.23c0,2.65 -2.15,4.8 -4.8,4.8l-35.35 0c-2.65,0 -4.8,-2.15 -4.8,-4.8l0 -7.63 -1.84 -1.36c-0.85,-0.63 -1.38,-1.57 -1.38,-2.64 0,-1.06 0.54,-1.99 1.38,-2.62l1.84 -1.36 0 -8.62c-0.52,-0.59 -0.82,-1.36 -0.82,-2.18l0 -7.9c0,-1.82 1.47,-3.29 3.29,-3.29l0.99 0c0.09,-2.33 2.01,-4.2 4.36,-4.2 2.35,0 4.27,1.87 4.36,4.2l1.06 0c0.08,-2.33 2,-4.2 4.35,-4.2 2.35,0 4.27,1.87 4.36,4.2l1.06 0c0.08,-2.33 2,-4.2 4.35,-4.2 2.35,0 4.27,1.87 4.36,4.2l1.06 0c0.08,-2.33 2,-4.2 4.36,-4.2 2.35,0 4.27,1.87 4.35,4.2l1 0c1.81,0 3.29,1.47 3.29,3.29l0 7.9c0,0.82 -0.3,1.59 -0.83,2.18z"/>
    </clipPath>
     <clipPath id="id1">
      <path d="M45.71 17.42l0 25.58c0,1.29 -1.05,2.34 -2.34,2.34l-35.35 0c-1.28,0 -2.33,-1.05 -2.33,-2.34l0 -25.58 19.1 -1.52 20.92 1.52z"/>
     </clipPath>
     <clipPath id="id2">
      <path d="M22.78 28.81l0 5.14c0,0.45 -0.37,0.83 -0.82,0.83l-8.3 0 0 3.66c0,0.82 -0.72,1.07 -1.32,0.62l-6.65 -4.93 -2.84 -2.1c-0.25,-0.19 -0.38,-0.41 -0.38,-0.64l0 -0.02c0,-0.23 0.13,-0.45 0.38,-0.64l2.84 -2.1 6.65 -4.93c0.61,-0.45 1.32,-0.2 1.32,0.61l0 3.67 8.3 0c0.45,0 0.82,0.38 0.82,0.83z"/>
     </clipPath>
     <clipPath id="id3">
      <path d="M26.47 33.95l0 -5.14c0,-0.45 0.37,-0.83 0.83,-0.83l3 0c0.45,0 0.82,0.38 0.82,0.83l0 5.14c0,0.45 -0.37,0.83 -0.82,0.83l-3 0c-0.46,0 -0.83,-0.38 -0.83,-0.83z"/>
     </clipPath>
     <clipPath id="id4">
      <path d="M34.81 33.95l0 -5.14c0,-0.45 0.37,-0.83 0.83,-0.83l3 0c0.46,0 0.83,0.38 0.83,0.83l0 5.14c0,0.45 -0.37,0.83 -0.83,0.83l-3 0c-0.46,0 -0.83,-0.38 -0.83,-0.83z"/>
     </clipPath>
     <clipPath id="id5">
      <path d="M45.71 17.42l-40.02 0c-0.46,0 -0.83,-0.37 -0.83,-0.83l0 -2.22 20.84 -1.73 20.84 1.73 0 2.22c0,0.46 -0.38,0.83 -0.83,0.83z"/>
     </clipPath>
     <clipPath id="id6">
      <path d="M46.54 14.37l-41.68 0 0 -5.68c0,-0.46 0.37,-0.83 0.83,-0.83l40.02 0c0.45,0 0.83,0.37 0.83,0.83l0 5.68z"/>
     </clipPath>
     <clipPath id="id7">
      <path d="M42.25 5.56l0 2.3 0 1.74c0,1.04 -0.85,1.89 -1.89,1.89 -1.05,0 -1.9,-0.85 -1.9,-1.89l0 -1.74 0 -2.3c0,-1.05 0.85,-1.9 1.9,-1.9 1.04,0 1.89,0.85 1.89,1.9z"/>
     </clipPath>
     <clipPath id="id8">
      <path d="M32.48 5.56l0 2.3 0 1.74c0,1.04 -0.85,1.89 -1.9,1.89 -1.04,0 -1.89,-0.85 -1.89,-1.89l0 -1.74 0 -2.3c0,-1.05 0.85,-1.9 1.89,-1.9 1.05,0 1.9,0.85 1.9,1.9z"/>
     </clipPath>
     <clipPath id="id9">
      <path d="M22.71 5.56l0 2.3 0 1.74c0,1.04 -0.86,1.89 -1.9,1.89 -1.04,0 -1.89,-0.85 -1.89,-1.89l0 -1.74 0 -2.3c0,-1.05 0.85,-1.9 1.89,-1.9 1.04,0 1.9,0.85 1.9,1.9z"/>
     </clipPath>
     <clipPath id="id10">
      <path d="M12.93 5.56l0 2.3 0 1.74c0,1.04 -0.85,1.89 -1.89,1.89 -1.04,0 -1.9,-0.85 -1.9,-1.89l0 -1.74 0 -2.3c0,-1.05 0.86,-1.9 1.9,-1.9 1.04,0 1.89,0.85 1.89,1.9z"/>
     </clipPath>
     <clipPath id="id11">
      <path d="M45.71 17.42l-13.99 0c2.27,2.91 3.92,6.53 4.7,10.56l2.22 0c0.46,0 0.83,0.38 0.83,0.83l0 5.14c0,0.45 -0.37,0.83 -0.83,0.83l-1.73 0c-0.19,3.84 -1.15,7.44 -2.69,10.56l9.15 0c1.29,0 2.34,-1.05 2.34,-2.34l0 -25.58z"/>
     </clipPath>
     <clipPath id="id12">
      <path d="M38.64 27.98l-2.22 0c0.34,1.73 0.52,3.54 0.52,5.4 0,0.47 -0.01,0.93 -0.03,1.4l1.73 0c0.46,0 0.83,-0.38 0.83,-0.83l0 -5.14c0,-0.45 -0.37,-0.83 -0.83,-0.83z"/>
     </clipPath>
     <clipPath id="id13">
      <path d="M36.76 14.37l9.78 0 0 -5.68c0,-0.46 -0.38,-0.83 -0.83,-0.83l-3.46 0 0 1.74c0,1.04 -0.85,1.89 -1.89,1.89 -1.05,0 -1.9,-0.85 -1.9,-1.89l0 -1.74 -4.64 0c0.98,1.71 1.86,3.61 2.63,5.67 0.11,0.28 0.21,0.56 0.31,0.84z"/>
     </clipPath>
     <clipPath id="id14">
      <path d="M46.54 14.37l-9.78 0c0.28,0.8 0.54,1.62 0.79,2.46 0.06,0.19 0.12,0.39 0.17,0.59l7.99 0c0.45,0 0.83,-0.37 0.83,-0.83l0 -2.22z"/>
     </clipPath>
     <clipPath id="id15">
      <path d="M11.1 5.56l0 2.3 0 1.74c0,0.71 -0.4,1.33 -0.98,1.65 0.27,0.15 0.59,0.24 0.92,0.24 1.04,0 1.89,-0.85 1.89,-1.89l0 -1.74 0 -2.3c0,-0.52 -0.2,-0.98 -0.53,-1.32 -0.35,-0.36 -0.83,-0.58 -1.36,-0.58 -0.33,0 -0.65,0.09 -0.92,0.24 0.16,0.09 0.31,0.2 0.44,0.34 0.33,0.34 0.54,0.8 0.54,1.32l0 0z"/>
     </clipPath>
     <clipPath id="id16">
      <path d="M20.87 5.56l0 2.3 0 1.74c0,0.71 -0.4,1.33 -0.98,1.65 0.28,0.15 0.59,0.24 0.92,0.24 1.04,0 1.9,-0.85 1.9,-1.89l0 -1.74 0 -2.3c0,-0.52 -0.21,-0.98 -0.54,-1.32 -0.35,-0.36 -0.83,-0.58 -1.36,-0.58 -0.33,0 -0.64,0.09 -0.92,0.24 0.17,0.09 0.31,0.2 0.44,0.34 0.33,0.34 0.54,0.8 0.54,1.32l0 0z"/>
     </clipPath>
     <clipPath id="id17">
      <path d="M30.64 5.56l0 2.3 0 1.74c0,0.71 -0.4,1.33 -0.97,1.65 0.27,0.15 0.58,0.24 0.91,0.24 1.05,0 1.9,-0.85 1.9,-1.89l0 -1.74 0 -2.3c0,-0.52 -0.21,-0.98 -0.54,-1.32 -0.35,-0.36 -0.82,-0.58 -1.36,-0.58 -0.33,0 -0.64,0.09 -0.91,0.24 0.16,0.09 0.31,0.2 0.43,0.34 0.34,0.34 0.54,0.8 0.54,1.32l0 0z"/>
     </clipPath>
     <clipPath id="id18">
      <path d="M39.88 4.24c0.33,0.34 0.53,0.8 0.53,1.32l0 2.3 0 1.74c0,0.71 -0.39,1.33 -0.97,1.65 0.27,0.15 0.58,0.24 0.92,0.24 1.04,0 1.89,-0.85 1.89,-1.89l0 -1.74 0 -2.3c0,-0.52 -0.21,-0.98 -0.54,-1.32 -0.34,-0.36 -0.82,-0.58 -1.35,-0.58 -0.34,0 -0.65,0.09 -0.92,0.24 0.16,0.09 0.31,0.2 0.44,0.34l0 0z"/>
     </clipPath>
     <clipPath id="id19">
      <path d="M45.71 7.2l-2.8 0 0 -1.64c0,-1.41 -1.14,-2.56 -2.55,-2.56 -1.42,0 -2.57,1.15 -2.57,2.56l0 1.64 -4.65 0 0 -1.64c0,-1.41 -1.15,-2.56 -2.56,-2.56 -1.41,0 -2.56,1.15 -2.56,2.56l0 1.64 -4.65 0 0 -1.64c0,-1.41 -1.15,-2.56 -2.56,-2.56 -1.41,0 -2.56,1.15 -2.56,2.56l0 1.64 -4.65 0 0 -1.64c0,-1.41 -1.15,-2.56 -2.56,-2.56 -1.41,0 -2.56,1.15 -2.56,2.56l0 1.64 -2.8 0c-0.82,0 -1.48,0.67 -1.48,1.49l0 7.9c0,0.59 0.33,1.09 0.82,1.34l0 10.36 -2.57 1.91c-0.42,0.31 -0.65,0.73 -0.65,1.18 0,0.45 0.23,0.87 0.65,1.18l2.57 1.91 0 8.53c0,1.66 1.35,3 3,3l15.26 0 0.6 0 0.02 0 3.03 0 0.02 0 2.84 0 13.58 0c1.66,0 3,-1.34 3,-3l0 -25.07c0.49,-0.25 0.83,-0.75 0.83,-1.34l0 -7.9c0,-0.82 -0.67,-1.49 -1.49,-1.49l0 0zm-21.81 9.56l3.03 0 0.02 0 0.77 0 17.99 0c0.09,0 0.16,-0.08 0.16,-0.17l0 -1.56 -40.34 0 0 1.56c0,0.09 0.07,0.17 0.15,0.17l15.89 0 2.31 0 0.02 0zm3.03 1.33l-3.03 0 -0.02 0 -2.31 0 -15.22 0 0 9.22 5.59 -4.15c0.51,-0.37 1.13,-0.45 1.63,-0.2 0.47,0.24 0.76,0.74 0.76,1.35l0 3.01 7.63 0c0.82,0 1.49,0.67 1.49,1.49l0 5.14c0,0.82 -0.67,1.49 -1.49,1.49l-7.63 0 0 3c0,0.61 -0.29,1.12 -0.76,1.36 -0.19,0.1 -0.4,0.15 -0.62,0.15 -0.34,0 -0.69,-0.12 -1.01,-0.36l-5.59 -4.14 0 7.55c0,0.92 0.75,1.67 1.67,1.67l15.26 0 0.6 0 0.02 0 3.03 0 0.02 0 2.84 0 13.58 0c0.92,0 1.67,-0.75 1.67,-1.67l0 -24.91 -17.32 0 -0.77 0 -0.02 0zm-14.2 6.14c0.13,-0.09 0.22,-0.09 0.23,-0.09 0.01,0.01 0.04,0.06 0.04,0.17l0 3.67c0,0.37 0.3,0.67 0.66,0.67l8.3 0c0.08,0 0.16,0.07 0.16,0.16l0 5.14c0,0.09 -0.08,0.16 -0.16,0.16l-8.3 0c-0.36,0 -0.66,0.3 -0.66,0.67l0 3.66c0,0.12 -0.03,0.17 -0.03,0.17 -0.02,0.01 -0.11,0.01 -0.24,-0.09l-9.49 -7.03c-0.07,-0.05 -0.1,-0.09 -0.11,-0.11 0.01,-0.02 0.04,-0.06 0.11,-0.11l9.49 -7.04zm26.39 -18.67c0,-0.68 0.56,-1.23 1.24,-1.23 0.67,0 1.22,0.55 1.22,1.23l0 4.04c0,0.68 -0.55,1.23 -1.22,1.23 -0.68,0 -1.24,-0.55 -1.24,-1.23l0 -4.04zm-9.77 0c0,-0.68 0.55,-1.23 1.23,-1.23 0.68,0 1.23,0.55 1.23,1.23l0 4.04c0,0.68 -0.55,1.23 -1.23,1.23 -0.68,0 -1.23,-0.55 -1.23,-1.23l0 -4.04zm-9.77 0c0,-0.68 0.55,-1.23 1.23,-1.23 0.68,0 1.23,0.55 1.23,1.23l0 4.04c0,0.68 -0.55,1.23 -1.23,1.23 -0.68,0 -1.23,-0.55 -1.23,-1.23l0 -4.04zm-9.77 0c0,-0.68 0.55,-1.23 1.23,-1.23 0.68,0 1.23,0.55 1.23,1.23l0 4.04c0,0.68 -0.55,1.23 -1.23,1.23 -0.68,0 -1.23,-0.55 -1.23,-1.23l0 -4.04zm-4.28 8.14l0 -5.01c0,-0.09 0.07,-0.16 0.15,-0.16l2.8 0 0 1.07c0,1.41 1.15,2.56 2.56,2.56 1.41,0 2.56,-1.15 2.56,-2.56l0 -1.07 4.65 0 0 1.07c0,1.41 1.15,2.56 2.56,2.56 1.41,0 2.56,-1.15 2.56,-2.56l0 -1.07 4.65 0 0 1.07c0,1.41 1.15,2.56 2.56,2.56 1.41,0 2.56,-1.15 2.56,-2.56l0 -1.07 4.65 0 0 1.07c0,1.41 1.15,2.56 2.57,2.56 1.41,0 2.55,-1.15 2.55,-2.56l0 -1.07 2.8 0c0.09,0 0.16,0.07 0.16,0.16l0 5.01 -40.34 0z"/>
     </clipPath>
     <clipPath id="id20">
      <path d="M30.3 35.44c0.82,0 1.49,-0.67 1.49,-1.49l0 -5.14c0,-0.82 -0.67,-1.49 -1.49,-1.49l-3 0c-0.83,0 -1.5,0.67 -1.5,1.49l0 5.14c0,0.82 0.67,1.49 1.5,1.49l3 0zm-3.17 -1.49l0 -5.14c0,-0.09 0.08,-0.16 0.17,-0.16l3 0c0.08,0 0.16,0.07 0.16,0.16l0 5.14c0,0.09 -0.07,0.16 -0.16,0.16l-3 0c-0.09,0 -0.17,-0.07 -0.17,-0.16z"/>
     </clipPath>
     <clipPath id="id21">
      <path d="M38.64 35.44c0.82,0 1.5,-0.67 1.5,-1.49l0 -5.14c0,-0.82 -0.68,-1.49 -1.5,-1.49l-3 0c-0.82,0 -1.49,0.67 -1.49,1.49l0 5.14c0,0.82 0.67,1.49 1.49,1.49l3 0zm-3.17 -1.49l0 -5.14c0,-0.09 0.08,-0.16 0.17,-0.16l3 0c0.09,0 0.16,0.07 0.16,0.16l0 5.14c0,0.09 -0.07,0.16 -0.16,0.16l-3 0c-0.09,0 -0.17,-0.07 -0.17,-0.16z"/>
     </clipPath>
 </defs>
 <g id="Layer_x0020_1">
  <metadata id="CorelCorpID_0Corel-Layer"/>
  <g id="_1774622046752">
   <path fill="white" d="M48.17 18.77l0 24.23c0,2.65 -2.15,4.8 -4.8,4.8l-35.35 0c-2.65,0 -4.8,-2.15 -4.8,-4.8l0 -7.63 -1.84 -1.36c-0.85,-0.63 -1.38,-1.57 -1.38,-2.64 0,-1.06 0.54,-1.99 1.38,-2.62l1.84 -1.36 0 -8.62c-0.52,-0.59 -0.82,-1.36 -0.82,-2.18l0 -7.9c0,-1.82 1.47,-3.29 3.29,-3.29l0.99 0c0.09,-2.33 2.01,-4.2 4.36,-4.2 2.35,0 4.27,1.87 4.36,4.2l1.06 0c0.08,-2.33 2,-4.2 4.35,-4.2 2.35,0 4.27,1.87 4.36,4.2l1.06 0c0.08,-2.33 2,-4.2 4.35,-4.2 2.35,0 4.27,1.87 4.36,4.2l1.06 0c0.08,-2.33 2,-4.2 4.36,-4.2 2.35,0 4.27,1.87 4.35,4.2l1 0c1.81,0 3.29,1.47 3.29,3.29l0 7.9c0,0.82 -0.3,1.59 -0.83,2.18z"/>
   <g clip-path="url(#id0)">
    <g>
     <polygon id="1" fill="white" fill-opacity="0.600000" points="-577.58,-287.59 263.07,-287.59 263.07,397.58 -577.58,397.58 "/>
    </g>
   </g>
   <path fill="none" d="M48.17 18.77l0 24.23c0,2.65 -2.15,4.8 -4.8,4.8l-35.35 0c-2.65,0 -4.8,-2.15 -4.8,-4.8l0 -7.63 -1.84 -1.36c-0.85,-0.63 -1.38,-1.57 -1.38,-2.64 0,-1.06 0.54,-1.99 1.38,-2.62l1.84 -1.36 0 -8.62c-0.52,-0.59 -0.82,-1.36 -0.82,-2.18l0 -7.9c0,-1.82 1.47,-3.29 3.29,-3.29l0.99 0c0.09,-2.33 2.01,-4.2 4.36,-4.2 2.35,0 4.27,1.87 4.36,4.2l1.06 0c0.08,-2.33 2,-4.2 4.35,-4.2 2.35,0 4.27,1.87 4.36,4.2l1.06 0c0.08,-2.33 2,-4.2 4.35,-4.2 2.35,0 4.27,1.87 4.36,4.2l1.06 0c0.08,-2.33 2,-4.2 4.36,-4.2 2.35,0 4.27,1.87 4.35,4.2l1 0c1.81,0 3.29,1.47 3.29,3.29l0 7.9c0,0.82 -0.3,1.59 -0.83,2.18z"/>
   <g>
    <path fill="#EFF6FF" d="M45.71 17.42l0 25.58c0,1.29 -1.05,2.34 -2.34,2.34l-35.35 0c-1.28,0 -2.33,-1.05 -2.33,-2.34l0 -25.58 19.1 -1.52 20.92 1.52z"/>
    <g clip-path="url(#id1)">
     <g>
      <polygon id="1" fill="white" fill-opacity="0.600000" points="-577.58,-287.59 263.07,-287.59 263.07,397.58 -577.58,397.58 "/>
     </g>
    </g>
    <path fill="none" d="M45.71 17.42l0 25.58c0,1.29 -1.05,2.34 -2.34,2.34l-35.35 0c-1.28,0 -2.33,-1.05 -2.33,-2.34l0 -25.58 19.1 -1.52 20.92 1.52z"/>
    <path fill="#375E7D" d="M22.78 28.81l0 5.14c0,0.45 -0.37,0.83 -0.82,0.83l-8.3 0 0 3.66c0,0.82 -0.72,1.07 -1.32,0.62l-6.65 -4.93 -2.84 -2.1c-0.25,-0.19 -0.38,-0.41 -0.38,-0.64l0 -0.02c0,-0.23 0.13,-0.45 0.38,-0.64l2.84 -2.1 6.65 -4.93c0.61,-0.45 1.32,-0.2 1.32,0.61l0 3.67 8.3 0c0.45,0 0.82,0.38 0.82,0.83z"/>
    <g clip-path="url(#id2)">
     <g>
      <polygon id="1" fill="white" fill-opacity="0.600000" points="-577.58,-287.59 263.07,-287.59 263.07,397.58 -577.58,397.58 "/>
     </g>
    </g>
    <path fill="none" d="M22.78 28.81l0 5.14c0,0.45 -0.37,0.83 -0.82,0.83l-8.3 0 0 3.66c0,0.82 -0.72,1.07 -1.32,0.62l-6.65 -4.93 -2.84 -2.1c-0.25,-0.19 -0.38,-0.41 -0.38,-0.64l0 -0.02c0,-0.23 0.13,-0.45 0.38,-0.64l2.84 -2.1 6.65 -4.93c0.61,-0.45 1.32,-0.2 1.32,0.61l0 3.67 8.3 0c0.45,0 0.82,0.38 0.82,0.83z"/>
    <path fill="#375E7D" d="M26.47 33.95l0 -5.14c0,-0.45 0.37,-0.83 0.83,-0.83l3 0c0.45,0 0.82,0.38 0.82,0.83l0 5.14c0,0.45 -0.37,0.83 -0.82,0.83l-3 0c-0.46,0 -0.83,-0.38 -0.83,-0.83z"/>
    <g clip-path="url(#id3)">
     <g>
      <polygon id="1" fill="white" fill-opacity="0.600000" points="-577.58,-287.59 263.07,-287.59 263.07,397.58 -577.58,397.58 "/>
     </g>
    </g>
    <path fill="none" d="M26.47 33.95l0 -5.14c0,-0.45 0.37,-0.83 0.83,-0.83l3 0c0.45,0 0.82,0.38 0.82,0.83l0 5.14c0,0.45 -0.37,0.83 -0.82,0.83l-3 0c-0.46,0 -0.83,-0.38 -0.83,-0.83z"/>
    <path fill="#375E7D" d="M34.81 33.95l0 -5.14c0,-0.45 0.37,-0.83 0.83,-0.83l3 0c0.46,0 0.83,0.38 0.83,0.83l0 5.14c0,0.45 -0.37,0.83 -0.83,0.83l-3 0c-0.46,0 -0.83,-0.38 -0.83,-0.83z"/>
    <g clip-path="url(#id4)">
     <g>
      <polygon id="1" fill="white" fill-opacity="0.600000" points="-577.58,-287.59 263.07,-287.59 263.07,397.58 -577.58,397.58 "/>
     </g>
    </g>
    <path fill="none" d="M34.81 33.95l0 -5.14c0,-0.45 0.37,-0.83 0.83,-0.83l3 0c0.46,0 0.83,0.38 0.83,0.83l0 5.14c0,0.45 -0.37,0.83 -0.83,0.83l-3 0c-0.46,0 -0.83,-0.38 -0.83,-0.83z"/>
    <path fill="#9FD4FE" d="M45.71 17.42l-40.02 0c-0.46,0 -0.83,-0.37 -0.83,-0.83l0 -2.22 20.84 -1.73 20.84 1.73 0 2.22c0,0.46 -0.38,0.83 -0.83,0.83z"/>
    <g clip-path="url(#id5)">
     <g>
      <polygon id="1" fill="white" fill-opacity="0.600000" points="-577.58,-287.59 263.07,-287.59 263.07,397.58 -577.58,397.58 "/>
     </g>
    </g>
    <path fill="none" d="M45.71 17.42l-40.02 0c-0.46,0 -0.83,-0.37 -0.83,-0.83l0 -2.22 20.84 -1.73 20.84 1.73 0 2.22c0,0.46 -0.38,0.83 -0.83,0.83z"/>
    <path fill="#EB5468" d="M46.54 14.37l-41.68 0 0 -5.68c0,-0.46 0.37,-0.83 0.83,-0.83l40.02 0c0.45,0 0.83,0.37 0.83,0.83l0 5.68z"/>
    <g clip-path="url(#id6)">
     <g>
      <polygon id="1" fill="white" fill-opacity="0.600000" points="-577.58,-287.59 263.07,-287.59 263.07,397.58 -577.58,397.58 "/>
     </g>
    </g>
    <path fill="none" d="M46.54 14.37l-41.68 0 0 -5.68c0,-0.46 0.37,-0.83 0.83,-0.83l40.02 0c0.45,0 0.83,0.37 0.83,0.83l0 5.68z"/>
    <path fill="#FFD772" d="M42.25 5.56l0 2.3 0 1.74c0,1.04 -0.85,1.89 -1.89,1.89 -1.05,0 -1.9,-0.85 -1.9,-1.89l0 -1.74 0 -2.3c0,-1.05 0.85,-1.9 1.9,-1.9 1.04,0 1.89,0.85 1.89,1.9z"/>
    <g clip-path="url(#id7)">
     <g>
      <polygon id="1" fill="white" fill-opacity="0.600000" points="-577.58,-287.59 263.07,-287.59 263.07,397.58 -577.58,397.58 "/>
     </g>
    </g>
    <path fill="none" d="M42.25 5.56l0 2.3 0 1.74c0,1.04 -0.85,1.89 -1.89,1.89 -1.05,0 -1.9,-0.85 -1.9,-1.89l0 -1.74 0 -2.3c0,-1.05 0.85,-1.9 1.9,-1.9 1.04,0 1.89,0.85 1.89,1.9z"/>
    <path fill="#FFD772" d="M32.48 5.56l0 2.3 0 1.74c0,1.04 -0.85,1.89 -1.9,1.89 -1.04,0 -1.89,-0.85 -1.89,-1.89l0 -1.74 0 -2.3c0,-1.05 0.85,-1.9 1.89,-1.9 1.05,0 1.9,0.85 1.9,1.9z"/>
    <g clip-path="url(#id8)">
     <g>
      <polygon id="1" fill="white" fill-opacity="0.600000" points="-577.58,-287.59 263.07,-287.59 263.07,397.58 -577.58,397.58 "/>
     </g>
    </g>
    <path fill="none" d="M32.48 5.56l0 2.3 0 1.74c0,1.04 -0.85,1.89 -1.9,1.89 -1.04,0 -1.89,-0.85 -1.89,-1.89l0 -1.74 0 -2.3c0,-1.05 0.85,-1.9 1.89,-1.9 1.05,0 1.9,0.85 1.9,1.9z"/>
    <path fill="#FFD772" d="M22.71 5.56l0 2.3 0 1.74c0,1.04 -0.86,1.89 -1.9,1.89 -1.04,0 -1.89,-0.85 -1.89,-1.89l0 -1.74 0 -2.3c0,-1.05 0.85,-1.9 1.89,-1.9 1.04,0 1.9,0.85 1.9,1.9z"/>
    <g clip-path="url(#id9)">
     <g>
      <polygon id="1" fill="white" fill-opacity="0.600000" points="-577.58,-287.59 263.07,-287.59 263.07,397.58 -577.58,397.58 "/>
     </g>
    </g>
    <path fill="none" d="M22.71 5.56l0 2.3 0 1.74c0,1.04 -0.86,1.89 -1.9,1.89 -1.04,0 -1.89,-0.85 -1.89,-1.89l0 -1.74 0 -2.3c0,-1.05 0.85,-1.9 1.89,-1.9 1.04,0 1.9,0.85 1.9,1.9z"/>
    <path fill="#FFD772" d="M12.93 5.56l0 2.3 0 1.74c0,1.04 -0.85,1.89 -1.89,1.89 -1.04,0 -1.9,-0.85 -1.9,-1.89l0 -1.74 0 -2.3c0,-1.05 0.86,-1.9 1.9,-1.9 1.04,0 1.89,0.85 1.89,1.9z"/>
    <g clip-path="url(#id10)">
     <g>
      <polygon id="1" fill="white" fill-opacity="0.600000" points="-577.58,-287.59 263.07,-287.59 263.07,397.58 -577.58,397.58 "/>
     </g>
    </g>
    <path fill="none" d="M12.93 5.56l0 2.3 0 1.74c0,1.04 -0.85,1.89 -1.89,1.89 -1.04,0 -1.9,-0.85 -1.9,-1.89l0 -1.74 0 -2.3c0,-1.05 0.86,-1.9 1.9,-1.9 1.04,0 1.89,0.85 1.89,1.9z"/>
    <path fill="#D9EEFF" d="M45.71 17.42l-13.99 0c2.27,2.91 3.92,6.53 4.7,10.56l2.22 0c0.46,0 0.83,0.38 0.83,0.83l0 5.14c0,0.45 -0.37,0.83 -0.83,0.83l-1.73 0c-0.19,3.84 -1.15,7.44 -2.69,10.56l9.15 0c1.29,0 2.34,-1.05 2.34,-2.34l0 -25.58z"/>
    <g clip-path="url(#id11)">
     <g>
      <polygon id="1" fill="white" fill-opacity="0.600000" points="-577.58,-287.59 263.07,-287.59 263.07,397.58 -577.58,397.58 "/>
     </g>
    </g>
    <path fill="none" d="M45.71 17.42l-13.99 0c2.27,2.91 3.92,6.53 4.7,10.56l2.22 0c0.46,0 0.83,0.38 0.83,0.83l0 5.14c0,0.45 -0.37,0.83 -0.83,0.83l-1.73 0c-0.19,3.84 -1.15,7.44 -2.69,10.56l9.15 0c1.29,0 2.34,-1.05 2.34,-2.34l0 -25.58z"/>
    <path fill="#2B4D66" d="M38.64 27.98l-2.22 0c0.34,1.73 0.52,3.54 0.52,5.4 0,0.47 -0.01,0.93 -0.03,1.4l1.73 0c0.46,0 0.83,-0.38 0.83,-0.83l0 -5.14c0,-0.45 -0.37,-0.83 -0.83,-0.83z"/>
    <g clip-path="url(#id12)">
     <g>
      <polygon id="1" fill="white" fill-opacity="0.600000" points="-577.58,-287.59 263.07,-287.59 263.07,397.58 -577.58,397.58 "/>
     </g>
    </g>
    <path fill="none" d="M38.64 27.98l-2.22 0c0.34,1.73 0.52,3.54 0.52,5.4 0,0.47 -0.01,0.93 -0.03,1.4l1.73 0c0.46,0 0.83,-0.38 0.83,-0.83l0 -5.14c0,-0.45 -0.37,-0.83 -0.83,-0.83z"/>
    <path fill="#E5384F" d="M36.76 14.37l9.78 0 0 -5.68c0,-0.46 -0.38,-0.83 -0.83,-0.83l-3.46 0 0 1.74c0,1.04 -0.85,1.89 -1.89,1.89 -1.05,0 -1.9,-0.85 -1.9,-1.89l0 -1.74 -4.64 0c0.98,1.71 1.86,3.61 2.63,5.67 0.11,0.28 0.21,0.56 0.31,0.84z"/>
    <g clip-path="url(#id13)">
     <g>
      <polygon id="1" fill="white" fill-opacity="0.600000" points="-577.58,-287.59 263.07,-287.59 263.07,397.58 -577.58,397.58 "/>
     </g>
    </g>
    <path fill="none" d="M36.76 14.37l9.78 0 0 -5.68c0,-0.46 -0.38,-0.83 -0.83,-0.83l-3.46 0 0 1.74c0,1.04 -0.85,1.89 -1.89,1.89 -1.05,0 -1.9,-0.85 -1.9,-1.89l0 -1.74 -4.64 0c0.98,1.71 1.86,3.61 2.63,5.67 0.11,0.28 0.21,0.56 0.31,0.84z"/>
    <path fill="#85BEEF" d="M46.54 14.37l-9.78 0c0.28,0.8 0.54,1.62 0.79,2.46 0.06,0.19 0.12,0.39 0.17,0.59l7.99 0c0.45,0 0.83,-0.37 0.83,-0.83l0 -2.22z"/>
    <g clip-path="url(#id14)">
     <g>
      <polygon id="1" fill="white" fill-opacity="0.600000" points="-577.58,-287.59 263.07,-287.59 263.07,397.58 -577.58,397.58 "/>
     </g>
    </g>
    <path fill="none" d="M46.54 14.37l-9.78 0c0.28,0.8 0.54,1.62 0.79,2.46 0.06,0.19 0.12,0.39 0.17,0.59l7.99 0c0.45,0 0.83,-0.37 0.83,-0.83l0 -2.22z"/>
    <path fill="#FBBA58" d="M11.1 5.56l0 2.3 0 1.74c0,0.71 -0.4,1.33 -0.98,1.65 0.27,0.15 0.59,0.24 0.92,0.24 1.04,0 1.89,-0.85 1.89,-1.89l0 -1.74 0 -2.3c0,-0.52 -0.2,-0.98 -0.53,-1.32 -0.35,-0.36 -0.83,-0.58 -1.36,-0.58 -0.33,0 -0.65,0.09 -0.92,0.24 0.16,0.09 0.31,0.2 0.44,0.34 0.33,0.34 0.54,0.8 0.54,1.32l0 0z"/>
    <g clip-path="url(#id15)">
     <g>
      <polygon id="1" fill="white" fill-opacity="0.600000" points="-577.58,-287.59 263.07,-287.59 263.07,397.58 -577.58,397.58 "/>
     </g>
    </g>
    <path fill="none" d="M11.1 5.56l0 2.3 0 1.74c0,0.71 -0.4,1.33 -0.98,1.65 0.27,0.15 0.59,0.24 0.92,0.24 1.04,0 1.89,-0.85 1.89,-1.89l0 -1.74 0 -2.3c0,-0.52 -0.2,-0.98 -0.53,-1.32 -0.35,-0.36 -0.83,-0.58 -1.36,-0.58 -0.33,0 -0.65,0.09 -0.92,0.24 0.16,0.09 0.31,0.2 0.44,0.34 0.33,0.34 0.54,0.8 0.54,1.32l0 0z"/>
    <path fill="#FBBA58" d="M20.87 5.56l0 2.3 0 1.74c0,0.71 -0.4,1.33 -0.98,1.65 0.28,0.15 0.59,0.24 0.92,0.24 1.04,0 1.9,-0.85 1.9,-1.89l0 -1.74 0 -2.3c0,-0.52 -0.21,-0.98 -0.54,-1.32 -0.35,-0.36 -0.83,-0.58 -1.36,-0.58 -0.33,0 -0.64,0.09 -0.92,0.24 0.17,0.09 0.31,0.2 0.44,0.34 0.33,0.34 0.54,0.8 0.54,1.32l0 0z"/>
    <g clip-path="url(#id16)">
     <g>
      <polygon id="1" fill="white" fill-opacity="0.600000" points="-577.58,-287.59 263.07,-287.59 263.07,397.58 -577.58,397.58 "/>
     </g>
    </g>
    <path fill="none" d="M20.87 5.56l0 2.3 0 1.74c0,0.71 -0.4,1.33 -0.98,1.65 0.28,0.15 0.59,0.24 0.92,0.24 1.04,0 1.9,-0.85 1.9,-1.89l0 -1.74 0 -2.3c0,-0.52 -0.21,-0.98 -0.54,-1.32 -0.35,-0.36 -0.83,-0.58 -1.36,-0.58 -0.33,0 -0.64,0.09 -0.92,0.24 0.17,0.09 0.31,0.2 0.44,0.34 0.33,0.34 0.54,0.8 0.54,1.32l0 0z"/>
    <path fill="#FBBA58" d="M30.64 5.56l0 2.3 0 1.74c0,0.71 -0.4,1.33 -0.97,1.65 0.27,0.15 0.58,0.24 0.91,0.24 1.05,0 1.9,-0.85 1.9,-1.89l0 -1.74 0 -2.3c0,-0.52 -0.21,-0.98 -0.54,-1.32 -0.35,-0.36 -0.82,-0.58 -1.36,-0.58 -0.33,0 -0.64,0.09 -0.91,0.24 0.16,0.09 0.31,0.2 0.43,0.34 0.34,0.34 0.54,0.8 0.54,1.32l0 0z"/>
    <g clip-path="url(#id17)">
     <g>
      <polygon id="1" fill="white" fill-opacity="0.600000" points="-577.58,-287.59 263.07,-287.59 263.07,397.58 -577.58,397.58 "/>
     </g>
    </g>
    <path fill="none" d="M30.64 5.56l0 2.3 0 1.74c0,0.71 -0.4,1.33 -0.97,1.65 0.27,0.15 0.58,0.24 0.91,0.24 1.05,0 1.9,-0.85 1.9,-1.89l0 -1.74 0 -2.3c0,-0.52 -0.21,-0.98 -0.54,-1.32 -0.35,-0.36 -0.82,-0.58 -1.36,-0.58 -0.33,0 -0.64,0.09 -0.91,0.24 0.16,0.09 0.31,0.2 0.43,0.34 0.34,0.34 0.54,0.8 0.54,1.32l0 0z"/>
    <path fill="#FBBA58" d="M39.88 4.24c0.33,0.34 0.53,0.8 0.53,1.32l0 2.3 0 1.74c0,0.71 -0.39,1.33 -0.97,1.65 0.27,0.15 0.58,0.24 0.92,0.24 1.04,0 1.89,-0.85 1.89,-1.89l0 -1.74 0 -2.3c0,-0.52 -0.21,-0.98 -0.54,-1.32 -0.34,-0.36 -0.82,-0.58 -1.35,-0.58 -0.34,0 -0.65,0.09 -0.92,0.24 0.16,0.09 0.31,0.2 0.44,0.34l0 0z"/>
    <g clip-path="url(#id18)">
     <g>
      <polygon id="1" fill="white" fill-opacity="0.600000" points="-577.58,-287.59 263.07,-287.59 263.07,397.58 -577.58,397.58 "/>
     </g>
    </g>
    <path fill="none" d="M39.88 4.24c0.33,0.34 0.53,0.8 0.53,1.32l0 2.3 0 1.74c0,0.71 -0.39,1.33 -0.97,1.65 0.27,0.15 0.58,0.24 0.92,0.24 1.04,0 1.89,-0.85 1.89,-1.89l0 -1.74 0 -2.3c0,-0.52 -0.21,-0.98 -0.54,-1.32 -0.34,-0.36 -0.82,-0.58 -1.35,-0.58 -0.34,0 -0.65,0.09 -0.92,0.24 0.16,0.09 0.31,0.2 0.44,0.34l0 0z"/>
    <path fill="black" d="M45.71 7.2l-2.8 0 0 -1.64c0,-1.41 -1.14,-2.56 -2.55,-2.56 -1.42,0 -2.57,1.15 -2.57,2.56l0 1.64 -4.65 0 0 -1.64c0,-1.41 -1.15,-2.56 -2.56,-2.56 -1.41,0 -2.56,1.15 -2.56,2.56l0 1.64 -4.65 0 0 -1.64c0,-1.41 -1.15,-2.56 -2.56,-2.56 -1.41,0 -2.56,1.15 -2.56,2.56l0 1.64 -4.65 0 0 -1.64c0,-1.41 -1.15,-2.56 -2.56,-2.56 -1.41,0 -2.56,1.15 -2.56,2.56l0 1.64 -2.8 0c-0.82,0 -1.48,0.67 -1.48,1.49l0 7.9c0,0.59 0.33,1.09 0.82,1.34l0 10.36 -2.57 1.91c-0.42,0.31 -0.65,0.73 -0.65,1.18 0,0.45 0.23,0.87 0.65,1.18l2.57 1.91 0 8.53c0,1.66 1.35,3 3,3l15.26 0 0.6 0 0.02 0 3.03 0 0.02 0 2.84 0 13.58 0c1.66,0 3,-1.34 3,-3l0 -25.07c0.49,-0.25 0.83,-0.75 0.83,-1.34l0 -7.9c0,-0.82 -0.67,-1.49 -1.49,-1.49l0 0zm-21.81 9.56l3.03 0 0.02 0 0.77 0 17.99 0c0.09,0 0.16,-0.08 0.16,-0.17l0 -1.56 -40.34 0 0 1.56c0,0.09 0.07,0.17 0.15,0.17l15.89 0 2.31 0 0.02 0zm3.03 1.33l-3.03 0 -0.02 0 -2.31 0 -15.22 0 0 9.22 5.59 -4.15c0.51,-0.37 1.13,-0.45 1.63,-0.2 0.47,0.24 0.76,0.74 0.76,1.35l0 3.01 7.63 0c0.82,0 1.49,0.67 1.49,1.49l0 5.14c0,0.82 -0.67,1.49 -1.49,1.49l-7.63 0 0 3c0,0.61 -0.29,1.12 -0.76,1.36 -0.19,0.1 -0.4,0.15 -0.62,0.15 -0.34,0 -0.69,-0.12 -1.01,-0.36l-5.59 -4.14 0 7.55c0,0.92 0.75,1.67 1.67,1.67l15.26 0 0.6 0 0.02 0 3.03 0 0.02 0 2.84 0 13.58 0c0.92,0 1.67,-0.75 1.67,-1.67l0 -24.91 -17.32 0 -0.77 0 -0.02 0zm-14.2 6.14c0.13,-0.09 0.22,-0.09 0.23,-0.09 0.01,0.01 0.04,0.06 0.04,0.17l0 3.67c0,0.37 0.3,0.67 0.66,0.67l8.3 0c0.08,0 0.16,0.07 0.16,0.16l0 5.14c0,0.09 -0.08,0.16 -0.16,0.16l-8.3 0c-0.36,0 -0.66,0.3 -0.66,0.67l0 3.66c0,0.12 -0.03,0.17 -0.03,0.17 -0.02,0.01 -0.11,0.01 -0.24,-0.09l-9.49 -7.03c-0.07,-0.05 -0.1,-0.09 -0.11,-0.11 0.01,-0.02 0.04,-0.06 0.11,-0.11l9.49 -7.04zm26.39 -18.67c0,-0.68 0.56,-1.23 1.24,-1.23 0.67,0 1.22,0.55 1.22,1.23l0 4.04c0,0.68 -0.55,1.23 -1.22,1.23 -0.68,0 -1.24,-0.55 -1.24,-1.23l0 -4.04zm-9.77 0c0,-0.68 0.55,-1.23 1.23,-1.23 0.68,0 1.23,0.55 1.23,1.23l0 4.04c0,0.68 -0.55,1.23 -1.23,1.23 -0.68,0 -1.23,-0.55 -1.23,-1.23l0 -4.04zm-9.77 0c0,-0.68 0.55,-1.23 1.23,-1.23 0.68,0 1.23,0.55 1.23,1.23l0 4.04c0,0.68 -0.55,1.23 -1.23,1.23 -0.68,0 -1.23,-0.55 -1.23,-1.23l0 -4.04zm-9.77 0c0,-0.68 0.55,-1.23 1.23,-1.23 0.68,0 1.23,0.55 1.23,1.23l0 4.04c0,0.68 -0.55,1.23 -1.23,1.23 -0.68,0 -1.23,-0.55 -1.23,-1.23l0 -4.04zm-4.28 8.14l0 -5.01c0,-0.09 0.07,-0.16 0.15,-0.16l2.8 0 0 1.07c0,1.41 1.15,2.56 2.56,2.56 1.41,0 2.56,-1.15 2.56,-2.56l0 -1.07 4.65 0 0 1.07c0,1.41 1.15,2.56 2.56,2.56 1.41,0 2.56,-1.15 2.56,-2.56l0 -1.07 4.65 0 0 1.07c0,1.41 1.15,2.56 2.56,2.56 1.41,0 2.56,-1.15 2.56,-2.56l0 -1.07 4.65 0 0 1.07c0,1.41 1.15,2.56 2.57,2.56 1.41,0 2.55,-1.15 2.55,-2.56l0 -1.07 2.8 0c0.09,0 0.16,0.07 0.16,0.16l0 5.01 -40.34 0z"/>
    <g clip-path="url(#id19)">
     <g>
      <polygon id="1" fill="white" fill-opacity="0.600000" points="-577.58,-287.59 263.07,-287.59 263.07,397.58 -577.58,397.58 "/>
     </g>
    </g>
    <path fill="none" d="M45.71 7.2l-2.8 0 0 -1.64c0,-1.41 -1.14,-2.56 -2.55,-2.56 -1.42,0 -2.57,1.15 -2.57,2.56l0 1.64 -4.65 0 0 -1.64c0,-1.41 -1.15,-2.56 -2.56,-2.56 -1.41,0 -2.56,1.15 -2.56,2.56l0 1.64 -4.65 0 0 -1.64c0,-1.41 -1.15,-2.56 -2.56,-2.56 -1.41,0 -2.56,1.15 -2.56,2.56l0 1.64 -4.65 0 0 -1.64c0,-1.41 -1.15,-2.56 -2.56,-2.56 -1.41,0 -2.56,1.15 -2.56,2.56l0 1.64 -2.8 0c-0.82,0 -1.48,0.67 -1.48,1.49l0 7.9c0,0.59 0.33,1.09 0.82,1.34l0 10.36 -2.57 1.91c-0.42,0.31 -0.65,0.73 -0.65,1.18 0,0.45 0.23,0.87 0.65,1.18l2.57 1.91 0 8.53c0,1.66 1.35,3 3,3l15.26 0 0.6 0 0.02 0 3.03 0 0.02 0 2.84 0 13.58 0c1.66,0 3,-1.34 3,-3l0 -25.07c0.49,-0.25 0.83,-0.75 0.83,-1.34l0 -7.9c0,-0.82 -0.67,-1.49 -1.49,-1.49l0 0zm-21.81 9.56l3.03 0 0.02 0 0.77 0 17.99 0c0.09,0 0.16,-0.08 0.16,-0.17l0 -1.56 -40.34 0 0 1.56c0,0.09 0.07,0.17 0.15,0.17l15.89 0 2.31 0 0.02 0zm3.03 1.33l-3.03 0 -0.02 0 -2.31 0 -15.22 0 0 9.22 5.59 -4.15c0.51,-0.37 1.13,-0.45 1.63,-0.2 0.47,0.24 0.76,0.74 0.76,1.35l0 3.01 7.63 0c0.82,0 1.49,0.67 1.49,1.49l0 5.14c0,0.82 -0.67,1.49 -1.49,1.49l-7.63 0 0 3c0,0.61 -0.29,1.12 -0.76,1.36 -0.19,0.1 -0.4,0.15 -0.62,0.15 -0.34,0 -0.69,-0.12 -1.01,-0.36l-5.59 -4.14 0 7.55c0,0.92 0.75,1.67 1.67,1.67l15.26 0 0.6 0 0.02 0 3.03 0 0.02 0 2.84 0 13.58 0c0.92,0 1.67,-0.75 1.67,-1.67l0 -24.91 -17.32 0 -0.77 0 -0.02 0zm-14.2 6.14c0.13,-0.09 0.22,-0.09 0.23,-0.09 0.01,0.01 0.04,0.06 0.04,0.17l0 3.67c0,0.37 0.3,0.67 0.66,0.67l8.3 0c0.08,0 0.16,0.07 0.16,0.16l0 5.14c0,0.09 -0.08,0.16 -0.16,0.16l-8.3 0c-0.36,0 -0.66,0.3 -0.66,0.67l0 3.66c0,0.12 -0.03,0.17 -0.03,0.17 -0.02,0.01 -0.11,0.01 -0.24,-0.09l-9.49 -7.03c-0.07,-0.05 -0.1,-0.09 -0.11,-0.11 0.01,-0.02 0.04,-0.06 0.11,-0.11l9.49 -7.04zm26.39 -18.67c0,-0.68 0.56,-1.23 1.24,-1.23 0.67,0 1.22,0.55 1.22,1.23l0 4.04c0,0.68 -0.55,1.23 -1.22,1.23 -0.68,0 -1.24,-0.55 -1.24,-1.23l0 -4.04zm-9.77 0c0,-0.68 0.55,-1.23 1.23,-1.23 0.68,0 1.23,0.55 1.23,1.23l0 4.04c0,0.68 -0.55,1.23 -1.23,1.23 -0.68,0 -1.23,-0.55 -1.23,-1.23l0 -4.04zm-9.77 0c0,-0.68 0.55,-1.23 1.23,-1.23 0.68,0 1.23,0.55 1.23,1.23l0 4.04c0,0.68 -0.55,1.23 -1.23,1.23 -0.68,0 -1.23,-0.55 -1.23,-1.23l0 -4.04zm-9.77 0c0,-0.68 0.55,-1.23 1.23,-1.23 0.68,0 1.23,0.55 1.23,1.23l0 4.04c0,0.68 -0.55,1.23 -1.23,1.23 -0.68,0 -1.23,-0.55 -1.23,-1.23l0 -4.04zm-4.28 8.14l0 -5.01c0,-0.09 0.07,-0.16 0.15,-0.16l2.8 0 0 1.07c0,1.41 1.15,2.56 2.56,2.56 1.41,0 2.56,-1.15 2.56,-2.56l0 -1.07 4.65 0 0 1.07c0,1.41 1.15,2.56 2.56,2.56 1.41,0 2.56,-1.15 2.56,-2.56l0 -1.07 4.65 0 0 1.07c0,1.41 1.15,2.56 2.56,2.56 1.41,0 2.56,-1.15 2.56,-2.56l0 -1.07 4.65 0 0 1.07c0,1.41 1.15,2.56 2.57,2.56 1.41,0 2.55,-1.15 2.55,-2.56l0 -1.07 2.8 0c0.09,0 0.16,0.07 0.16,0.16l0 5.01 -40.34 0z"/>
    <path fill="black" d="M30.3 35.44c0.82,0 1.49,-0.67 1.49,-1.49l0 -5.14c0,-0.82 -0.67,-1.49 -1.49,-1.49l-3 0c-0.83,0 -1.5,0.67 -1.5,1.49l0 5.14c0,0.82 0.67,1.49 1.5,1.49l3 0zm-3.17 -1.49l0 -5.14c0,-0.09 0.08,-0.16 0.17,-0.16l3 0c0.08,0 0.16,0.07 0.16,0.16l0 5.14c0,0.09 -0.07,0.16 -0.16,0.16l-3 0c-0.09,0 -0.17,-0.07 -0.17,-0.16z"/>
    <g clip-path="url(#id20)">
     <g>
      <polygon id="1" fill="white" fill-opacity="0.600000" points="-577.58,-287.59 263.07,-287.59 263.07,397.58 -577.58,397.58 "/>
     </g>
    </g>
    <path fill="none" d="M30.3 35.44c0.82,0 1.49,-0.67 1.49,-1.49l0 -5.14c0,-0.82 -0.67,-1.49 -1.49,-1.49l-3 0c-0.83,0 -1.5,0.67 -1.5,1.49l0 5.14c0,0.82 0.67,1.49 1.5,1.49l3 0zm-3.17 -1.49l0 -5.14c0,-0.09 0.08,-0.16 0.17,-0.16l3 0c0.08,0 0.16,0.07 0.16,0.16l0 5.14c0,0.09 -0.07,0.16 -0.16,0.16l-3 0c-0.09,0 -0.17,-0.07 -0.17,-0.16z"/>
    <path fill="black" d="M38.64 35.44c0.82,0 1.5,-0.67 1.5,-1.49l0 -5.14c0,-0.82 -0.68,-1.49 -1.5,-1.49l-3 0c-0.82,0 -1.49,0.67 -1.49,1.49l0 5.14c0,0.82 0.67,1.49 1.49,1.49l3 0zm-3.17 -1.49l0 -5.14c0,-0.09 0.08,-0.16 0.17,-0.16l3 0c0.09,0 0.16,0.07 0.16,0.16l0 5.14c0,0.09 -0.07,0.16 -0.16,0.16l-3 0c-0.09,0 -0.17,-0.07 -0.17,-0.16z"/>
    <g clip-path="url(#id21)">
     <g>
      <polygon id="1" fill="white" fill-opacity="0.600000" points="-577.58,-287.59 263.07,-287.59 263.07,397.58 -577.58,397.58 "/>
     </g>
    </g>
    <path fill="none" d="M38.64 35.44c0.82,0 1.5,-0.67 1.5,-1.49l0 -5.14c0,-0.82 -0.68,-1.49 -1.5,-1.49l-3 0c-0.82,0 -1.49,0.67 -1.49,1.49l0 5.14c0,0.82 0.67,1.49 1.49,1.49l3 0zm-3.17 -1.49l0 -5.14c0,-0.09 0.08,-0.16 0.17,-0.16l3 0c0.09,0 0.16,0.07 0.16,0.16l0 5.14c0,0.09 -0.07,0.16 -0.16,0.16l-3 0c-0.09,0 -0.17,-0.07 -0.17,-0.16z"/>
   </g>
  </g>
 </g>
</svg>
